<mxfile host="app.diagrams.net" modified="2024-03-07T23:43:00.561Z" agent="Mozilla/5.0 (Windows NT 10.0; Win64; x64) AppleWebKit/537.36 (KHTML, like Gecko) Chrome/122.0.0.0 Safari/537.36" etag="MvmRALRgOaI6QMkSW3T5" version="24.0.2" type="device">
  <diagram name="PÃ¡gina-1" id="9YWhiJYsWAPWmCQ23Mdo">
    <mxGraphModel dx="1050" dy="522" grid="1" gridSize="10" guides="1" tooltips="1" connect="1" arrows="1" fold="1" page="1" pageScale="1" pageWidth="827" pageHeight="1169" math="0" shadow="0">
      <root>
        <mxCell id="0" />
        <mxCell id="1" parent="0" />
        <mxCell id="AOr8H0upZgindr5D6W4T-2" value="" style="shape=curlyBracket;whiteSpace=wrap;html=1;rounded=1;flipH=1;labelPosition=right;verticalLabelPosition=middle;align=left;verticalAlign=middle;fillColor=#ffe6cc;strokeColor=#FF8000;" parent="1" vertex="1">
          <mxGeometry x="440" y="230" width="40" height="110" as="geometry" />
        </mxCell>
        <mxCell id="AOr8H0upZgindr5D6W4T-3" value="&lt;font style=&quot;font-size: 15px;&quot; color=&quot;#ff8000&quot;&gt;&lt;b&gt;Saved Products&lt;/b&gt;&lt;/font&gt;" style="text;html=1;align=center;verticalAlign=middle;whiteSpace=wrap;rounded=0;" parent="1" vertex="1">
          <mxGeometry x="490" y="270" width="60" height="30" as="geometry" />
        </mxCell>
        <mxCell id="ApYNXiz9CdKPTG6G7-e--1" value="" style="shape=image;verticalLabelPosition=bottom;labelBackgroundColor=default;verticalAlign=top;aspect=fixed;imageAspect=0;image=data:image/png,iVBORw0KGgoAAAANSUhEUgAAAeEAAAPMCAYAAAB15wHPAACAAElEQVR4XuxdB3hUVdO+VlSk944I0kQFRBRBwd71t3wWRFGRlt57AiT03nvvPfTeQu+99w6iCIogzfnnnc1dls0GNtkNbGDmed5nk73t3HvPznumnDmGoXJbCQgIKBIeHvJVXIuYwJatm8fEx8fGRUaGNvP1b9rM27vRKF9/ry2BwX6/hYQGXAgLD7rMuBYaFvhfSGgg8XcUFOxHAYE+5OfvRT6+TQRe3o2oSdNfFQqFIkPAeogWLJhNy5cvToFBg/ul2N/bp7HoJl+/puQf4E2BQb4UHOIvOgz6LDwi+Dqf82poWNAl/v4c67RD3j5NFnl5NewQHOrfjLVis5Ytm8cxIqJjoxuFhIS8+lXcV4/a61MVlRTi7+9fMrZ5tFdCQlxsSEhAPHfC5Uygf3GHuw7ybOrVMEWHVSgUCk8GkyYtWTKfVq9elgJDhw1MsX9GAKTOJP4fE/eVgCDfo96+TQbExkbGxTNRh0WFfRwXF/ewvT5WuceFLdg63AGi/P19egUF+59GB7mdVYrtsGZ5pEft2reinr260qBB/WjEyCE0bvxomjp1Es2eM4MWLppHy5YtodVrVtCGjWtpy9aNtGPnVtq1ezvt3beLDhzcQ4cO76fDRw7QEcbRY4fo2PHDCoVC4XYcPnyAtm3bRFtZD9ljN+sk232PHDkoegk4eGgv7du/m/bs3Uk7d22jbds306bN62nd+tW0YuVSWpK0kObNn00zZk6lSZPH0+gxw4XU+/brRV26dqD4hGYyAIBFba9L7QGLmwn6sp+f1/LI6PC45s1jvVjy2OttlUwssbFR/xcdGx4XEOi3jYn0P0dWLUg2IjKEOnZqR4OH9JeOBUIFkYI8j584QidPHbfixMmjdPToIe6s+7mz7qHde3YI2W7dtpm2bNlIGzeuo/Xr19DadauZkFfSqtUraOWq5bRixVJavjxJiHopsHQxJS1dpFAoFG7H8hVJtH3HZtrJuskeG1m33dh3sUUfMZYtS+LjljLZLmO9tZyt5hW0Zu0qWse6bMOGtbRp03om8U183i02xsVeJu+DdPw49OSxG7ry5DEhdewL8p45axqNGj2cevfpLkQNL6O9LgZA3mwc/RMU5DuoRUKz4NBQn6L2el3FgyU4uF7W5vGxPgGBvpOCQ/yv2pMuXnDrNvE0bPggsV4xwoNFauk4x4Rc9+7bLR0HZAoCBVkuWDiX959J06ZPocmJE5moJ9CkSeNp4qRxNGEiY8JYGs8YN36MBeNG01jBKBoz1hYjLRijUCgUGQfopw0b1rBhsD4FFi+en2J/gamfkvUV9JcFo0WnQbeNnwCMFZ0H3TeRr4NrQSdOmTJJyHbevNm0aPECIXQYI/AK7tq1XQwXGDEmSYPEly1fwucYS716dxNjyJHODgr2PxYRFRYfFRVWw17nq3iING8e/RNbutMDg3yv275AJEN17tKBO8k42rhpXfJo7TgdOXpQRnIg2mVsnc6bP4emTUuUjoSOhY6GTiedkTvn6DEjaNSo4TRy1DAaMXKoYPiIITR8+BAm9MGCocMGWTFk6EArBg8BBtyEQYP7KxQKRYYBVufatSvF6rXH3HmzUuxvr6MseuuGHgNu6DiLzgNED46w6MQRI4exjhwu14bOBKGDxEHeIG0QduKUiTRr1nQh6TVrVtLWbZto/4E9VnLG3/BEog0IAdqSMpLHQkL9f4uMDk2Ijo4uY88DKndYwsMDSoeHh3Rg8v3b9kUhKxAvEO6YY8cOi4W7/8BesXqXLlssHQDW7ISJsFwtRIsOYxLsMCZWk0jRCQcNvkGaAwf1s2LAwL6C/gP6UM9e3alL147Urn0btrQTKD6+GcU1i6Ho6AiKiAilsLBgCg4JpMCgAPIP8BP4+fuQj6+3QqFQuB1BrGu6dOlIPXp0TYH4+ObW/XwZ/gG+opMCAv3Y6sSsjiBi3UqRUeEUExtFzZvHUcuWLahN21YStuveowv16dvLqgMHDLyhFwFbYjfJ2yRsELWFpC0EDYMH5Dxl6mTxOCKnZufObVbdvWv3Dsm7ad+hzU2zSthC/i8oyG95XFxkfXtuUMlgiWkRUSskLDDRP8DbavUivgAyhPv4xImj8gLhUoaVO2PGNHnJ43k0hpEZOsCIESBbi/VqWqa25IpO1rJVPIUzgfr4eNHPv/xE33zzP/rkk4/p7Xfeplqv1aJq1arR888/TxUqVBCUL1+eypUrR2XLlqUyZcrQ008/TaVKlaKnnnqKSpYsSSVKlKDixYtTsWLFrChatKjCg2D7bhQ3YP+cFPcO7N81dBT0FQDdBR1WunRpeuaZZ0S3Qc8B0HnPPvssValShV555RWqU6c2ffDB+/TFF59TvXp1qXHjhmx0+LM1G00dOraTxC3o1hskfYOgQc4wgmAMwfUNb2Ri4iSaP38urd+whvbv3yNWMhLGpjJZJ7RsZiVjGGDBIX6/x8REhDZs2PAJe75QcaPExUW/FRIakOTt0/g/8wW0iI+lWbOnSQIAEqi2bd9CS5IW8ahqkli6GGnBjYyXbEu4pgULyxWjPpDsZ//3Gb3++mv0wgsvSCdDh0MHRMcsVKgQ5c+fn/LkyUM5cuSgJ598kp544gl67LHH6JFHHqGHHnqIHnjgAeJmKjIhHn74YcqSJYsiFTz66KP04IMPpnhuivsT6Av4zaBfPP7445Q1a1bKnj075cqVi/LmzUsFCxakIkWKCJHDIIE+rVixIlWv/hK9+9679O1337BV25SaNYuhnj273UTOIGYYSPBKwlqGKxvJssjhWbt2lSSCwUKGZ3PgoL4ScjTJODDI70JkZGiCj49PdkPFfdKiRUyt4JCARSb54mF37tJesvcQ3EcMYdWq5ZI0hREUrF2MqvAi8UJN0u3eoytFRoZR/fo/0Ntvv8Vk+7wQLUZ7IFkQLDoSiFUVzv0DDKAwsIIiAeHg/StuAM8kW7ZsAh1oKtID9BsYK/iN5cyZUwwaGDewsGFRw5L+/PP/I28fJM62pH79ewspw2iyWMpDadToERI+nDx5As1fMJe2bN0khtdBJmUYXKFhgVbrODDI90J4ZHBcQEDA44ZK+iWiWUS5sPDgST6+Tazk2717Z0mwOsHku2PnNlq4aL4kU40dO0qIFwkDeHEg3X79+1B8QnOxct988w0ZicGyBeGiI0C5qFJRYCRvDr4A/K+4AfO5wMrRwanC3cAgGOScL18+IWYYRi+++CJ9/sX/iTsbocH+A2ApW6xkeDVHMyEjQxuGF6ZQYYoUkm2nTpssc5RvWMa+Z6OjwxoZKmkTHx+fLOHhIZ0CAn0umyObTp3bWckXLue582bTRLZ64a7AS0ECFUZOcDEntGxB39erSy+/XF3iGIULFxYlC/eJ4aATKO5vILQAJWASMMIMihswiRjeAv0NKTIaMIzQ3+DWhjsbcef333+P/P19qUfPrmJgwbsJCxmGF6xjJHWtXLmcDh0+wGR8iCYnTpCSmyYZBwX7bY9LiKtpqNxeYmMjPwwI9D1lZjvHx8fxw10qbuftO7bS3LmzxeWMAD7czabVi9FSk6aN6bXXagnxIiYBBaKWruJ2AMlgkKYEnDrwbHLnzi1Wi/3zUygyEhj4wQuDxFYkwiLxq1nzWDG4YHgNGTpIMq6R0JU4ZZIURoJljDnJqGpoVu7y8W16PTwyZHhAwC+5DZWUwtZvvojI0LFm3BdlIqfPmCI+/z17d0kMwGL5WsjXjPO2bdeKvvnma3k5cGVAmSrxKtICEAvCE7CIlYhTwhykaExYcbeBRDC4rWFo1a79ukyp6t2nZzIZD7SSMSxjFAlBSU7MkunUuf2NeHGg7x9RsVGfGio3pHnz2DoBgT6/mQ8JlVOQio7RDMqoWeqTjpTCGEhrB/m2bNWCPvvsUwnqI8aL+K7h4KUpFM5As6NTB1yDmh2t8CRgMIiBM3J8Xn75ZWrq1YR5o/tNZAw39cyZ0yR8iUIgKABiJm+xsXc9MjJkpCZuGSi4EdzTx7fJNTwYPKAlSQvkgSH9fOq0RJliZIn5Wsi3TZuWQr5IeS9QoIDGqBRuA37YitRh/7wUirsN9Et4aBA7rl69utR06NPXYhkjZoyaEAhfLlo0nw4e2ifTm3r36WGNFQcE+h5s0SKmqnE/iq+vb3Em4AVm7Berb8D6hR8fI5YJE8ZK+TOMavBAUY3q22+/kQxnJV+FQqFQmDDJGJZxzZo1KSw8RGLGCFuiAiKqIsJFvXHTejHy5i+YgznFwj0BgT7/hoQHNTDuJ0lIiHvRP8D7dLJbQGqJosoV5n2J9csPzIz7osqKl3cTqlKlslR3gVvMcPASFAqFQnF/A2QMNzVixqjehTKb8KAOGTJQjDoYd6hZjeJOKI1pVt6Cezo8IniIcT9IRHToJ4GBPpdw46jxjDqhx44fkfKSKC2J6lbIdrPEfePpjTfqSPlHTCExHDx0hUKhUChsgWRLeEwrVapEDX79RVzUMOoQ2kSIc/qMqbRz13Y6euywVN0y3dNRUWFz7ulqW8HB/oF+/l5XZOpRQjNZh/fgwX0y5xdFvFEVxbR+GzT4WeaHIRNOE0IUCoVCkVYgsx8VEWvXqU2tWidYrGI28pDoi0V81q1fI+7padMTxSubPKd4g3+4f0njXpPQ0MCOMPkl/tulg2Q+YylBjEiQUg73M2K/HTq0pbffeUt8+8jKNBw8WIVCoVAonAFc1DDmnnvuOSbZxhIrRqIv3NNYD37psiWyxG3S0kXkH+AtVrF/gM/R0NDQ8sa9IqGhQX29vBsJAWMkAvfz5i0bZQFo1HlGFhu+x5J/VatWlUIbav0qFAqFwl3AnHcsJoHZNVhHAF5XLBKBODHqUBxhwxCWcUhoQDIRe52OiYl53sjswgTc0yTg4WztHj9xlNatWy31npE+juxnjEx++eUnmXaEogCGgweoUCgUCoUrQKwYRZ1q1apJbdu1Fu8rsqfhjZ09Z6bMztm8ZYO1/rSfv9fpyMjIZ43MKsHBAe28vC0u6FGjh0kG9OrVK6Ty1ciRw8QlgDlbWD0Dq2mgMIDh4MHdCTzAeITxBCMHI6cizcjOeMhI+WwVinsJjxuqI9ILPDfoWOha6Fz7Z3snYLqnq1atQtExkclzigfLNCYU98Bc4m3bN1uJ2N/f+1hISEgZI7NJaGhAY2+fxlKEY9jwQULAqOmJidOoZgJXQLfunendd9+RidZ3et4vyKI4oxbjC0ZDhpfCZfzC4N6a4nkrFJkdIN8PGE2NlP1ekXZA50L3QgdDF9/pATymMiF7OjDQX8KhCIsiPDpj5lQ6cGAvbdm6UWbwgMOCgn23enl55TEyizRrFv2OmQWNTGcQ8Jo1K8UChg8eBNy5S0eqXbu2zP29U/HfRxnlGZ8zAhmRigxBEONpI+XzVygyK2C5fWmk7OsK9wF6A7oZOhq62v4dZARQLx5hUC+vJsmZ0wOTiXiaVNjauHEdinlI1jRbxouIYMB7uKAEWECgt8wD7tSpHR07dpjWb1gjc4DhggYBo5h2rVq1pObznSiHV5jxvmF5yfYvXpExaGBYLAf7d+FuoP9gEPfAA3dmIKe4P1GFEWGk7OeKjAF0NXR2YSPlu3A3MI0Jaxg3bGRJHIZFjIJRs2bPkFk8y1ckkY9vEyHiyMjQ8YYnS1BQw7z+AT6HQcDNmkfToUP7aevWTZKEhXRwLL4ACxjLDSIDOiMJ+EFGWcYPhv547gbwzCsYKd+LOwDSffTRLPzjyUpPZH2Ssj6ZjUe02enJbFiO8Ik7HtpQ3Nt4mPGTkbKPKzIe0CPQ4eUMi063fzfuAqbDgoixHK6FiAdLsta8+XPEkJw9Z4a4pZFkHBISEG54qkRGhc7EaCE4JIB27NxKe/bulHqdyIJGEhbSwuvUqU2FCxfOMALGi4I741cj5QtV3Fm8Z6R8P67hAXrkkUeFaB9/4mYCzpYtB2XLnpOy58hJOXLmkm0Z1ccU9xfyMfyNlP1bcWcBnQ7dnlFkDIu4XLly5Ofvy0SMrOnBNH78GFqStEhm9aDalmXqkveVFq1a1DI8TYJDA1twA//jkQItW75ErGAU4hg9eoQ1C/r999+TGHBGKccSho5YPQlfGSnfUXqBPvNolmTr1yTgrNluIuHs2S0EnDNXbsqVOw//n+OO5Rso7l0UY4QYKfu34u4AOr6kkfI9uQMoj4xKjRERYWIRCxFPGGstr9yufSuzmMeZkJCmBQ1PkRYtYl7x8/eWRCys4YjqIzDjEeBGoLtf/9701f++lPJhmKdlOLh5V/Ak4xNGuJHyhSnuHr4xUr6r9MJiAYOAnxQCzpEzNxUo8hTlK1SC8hYoLp+FipWmPPkKCQHnzp2XcufJx9ZxDoIFbX8+hcJZlGCEGin7t+LuAbr+U8Oi++3fl6vIkSMHVa78AiW0bCHTl1BOGTlNWJd4795dkjENj29EVOg0wxPkq6++ejQg0OcACLhtu5YyWlixcpmQsVTCGtCXGjX6VVa1eOSRR1LcsCvAPLNnGX5GypekuPv43kj5ztKDBx98yIaAs1GOXHkpb5HSlKvgU5S7UCnKX6ws5ea/c+YrRvmKPE35CxZlAs5LefLmp7yMLFr+VOECnmKEGSn7t+LuA7q/kuH+Ocd58+alGjVqyBK6SCYeOWoYTZ02WeYQI1ELJIz4cFhEcCPjbktYWPAANCgwyFdWpdi+Y6uMGoYPHyLmfExslKwBDH+74eBm0wtk3n5maNKVJwMJFfbvLT2AG9p0P2fPkZvylyhPhcq/QiUqv0P5S1Wh3EUrUN7iz1KRcjWoQKnKVKB4eSbiIpQ3XwHKl7+gWMb251QonAWm26mXzXMBDgAXuHM2BsJfRYoUkeUQMc0WIVUs+gAP7/ETR6T2BQzPwCCfSyEhvnevkEdCQlxNP3+vq2jMrNnTZY3GadOnSCb0wEGYC9yBXnrpJZkUbTi40fSiIIOHHylehsKzgGlKro5Q8WNAEpYZ/y1QtDQVrvgaPfPmj1S2Zj16qsL79GTB8pStUEXK90xNKlHlI8pXsjIVeaqikHD+AgWFiDVjWpFeYJaFfd9WeB7ACeAG+/eXXiB0imV0f/65vpRWhmcXHt41a1fSkaMHKTYuUog4PCJkjnG3JCjYbysa0aFjW8keS0paJHHgwUMsceCPPvrQ7ZnQFQ2d75tZgIo4KHJg/w7TAriiQcAyBYlRgK3gktU/pWc/DqL/q9uHPv2kExUuVZuyFqxIucvUouLVvqQiFd6ggsXKUj4m4QIFCzEKU5Ys6pJWpA/PGSn7tsIzAW4AR9i/w/QCpZThyY1rFmOND0+ePIH27tstyVpIRIZbOio26mvjTktERHAgsqF9/ZqKCxpBa5SkRDYZ3NBe3k1lxQp3JWLBoqphaGwmM6GJ4bqL6KGHHrZmP2MecKGnn6Oyb9an8kzCtT5pTrXqhFCuIlUoawEm4dI1qVi1r9ka/pQKlXyWLeACVLBQYUYRmdZkf26FwhlUM1L2bYXnAqGDGobrXjgTuXLlkviwufISptzOnTtL3NLgOotb2vdM/fr1HzPulKCGZkCgzz+4+NhxI+noscNS5gvBa4wW2ndoQ5UrV5Z0b8PBTaUVmBf2jqHx38wGH0YuI+X7TAswiLPOAc6egwo+VZFKvfollfvQjwq++DllK2Yh4DJ16tKb/l2p4gfeVLTSu1QIceECBakQE3ChwkXdnpOguH9Qx0jZtxWeDXDF24Z75hTDk1u8eHH67rtvxC2NGT/jxo+hDRvX0v4Deyk4xN/ilg4PbmfcKQkLC+4nJbyiQqWs16rVK6S6iDkd6cMPP3BbRSw8RBRNVwLOfEB97kJGyneaFmCeL6YZZc+Ri3IwCpUoS4Ur1qJy7/xKRV/6nHKUeJGyFapElT/3o4+iB9GLXwZTgdLVqdjTz4oVDAIGHn300RTnViicwcdGyr6t8HyAM8Ad7iBi6I8KFSqIWxrWL9ZAQCGqQ4eRB5VoWsOXg4ODnzIyWiIigsqhYgguOnfeLDpwcB9NTpwo1UTQuOCQICn/5Q43NNwJ7xpKwJkVCB2UMlK+17QAAznEhKUIR87clK8gk2rpF6joc3WoZLWPKR8Tbu7iL1B+/nym5udUGBnSJStSsZJlxAouXKSYxIXdMSBU3J/AVDv7vq3IHAB3oHKfO1zTefLkodp1XqfefXpKtjTyn5YtT5KylnHNooSIQ8ODhhkZLXyRUbhYfHyc+MRR0mvMGCRjDaCevbrRK6+8LJOdDQc3kVbADaQEnLlR1Uj5XtMKjELNKlgowlGgSAkq+NSzlKdYecpfvAL//RzlK1aOciXPGS72VFmJA4OAixQtTtmyZU9xToXCGTzGaGyk7NeKzANwCLjE/t2mFfDKIVu6afKKSzA8MR133/7dtHjJAiFhP3/vq5GRkc8aGSVhMWGVzClJSUsX0d59u27MCR7Qlxr8+otUxXKH1fGioXPz7gW4o340+hOSsqQAR558lCdvPipYuAQVe7oi5S9SkvEU5S9ckoo/nWwBF75BwAUKFNLSlYp0416qGx3FvyPA/vvbwjwuPcd6CMAl4BT795tWYOnDF198kbp17yxJWpg7vGjxApkd1LJVc4s1HBY01sgoCQ0NHIGL4GK46KJF86URaEyXLh0lGcsdCTBwYbq7Vis6UQxbVDGPPJKmjhjFCjz64Yfl036buT0t57vf8LPhnpjMgw89JO5oqYKVr0ByIQ4TBSk/k60ZAy5S1ELA+PsRjQUrXABW78ns3jjoqBY5clB7NpDalyxJcayjb6WzsC3uiSeoZb581LZ4cepQqhR1YAsQn/gf3zfLmjVVnWgPPD+QoKtw9T2g9Kg7wmPFihWjH3+sJ0lamA0EQxSLFS1dtthqDUdEBFUw3C0hISFPm/WhlyQt5IvCCrZMSUJj6v3wvVsWZ0A2LbJq7R9geoEOhQ7TsXRp6l+7NvV99VVqV6IExT722C07IhCbJQt1euYZ6l6lihwDMo5mMkAnbMP3ig6N7ejgznbI+w0oK5fHSPme0wPkGcAtbZKuOQcYrmdb67doseLyPepN259DoUgLkGFr36czG5pny0ZTvLzo5ObNdHT1aur/+utikNjvJ+TLBA29Nq5ePVo7YACd3LSJzh44QGcPHpRPnGPdoEE0/scfqT2T8q0IHcQZxNt8WTf68G/XFfgycC6c0/46aYGv4fqMDSx7+PwLz0sxKos1PIKt4flimCa0bCZEHBIWNNhwt4SHh3TCyZu3iJFYMHzgphXcqXN7ev7556VxhoNGOwus2+nWJAh+ac2ZINGhDi1dSmd27aLfdu6k3TNn0pD33rN2ICFXhq27Bf93f+EF2jt3Lp3evp0WJSRQfK5clJA3Ly3v0oX2L1wo5zq2di0N+eADIfUU11fI6PV5I+W7Ti/MClrikk6eAwyL1yRg/I8YsKuDQYXiUSNzLokKgwCWLIwPGA0JefLQ8q5d6d+//qK/T52ikV98IbrP/hjsN+Kzz2hHYiKdP3aMLv/9N125eFE+L507d9P/548fp13TptHIL78UnWhvhIAsffi7X598kvwKFaJgtqBdAc6Bc3nzOV0lYnAMuMb+fTsL6BYYnN9//91N1jDCsyBj8GRAoM+VoKCGeQ13SVxc3KPBwX6XcHKUp9x/YA9NsokF//jjD26xgl8zXHc52AKu5741a9Lx9eul820cPpy2TphAf508KeTaka3YZvxiu1euLDA7Joi5VcGCtKxTJ7p49qx03pU9e0pni8+dm+bFxNDmUaPonzNn6K8TJ6Qj2ndqxQ18Y7gnO9EeKEX5GD93LG2IYhzuXiBEcX8DCze4OyyW0Yhi0oWXbmzdujT+hx+oY5kyosugv0wSHvXVVzfrK9Z3MDCmenvTbzt20JV//qF/z58X63fP7Nm0uk8fWtSyJa3q3VsMGHx/ibdjv9/YsJkeECB60dYihtUK0uzA+ncUG0Hjf/mFxjdokD7wsaP4XjqzBd8we3Y5tys8gWPBNfbvOy2AwfkCG2nmAg8wSJOSFssCRlHR4bLAQ3R0eJzhLmnePDpITOzQADpy9BCtWLE0uTzlAAlQV6nieiy4iOH+Dt8sWzaa6uUlo7aDS5ZQ12efpW5ssR9ds4b+PHSIRnz+OfWoWlWs5INJSdSJO6w5isRo8czu3TICBEwSRidHh8V5jm/cKCNGJeFbwx3zhRWKOw0sj2rflz0d0HmJjRvT73v2iPt4QbNmEoq7FQnD6wc9eIL12ZVLl+S4ld2704A33qDO5cpRp7JlJewmnwyE9eAN/GP/ftkfLureL78sRg/OB0sV7uOAIkVo7M8/0+EVK+j80aP0F+vh9ADHHlu9miY0bEghpUqRD7fXVWsY8WFwjv07dxamNYy60jBEkSmNcpYHD+2nxCkTLC7p0IC/DHdJUJDfTpwUE5RBwlOmTJIamkjTbty4IZUoUcIlKxiuASzUbP+gXAWs3Mn84kCUsHyRXIDkhD1z5sh3U5o2FTLdMGwYbRg61Br3RcfbOW2aWNC7pk8Xy9kkYfPcbYoVEzJXEnYOHxop37tC4akowAgwUvZjTwP0FYwCWKLQQS3473mxsXTxzz/FbQwrthPrs1uRMCzYdiVLipfw0LJlNI6taJAtwnGTfv1VCHf94MHi0oY+7VGlimwf8803YrxsnzxZkrZMlzQI0gvJrHzd6cHB4i28fvkyXb9yJd34m3Xw7Ohoasb62itLFopMY4KtI4BzXHFLP8HGGjKlMTUXBunYsaNo9ZqVTMT7COWcmTP/i42Nqmu4KjEx4dW8fRpfg3m9Y+dW2rhxnawkgepYWOLp1VdrSNq24aCRzqK64V43tAl00F4vvSSjwj8PH6YZgYEySkRs+O/Tp2mar6903pb58wswkgPRzo+Lk9HdrNBQWtmjhxCtkrBrUGtYkVmA0ElmqJKFeC+s3IXx8bS0Qwca+uGH1LpQIdFfJgmv6dfvtiQMIFGrc/ny1LNaNXFhT2nShI6sXCl6EsddvnDBcjz/f2TVKprm4yPWMSzoLhUrShKreS4hYdalMfz9zPBwusDXtCfVtOLCb7/RPLbqW/AAwC97dmrPbXSUXJYWgHPAPfbv31nA8MSUXH9/HzZI+4mRilUEkTPVp29PSxWtQN9phqsSERUSj5O1a9eKTpw8SrPnzKCRI4eJFRweEUaluRO4YgVnMzJwHl5ybBejuHNHjtAfBw7QGSZkxDIunDlDU7kjwX1j7h/DHWngW2/RiU2baN/8+TTs449pde/eMgqDpYzRHzo+9lUSTju+MtwzXUmhyEiUZAQbKfvv3QYsP5AdwmUwMJB4Nb5ePXEfg6Q2DBkieS7pIWHoSui2Fjlz0sQGDcRwuXrpkuTEnDt6VMJ3+Pznjz/k+z/27aOpTZuK5S060cYqzWgSDmRjaMDbb0vWt/0zSivAPeAg+z7gLFCY6o036ohBataU3rZ9M61avdwsZXmlfpyLCzuEhAacw8mmT0+k/fv3yEpJWFcRNaI/++xTypcvX4qGpQUZPQUAnbUDDxSQdLCkbVta2KIF/b53r7iYJ/z0k3Rkc19YxUnt2skLR+dDzOMid7rrV69K511lYw0rCacdKGPpzkxphcLdQIWs+kbKvusJgK4a/N57NO7776lrpUqirxLZYoVBAWKEWxiEmy4STgZmeQz94AM6tn69hOPmRkVR3xo1qEuFCtT7lVdodliYzAhB/BiZ1I7OcydIeBC3ETNf3FFABIsD2fcDZ4FCQOXLl6eWrVrI4kUjRw2nxUsW0vHjRygsPEiIuEWLmEAjvRIVFVbTy7vRNW+fxrJaBPzd1uIcXTvJtCRXMlIxXyuj1wY2J6ojZoHELMxvQ6IWRo8D33xT4sZtihQRgGCn+/nR9sREiRvvX7BAMgGv/vuvjPxA4Ii/4LxKwukD5umhCpF9X1Ao7jbghs5ooyC9gB6D+/fYunVikWKmB3JcEtkatZIw6y1XSRjWNqxbkD1qKuAa3Z57jgbUqSP5M/gfZAyits+INpHRJBzA1+1ds6Z4BOyvnR6Ag1yZO1yoUCH64YfvxTAdNnyIrKVw9NghMVZBwv6B3nON9Ep0bHiUuKLbW1zRM2dNF7835kb5+nm7nJCFxRnsH4i7AZJFuj4mnmNakcSDuVPAvdyWiRQjPLie982bJ64ckCxc2K0LF5YYCbIEYTWvGzxYOqCZfKAknH7UZzxhpOwPCsXdRGXDc9crh94BGSK35RqT0sGlSyWB1N0kLNdKdnuDZOFBhNUL4j+xeTPNCAiQ+cS3KnZkknA069YZbDm7i4Tn8n21qFyZvLntcSiQlBwadAfARfb9wVlgyd7q1atLHBgJWsiZ2rJ1ExutK4SEg4L9rhjplaAgvyM4yaRJ4+gAW8ITbVzRH374IeXml2Q4aJQzgB8eyTr2D8PdkGox3FGRTIA5bSe3bJEOicw/dKQubB0jIxDTlMwpSuaxsKBncSdCgsLC5s2tVjCABAhMase2Ie+/r8U60gjMHYbrz75fKBR3AyhP6YlxYBOOSBg5KpMbNbKS8LZJk+Q71DG4KTuav1vBxoSVhJ00GqD/5kRGSnbzf9euybGY8oS4sf2+tpBCHQ8/TKGlSlGir6/ElxHWcwXwRCLTGhnX3kzw4akMANILcFF6Y8MwRMuWfYaaNY8Vl/So0SMoKWmRrK4UGOQrWdJxcZENjLRKQEDA4/4B3rJYw/YdW2QB4zFjR9HgwZgb3IWe4w7hiiu6ppHyQWQExB3N5CmZfFWqiDULt3N0coo7MuzaFi0qE9zts+1wLIgXFnM8j/5sR16INYOIsU3qqLq5U9wP+NZQi1hx91HR8GwCBkx3NAb9yFXBtEpMqURcFpYqiG55587y3aQGDegUGxsovDEvOlq+Qyz3NP+POO+gt9++KZs5NeCa0Jdr+vaVhFaUq0Tm9O0sUGQdB7A+bMRk3fejj2g+GzArevSglb16pQs4dkFCAvX/9FNqwnrYn9uVEbNpwEn2fcNZwCX9Y/0fxEuMOcNYaxhZ0r16dzfLWLY00ipxcTHeYHAEl0+cOEoLF86ToDOyokPDgqkUj3LS64rG3KymRsqHkJFAh7LP4lPcfWCBh7xGyj6iUGQ0kKn/qmEp3GDfLz0R8LZ1q1SJelWrJvN6MaWyefbsEqvt+eKLkteC72A4wODoWbUqtSxQQL7DFEzsg8qA8A46azRAZ6K2AlzYIGQp7+tgP3uE8fmb8HV9CxakNq+8Ql3ffJO6vvVW+sDHtq1Rg/wKF6ZGbCiFOtn2tMLLSP+84Wz8TF9//XXq2683DRk6iCZMGEt79uyk6TOmWEg4xP93I60SGhrYCgf36dNDGD1xyiQJOoPpv/n2a8rPL9Vw0BhnUMawuCzsH4Li/gSKIiBrOiNKWyoUjpDDsEyZywiLKsPwgGUa0U2rutl+Z5ITvnvYrh6+o++chFlF8HYWsD1Alt58TCMePDR8/HGXgHPgXBlFwAA46RkjZV9xBlhcpmLFitSxUztrGct169fQzl3bkldW8rrWtGnTJ420SHBIwEmZmsRMjmWaxk8YKwwPpne1QEdmLAenyFhAGSJOnN9I2V8UCncBls5LRuaohnUvAMSGZDd4G1wBznEnDDdwk32fcQbwCpcsWZICAv3EWzxy1DBasHCeeJGTpyr9F9s8uomRFgkK9pd48OYtG6zxYHPFJDA+mN9w0JjbIYuRgcU5FJke+LHhh4CygfZ9R6FIL7AiErKfWQum6HMKhQkMzsBR9v3HGcA7/O23X98UF8asou49Oos1HBMTEW04K5GRYe839Wp4HfUvjx0/TElLF9GoUcNp4MB+FBIa5FI8GOb+nRjRKDI3YBnXY1Qx0p+1qLi/8RCjuGEpxqADf4UzcMUljbjwa6/VkupZQ5PjwqivMX78aNMlvcpwVhJaxUWiVnSbtgnM5MdoxoypsmADGP6HH+pJJpjhoBHO4E0j5Y0rFLcCCLkR4yPD4kp82rAkc+kUJwUAssVADaviVGLUNiyZ9xldCEhxb+ItI2UfcwaYLfQsVurr3llmEY0dN4q2bNlIK1YuExIOCw+6bDgrgYG+CTgIc55Q+QMLFg8dNljmB7/33ruUK1euFA1wFj8YKW9aoUgvEC9CFa7GhmVVFPQvLNoNJYwYs+LeQV3D8m5/ZPxqWLJZ4T7MVMlVCo8HdIg9bzkDeIfLlClDsXHR1vnCK1ctl3LP4FMf3ybXfHx8shjOSECg734cNGXqJNqzd5cUpR4yxLJqUtWqVSm9awcjKQIWjf1NKxQKhULhCcCA/hEjJX/dDiDhYsWKUVOvxpKcheqSCxbOleSs4BB/Sc6Kjo5gW8EJYbP5Ckh4zZqVtGnzBlknEUlZHTq2laQsFK02HDTidshq3Pn5wQqFQqFQOAtwFLjKnr+cAZKz/ve/ryR0iym9U6cl0smTx6h9h9aEEG/LlvFRhjPi6+d1DSS8b99uWZJpNJvVMK+joiNcWrowu2FxIdnftEKhUCgUngBwFLjKnr+cAZY2fOuttyR0ixLPKPV89Ogh5s++4pIODvWPMW4nYWFB7yIz2s/fi46zGb1o8QKZ8wTz2surCRUvXjzdJIwJ8krCCoVCofBUgKPAVfb85QwQqkXI1lxfePyEMbSXjdkJE8cKCfv6Nl1p3E5atmwegp2bNY+WzOhZs6ZbM6Pr1v2OChYsmOLCzkJJWKFQKBSeDFdI+OGHH5YM6S5dOsqKSmPHjaZt2zazMTtfSDg0LPAf43YSHx8bA981JhhjovHkxAk0bLglM/rjjz+iPHnypLiwkziX01ASVigUCoXnAhwFrgJnOeCxWwJe4nLlylGL+GYSwh09ZoSUr9yydaOlhnRowDXjdhIY7BuDncHihw8fkHKVg4cMpD59e9Frr71G2bNnT3FhJ7FVSVihUCgUngwbEt7mgMduCZAwilkFhwSK93jEyGG0fHkSHTy4zzpNybidePs0WYCd4ctGYhYWKB40eIAsWFy5cuV0T09iLFASVigUCoUnw4aEFzjgsVvCnKbUqHFD6tcf5SuH0sJF8yW/ChUoMU0pICTgdeNWEhTs/wdIeM7cmbR9x1aZngSzumu3TjI9yYU1hCcoCSsUCoXCk2FDwhMc8Nhtgbyput9/JyFchHJnz54h+VVR0WFiDTdvHu1n3ErCwixzhDE1aeOm9eLTRs3o1m0SqHz58unOjGYMVBJWKBQKhSfDhoQHOuCx2yJv3rz0f59/ZqkhPWyQFL0CCbdr18oyV7h181vPFUbgGCS8ddsmWrtutZTewvSkmNgoeuaZZ1wh4e5KwgqFQqHwZNiQcE8HPHZboKzzu+++I3lUWP4XZZ9RNatnr64WSzg+9tZzhbH4MHZEvcsVK5bKHOH+A/pSUFCAS6snMToqCSsUCoXCk2FDwl0c8NhtgdWUatasKSSMpGYkNx8+cpAGDe5nyZAOCYg1UhN/f/9CvNN1mMxYwnBJ0kKpf4ksLy9v1wp1GErCCoVCofBw2JBwRwc8dls88cQT9GK1FyWZGbOMsPYCljQcNXq4kLCXV6O+RmoSHh7yBbK3AoN8xXyev2CuZHchwNzg15+pSJEiKS6YBigJKzwaUTaw33YrpPc4hULheXCVhB999FGqVKkS9e7TQ9ZcQMGO3Xt2UOKUiZaqWX7eW43UJDo60gskHBEZIoU6Zs+ZySQ8REj4+3p1XaqWZSgJKzwMIM1o4IEHKObBByk2GfgbwPfYfrvj7CHHJR+rxKxQZC64SsJm1SzMKAIJjxk7SmYazZo9XUg4KMjvjJGaJCTEhWKnFvGxks01fcZUa7Wsr776UlaIMBxc1EkoCSs8BiBIEG6zhx6ieP7RtOLRa5ssWQSt+e+WjBb8PbYLsRo3rN0YJtg4/g7bWz7yiBwL4Bj8n8AwjxVS5/3vdTKWgcl9cJ+Kex+ukjBWGcR03nbtWydXzRopFbMWL1lglq68aKQmLVvHRyEejINBwolTJtHQYYMl1frTTz+R1GvDwUWdhJKw4q7DJFEQJIiz4xNPUK/cuWlgoUI0rEQJGlGqFA0rWVL+x/edeDv2EzKG5Zt8bOvHHqMe+fJRf95vUJEiNJiBzwH8f18erPbMlYs6Z80qpA5CBhk7sqozO2wHJXgu+LwfBh2KexeukjDypjCdN6FlCwsJjx5BGzauo9VrVggJh4UHXTVSk/iWlrrR3bpb6kYjtRrznEDC77//nqReGw4u6iSUhBV3FSCGWP6BwPLt8Pjj1I9JdOLzz9OS//2PNoWG0t6uXenw8OG0t2dP2hwRQUu//ZYmValC/QoUkP1N6xak3KdgQVrapAltjIqirTExtC02Vj5xnjUNG9Kizz+nKS+/TEOfeoq65cghx4CgYC3at8u+jZmFwDCowD3B8m/Pg5VO2bJRex54xPP/GHRklvtQKGzhDhLGdN64ZjE0YGA/mea7dt0q2rJlg2kJXzdSk5i4iFjshKwuZEdjLUQsxwQSfuutN2WtRMPBRZ3EHSHhKIzIn3yS4nnAgE/8b7+P4v4ELDQQMCzUkWzxLqtbl07OmUMXjx2jy3/8QVf/+ouuXbggn5fPnqWLx4/Tb0lJtOLXX2lEmTLUiY8T65kJeXTFivT7xo1y3BXe1wT+//e33+jiiRN0bts22tOrF8185x3qlSfPTUTsCKnGlk042H4rojNdxI6Oc2SV2+5ve4z8n3yMOUgwBzRwv3fPmZPGV69O0z/4gCbUrk1d+H+TiDUurshscAcJly5dmiIjw6TGxshRw2nVqhW0c9c2y5rCIf6pk3BYRJCQMBYgPnLkIE2YMFZI2LJ4Qy2Z/2Q4uKiTyHASjmYF265ECUr8+WdKio+Xz7ZFi1IUWy/2+yruL4AMYMXCogUBb23Rgv7eu5eu//sv0X//Cf67elX+/+/KFet31y9fpguHDtGOTp1oBI9uu/DArgdjcuXK9PfBg5b9IDj+2jWB+R3+vnLuHJ1iIp/2xhvUNXt2sRqbcztgVWNAgM/myZ/YZsaXZb9kyxvA37bbQX74LjbZTW5LdFYXcfJxZtwasW584rqme906AMD+TJq21zFj5NIetNOMcScD5+nCFvD4SpXo2KxZdOHIETq1ahWNrlBBvjfd+CBrJWJFZoE7SNhcxMFCwsNo+YqlshYD+DUg0Cd1EvYL8BESHjpsIB06tF8WcTBXUKpR4xXKypaA4eCiTiJDSRgE3JmV5Jpu3ejs1q10gRXkmU2baH5EBMXzyNx+f8X9BZAGSKFf3rziZgYBC2GCLJl8/z15ks6uWUOnZs6ksytXinUMAhZyvX6dLhw+TCsaNaJBhQpR/xw5aHrVqkLOJuFev3SJLmzZQn9v304Xjx6la2xNEx+H7VfOn6e9gwbRkJIlqRMPAjqByLkdvRE75s9u+J8Juh//P7h4cRrCA8l+BQuKhdmByazDY49RV96nD+87iAeV2D6wSBHqkTs3teNtIE4hVONGwhkIEtvgCu9foAAN4fMO5esjbo3zIBYOcpY4bvKgoC0TLq6DdgwpVoyGP/UUDWdlgmP78jk68zYQuTmAQLuGcjtX/fADXWLLH/f6Dz+TBa+/TqP4eLjxO/F9iVWsRKzIJHAHCZfk35qfv691JaWlyxbTocP7zZWUUifhJk0atsROKNBx4OBemWSMycZwT1ev/pJMQjYcXNRJZBgJWwm4e3f6i5XrlTNn6Orvv4ti3ZOYSK1Zcdofo7h/YFrBIJ7xFSvSce4T1y5etBLw+c2baZ2XF01jYh1fvjxNZSt3zY8/0tkVKyxEDJLlz9MLFlAi7zOUSWz2iy9aSRgkfXHfPlrz8cc0/6WXaMUnn9BxJt1rTL6mRXx2wwaa8Nxz1DdXLhrNn8uaNqU1QUG0lAkssVw5mv3qq7S6cWPa1bEj7eF+vCE0lObz+cY+/TSN5P47la+34qefaEebNrSvTx/aGh9Pi775hoaVKUMdeXBsJn+ZMVqQKRLMZr/zDq3z86NdHTrQvt69aRsft/znn2n8Cy9Qb74PEDWyukH2A5lsp9SoQau5bTtataL9ffvSQb4PtGmtv79sG1C4sLjlkbA2kEl2Xu3adHL8eLr2zz9yr1f/+IMO8f7bePC7Gse89x515IEAnj8sbvt3o1B4GtxBwihs5ePjlUzCQ2lJ0iI6duywkHBTr4bXAwICHjcciZd34wnYaey4UbRv/83LGFZl5fMY/2ANBxd1EhlCwqkRMACLZOPAgdQyX74UxynuH0D5g6SQ7bzk66/pnyNHrO7mSzxQAwGPZMLqzsSFeC8+R7HFubpuXbrIFrDtvqvZGh7PP7C5TLa2JPz3zp00l4lyNPe1SWxtrnr3Xbq4f7/VUoardkatWjSStyV99x2d372b/uU++hfixuHh9EdSEv176pRYzRKTZjL7m/fZ3aIFbeB2wEK/dPy4uLev/v03XfnzT7n+Libk4WXLUvvkxDFYt12zZaPxTPTbEhLoPLfrMn4TOG/ycYhXn5g3jxZxOwawJYsYeT9u13re/8+tWyWmbV5HYuR87L98jj/WraPVAQE0nJ/VYCbghV99Rb8tWiTbrS54fhZX+dgr3P5/+Pe3rVcv6sXPEm1DbNn+3SgUngZ3kDCWM2zStJGQMApeLZLlDI/ACpblDAMDfZ43HImPT5MkkPDESeNoz96dUunDJOHnn3+esmTJkuKCaYDbSfhWBAwr+OiSJTSUR+KxPHiwP1Zx/wCuaFh7mHa0OSxMCM60bs8sXkyT2CqE5ShxVrbYJNmI/0989lk6NXkyXU+2mkFMu9q2pSlsfS5gEobr1ZaE51WrRuPy56dE/gGu5X5nJWEGCHMGW7tjeNvqX34RohPSYkv8yunT4s4G/kt2gZuEdoX78iU+D8hQtpsxbGyH+/fYMVrh7S2ubbiTO7OFOpp/E8jwxqDBjFMLmXL75Rx83mv8+cfGjTTno4+of5484nLewtbyZSZptMkkbBCsGSO/zp/nd+ygJUy+E8uXp+3t2snAwHTri+DcbBXj+Et8X9vZmlYSVmQmuIOEUV2yYcMGUmMDJLxg4VxZU9g/wNtcU/gdw5H4+jXdDBJGea1du3ckk3B/Kb+FCiCPsiIzHFzUSbiVhG9FwPj77PbtNIOVU5dy5agNP5A2hQunQGsezbfIkYOiNXHrnoUkKbHyb80ENbxECdrbpYvFcmMBUexnS3LYU08JgSE2CqsZLt32/P9I3n9P69ZCXhAQ2ZFhw2hmxYq08OWXbyJhuKPXf/IJLalendbw58mhQy1xYfASk9cpHhBO4ONGc19c16CBlYQhIL1LbDWemTGD/ly2jK6ePWuJJ8tGS8LYZd7/97lz6eyCBXSF/8Y1ISC8Q2PG0LCnn5ZkqP6IecPaP3BA9gFBXmYr/PSIEXSUSfYcn+M63zfOe5Xv5+CoUTSGBxUD+biZPHA4s2aNxMYP9+tH+5o1o2PdutE/TNYyOGDBs9vbowdN4UH5ivr16SjfJwYK5sAA93xq3Dg60L8/be/aleb88AN1yp1b3dGKTANXSRgozPzyyy8/JZPwEJo3f46QcFCwn5BwaGjQ54Yj8QvwPgASnjZ9Mu3ctZ3GjB0pk4179uomJPwIWwiGgws6CbeRMKYddWDFiSQsewI2SRiWx/GlS+ng7Nl0cNasFDgwcybtGDuW5gQFUTu2ApSI703IVBruLyDZUUxUR5h0zPglLL3tCQmS7ISkLXNuq5A2/z+Ef0hbuH8IybAgc/o096c5TECLX3nFSsKyja3lC+vX099MWJcOH6ZrIDqQIBPo30yIcOMO5vONYNxEwnw8CHY7W+jz2ZJOql2bTjDRg/BNQTv3tm9P8/mai2vUoINsgZoDA1ipv3E/H8uWae/s2WlM6dJ0cPBg6/EgxdM80Nj07ru0jo/fzVbsRZAqtwskfX7PHprKA4eBTJTDuW1z6tSheTzAWFilCiVVrUob+P/jcXF0DQMDsiSgneTfTiIPKCbw7ybpjTfo761brVnhcN8nvf02jeN2DGCrvzOfN56fpX0Gt0LhqXAHCRcqVIjq1/8heU3hwTRn7iypvRESGiAkHBER+pPhSAIDfY+BhGfMnEI7dm6jMWNGymTj7j26SBku1MQ0HFzQSbiNhJuzspnh6yvWrj0BW4mYFdvlU6duiX9PnKDfN2+mWf7+ck776ygyP0wSbgcSZovv+KRJ1qQskNtWJpiBTD5wV4N8bUl4MP+QNnp7S0xVCIitwd8XL6a5lSunIGHTYgWs7mL++8KuXbQecdRSpah7tmw0uGBBWmNDwtjnTybvmUyEw9gaRbx5C/fty8nEDyK/wAPN+UyGw/Llo9HcplVffCF9V45n8vuT+/DESpVoQM6cNJk/f2dSFhcyC5LDfh84kA6Fh9OB4GA63rw5XVy71mrZIj685NNP5bzj+NqzmHyXvfMObWQLdldgIB1ia/gPPt5MMoNVf4at9Uk8KB+eJw/N5v3Pb9hgve8LPOCYxt/15HvF9Ca495WAFZkJ7iBhrLPw44/1rCSMdRhQhTIsPEiSs6KjIxoZjiQw2O837DBn7gzatn1LMgn3lULUIOGH+AdlOLigk3AbCSPRakP//pJ4ZU++aYUkb/G5NHnr3oRJwiAElKQ8OGCAxUoli2sVWcOIh4J0xRJmwjAt52FsIW+PipIiHEJAbAWeZitwNixhG3c0ROKubHVehwWa7Cq+yiR/oHVrSqxQgXrxIM/MKF5jExPGOU8kJtLYsmWpFxPXIO6HS5kUEc+V8zLp/bFyJU1k0sN2TI+azYR9ITnejOueY0t0ErdpcK5cNIMJEAldVnc2YrRIykIxEvR5vpf/+Jpmu9GO9Q0b0lw+bqOPjySA4b7+PX1aPADY/xqs7uTzgYR/X76cJnB7BrOVO/2FF+icDQnD6p/I3+FeJQ6sBKzIZHAHCRfg33nd77+TfCpUnZw5a7pYwlHRYULCMXFR3oYjCQ4JOI8d5s2fTdu2bZbC0yDhLl07ehQJoxrWIh6h/7VvH11NxRJ2BrCi4Y5bzNYBzml/HUXmh2nZwt08mEl1R0KCWMAQuKXhngYBIisapCELM3A/78z/jy9dmg717m2N7cr+I0fSDMSEmQitJIz4KpPZSd73N94OwsN3cF+fmTNHrNzeTJ5ImrInYbiNDw0dSiMQ082alfoysS1EZvXx4xbS43Oc4nOM4TZiO4gYlubf3G+RmGWS8GQm4SF87EweHNjOX5YkrORsZVjX9sB5trLlvTsmhv5hYjcTt/AJEv6X2/EvD1SFZNEeWMLJJDyIfzPT7EmYz4FSoHieGgdWZEa4jYTrfmsl4RkzpwoJx8RGCAm3aBEXaDgSk4TnL5hDW7duspJwh47tPIqEkZTVg3/ouyZMoItHjjgkYmRHn9u5k/7YsiVVnF67Vqzg7nwunNP+Oop7A2a5yr5sZWIurtUVzAT2F/eR+W+/LRnCIA5YwPhEjHRBrVp0ft06KwGBvLe1aEGTmDAxH9g2MesfJrNVb71Fy19/nX6bNs2SUc3b4MpG3BlVuuCiHVKwIK21cUcjOewAW+eoMQ3rsU/OnDTfjoQRgx31zDOyHdW6MI9ZSDg58cq0hEGK2Hae+7aZsQwCPsWDg91hYbQlMJA2BgTchA2Yr/z553Ru1SqrCxtt/2PuXNoZEkIbP/mE9vz0E105dcqy7XYkzJbwFG5Ddx4wIMscyW7qjlZkJriDhLHi4NfffG0lYaxICBKOjYt0noS3CAmPuImEkXptOLigk3AbCQOYdtQXiSYTJ6YgYsSDf9+0iWZ4eVG/mjWpV7VqKdCzalXqUr48teIRSwwrC/vzK+4dmMU6ujAJTmeSPGdDUnBJH+rXj2azBYkqT4P5x4M5wijGcaBDB4srOtnaRRW2+R9+SKOYSOdwH7KdJwwyxzET+Rwrv/lG4rgmSf61a5csEjGMjxuF+bh2JLyfB4ImCfdOhYRH2pHwX3YkPPG556g/ajhXqEAnZ82ylOMkCwkfbdeOkri903nwMLlkSZrM18I0q+mVKtEsPm4lplOZc6dZLvMAdkf9+rSYiXYpbz8QGiq/K2lPMgmP520D+XpTmfz/NAcqfDzmYC9Kjl/3YOu/PbcXHgYlYkVmgTtIOB/3/3SRcGhY4D/YAXOaPJ2EIzGV5BZEfOnYMamW1ad6dYpjywaWrj10cYf7A7ZxYcR/t7VsaZkrnEygcLuemjKFtgUH05q6dWmbvz+dHDOGLp8+bZ0KJNN5+LvRZcuKBTjTpmylZBnv2EGJbBUO5G3jmeB2d+xoJXC4dhFrBdEnMgFuathQMqLlvI5I+J13UiVhzF+GpWlLwiiwMYEJtTcPMrAc4/bWrW/c3+XL9BdbuVvq1aPFbL0jqQxW/DK2cDdHRtK6X3+l1R9/bCFhCB9zBZXmeKCwtlYt2sbP49yCBVZSt5Iw6wPEpyfx55lFi6yVxRBDPtCqFS15802a+dZbNJ4HPVoxS5GZ4HYSHpqShFu2bB5mOJLQsKCL2AGLD3s8CQO3ImL+hGtsJSvDhDx5Uh6ruK9gVs3CAgyTeWB2auFCIUDTyoULFnFTqVrF/ec6pjElb0Nhi9/XrKGZbKH2YpIF2U1FXNaGhM9t3y4LGYAk4VJGYY4zSUnW+tNwS+9p25YWsrW8tXHjm0h4H5PwYLZQ4QYHCc97++2bSPgEkzAWj5BqXlmzCtnbk/BYtky78raeTHhT+dpY/Qntlnvjc2Da1LkVK+jskiV0ftMmqY0Nq3Vv5860lK9ntWbBw0y0//Jv52++Z8SDkWxmFgkxSXgsW9x4Dpj2ddBmShXahIQ0DIKxwMW+ceOoL98bFoAws8/t341C4UnICBKeNn2KkHDzFjHOkXBS0iLavGWD55MwcAsiRlx437RpWjtaYbWGMRWpJxKY2No8PHYsXeQ+ArK6qeqTjYDAzjLpLPv+e+pfsKCUh+zKFumE55+3rqIE4vmTSXgkE1NH7otY2ADlIFc1aiSlGyWBivfBohEb2MLcgmlPNiS8u29fGsAWOuo4d8+eXSzIf5JJ+Bpf/+iMGTSkdGlqz9uR3DXuueckodAk4bNbttAIvjaui3365s9PS374gc6wBYwqX0Ku2JcJFJYxjsGxUtGqfXvJqN4eHy/Eb1r+5v5IRkPC1vmVK2WgAhI+vWwZjShXToqDIM6e9OOPkiR50zPke77Kxx7mtvcvVUpJWJFp4DYS/vp/VhKeOm1yMgnHpo+E27VvwyRcwTNJGLAhYiRrIUMTBAxFpZawwoRJxMiUxgpFY9h6xCIKR3mgBmsShImMYdMiFAsWROXlRRPZ4sNqR62yZBGyHFq2LJ1YupT+Ymv4PJPx4blzaQDvI0sFPvKILIgwgvfZyQR7bvdu+huWKH/uGzqUVjdpQr9v2EB/8Xdnd+ygdQkJ1JMHiji2A1uz415+mU6tXi3b/+Q+vH3gQOrNJI3tmO88hK3iY2zJm9c+NHu2EJ25TGHbZCKe+vrrtLNHD6n5jFWgMCcYg44LbKUiaXEvqn99/DEN4gEDrPgtbdrQn9u2yQDgH973PP+OjjGJrqxXj1bWrUu/r19P55hs944fT/2Sq4xhaUhY8WvCw2U7zo1rwEtwigcva5jcu/O9mdOV7N+JQuFpcBcJf/nVF+4j4bbtWns2CQPcNiRr9apalVbw6H7P5Mny2Z2tBk28UphAkpa50hCIsk+BAjSMrczxbNnOZQsUFbL+YmK0Tslh6++3mTNp7muvUZ9cuSSuLKsOMSEPYjIcyUQ+omJFIeC2fD5ZPxfTnJh0cP7+TJ4jUa6SSQ77DUYlqcKFaXj58nLsUP7sxf+3esyyJCHa1Zmt4SFM4Ng+jC3cPpjHzGRnrjvcnol6YJkyNCL52v3tro1PEHLnbNlkZaTRvE9ijRo055NPaO6nn9K0OnVoLOLXTKRd+Z5g3WOZwgFFi9I4topnvv8+zfzwQxpfrRoN5+v0Z4UCoM1oD9zLbZPbI0sm8t99mWhxj9Pffpvm8DUm8fWwf8/ke8Mzx7O3fx8KhafBHSScN2/e+5CEkwHCTcidW1zQsICVgBX2EIuY+zLIClYriBXx1l45ctAYJrQNfn70D1uY4pqFW/XcOTo8ahRNREZ98kIPOA5EB2tQiPkRy9q8sq4vA5/mYhDYDusUn6hhjcIg8l3y3yAykBTctfgEubVKPk6249zJ20Gytudtw9vNa0thjOTrmwMBsZ752ljusCvfH4D1jPEdtmEfHGvuK4TM5A3gb1wD3wNm26W9uNfk9uB4tAHnxLm78CACAxAci7YLAaNtDt6FQuFpuKsk3LFTu3+7dOlAa9asoC1MwrNmT6PJieNpyJCBnhsTVijSARACLDOQpS2RoCDGGLZwkWF86dQpieeCiLHs4I6ePWkQW6hwSZtWJwgGnyAkk2hMCBknbwdpmfuax1mPBXE6aFNq5zbP62j7Tfdnsx/aC/IG8PdN18Z+NtfE9pv2Sf40kaI9tm1OPtY83vbe7N+BQuGJcBcJ//TTjzRx4liaNj2RFi+eTwcP7qXBQ/pTh45tqFOXDuGGI5k+ffKVdetW0Y4dW2j79s20efN62rBxDS1fvlgWcFASVtyLsBIJkwYsN1i7YytVoj0DBtD5ffvowtGj9PeRIxKnnd2gAbXLmdPqXrUlXfvzmucW2BG008c52Ga/PbV9bPcDadrC0XGyn82+9tdwdMytrpPavgqFJ8NdJBwaGiz8CR4Fn4JXN2xYQytWLKEhwwbxz8OBKAkr7meANGDNgYjhVh389NM04eWXaVLNmjTh1VdpZLVq1KN4cV0VSKG4h6EkrFDcRQgRP2CZUywx0ieekHiqxDgff1wIODY5/mp/rEKhyPzwPBLeoCSsuL8AIk4tRuoo/qpQKO4dKAkrFB4C+zjnrWKiCoXi3oCSsEKhUCgUdwl3lYQTEppdatYsmlasXCpTlBKnTKTRY4ZTr97ddYqSQqFQKO55uIuE637/HY0YOZQmTBhDc+fNoiNHDlK37p1kEYd27Vo5nqLkuFhHH2rbrlWmKdahUCgUCkV64S4SvlGsY6DzxTqUhBUKhUJxP0NJWKFQKBSKuwTPIeHNG2jU6BHUfwCTcFslYYVCoVDc+3AbCX/5BfXu05OGMAlPmaokrFAoFArFbaEkrFAoFArFXYKSsEKhUCgUdwlKwgqFQqFQ3CXc0yScnT/rM3wUCoVCofBAgKPAVeAsBzzmFDyWhIsVKEBVGdUVCoVCofBAgKPAVeAsBzzmFDyWhGeMHUuzFAqFQqHwYICrwFkOeMwpeCwJ/3vxIikUCoVC4ekAZzngMafgsSRMKioqKioqmUDAWQ54zCkoCauoqKioqLgg4CwHPOYUlIRVVFRUVFRcEHCWAx5zCkrCKioqKioqLgg4ywGPOQUlYRUVFRUVFRcEnOWAx5yCkrCKioqKiooLAs5ywGNOwQUSDrQj4eFMwr2ZhFsqCauoqKio3DcCznLAY07hBgn3YBIewCQ8SUlYRUVFRUXFWQFnOeAxp6AkrKKioqKi4oKAsxzwmFNQElZRUVFRUXFBwFkOeMwpuIWENzEJjxw1nPr1701tlIRVVFRUVO4jAWc54DGnYJJwr949aPAQJuEpSsIqKioqKipOCzjLAY85BSVhFRUVFRUVFwSc5YDHnIKSsIqKioqKigsCznLAY05BSVhFRUVFRcUFAWc54DGnoCSsoqKioqLigoCzHPCYU1ASVlFRUVFRcUHAWQ54zCkoCauoqKioqLgg4CwHPOYUlIRVVFRUVFRcEHCWAx5zCkrCKioqKioqLgg4ywGPOQUlYRUVFRUVFRcEnOWAx5yCkrCKioqKiooLAs5ywGNOQUlYRUVFRUXFBQFnOeAxp6AkrKKioqKi4oKAsxzwmFNQElZRUVFRUXFBwFkOeMwpuImE1zMJD2MS7sUknKAkrKKioqJy3wg4ywGPOQULCX/OJNydSbi/krCKioqKikpaBJzlgMecgpKwioqKioqKCwLOcsBjTkFJ+B6Q//77j65fv24F/ldRSU3udn+529dXUXG3gLMc8JhTcBsJjxg5jPr260Wt2yRQBSXhOybXrl2jU6dO0c6dO2nbtm3yif/xvYqKvdzt/nK3r6+ikhECznLAY04BJPwFk3DPXt1p0OD+lHivkzB+7GfOnKFjx47R0aNHbwK+O3HihGz/66+/MoViOHv2LMXFxVGFChWoePHi8tm8eXP6888/7XdVUbnr/eVuX19FJSMEnOWAx5zCfUfCIFg/Pz96/fXXqUaNGjehVq1a9NFHH5GXlxd1796dtmzZQufPnxeXmafK77//Tj4+PpQtWzZ5dtmzZyd/f3/53p0Cl+G///5L586dE1y6dEndiJlQ7lR/SU3u9vVVVDJCwFkOeMwp3HckfPz4cXr33XfpiSeeoEceeSQFHnvsMVEQ+fLlo5dffpn69OlDf/zxh8cSzp1SaiDdxYsXc4doKUhKSpLvVDKX3Kn+kprc7eurqGSEgLMc8JhTuC9J+M0336RHH31UroV24m+QMgj4oYcesrYDpFy+fHmaOHEiXbx40f5UHiF3SqkhbvfLL79QoUKFqESJEtShQwfxEqhkLrlT/SU1udvXV1HJCAFnOeAxp3Dfk3CWLFnoxRdfpG+//ZY+++wzev7550VBmO0HMb///vsSL4Y1jDgxyAcxLHxevXpVvsfn33//Le7u06dP0z///JPCesaxFy5ckLgY9gGxQfnguNvFn3EunBNWOY41j8Pfvr6+qSo1tMtsr9lme/c6/kcM3HYfHGfKlStXaNWqVfTMM8/Qgw8+SDlz5qTo6Gg6fPiw7A/3NFzV9vcLSe8941yXL1+W8+OZ4jjzvtE+tMnR9VITXAv3iONxLuC3336Tdpn3bd6L6Wp3x7Oz3Q/vD9fDdU+ePGl9FrfKP0hvf0tvfzElve01xdXrQzyl76io3E7AWQ54zCnc9yScK1cuatGiBe3fv1+SstauXUv/+9//xDLGdtzHU089RZs3bxbFh306d+5MzZo1o44dO9KePXvkh71x40bq27cvNW7cmH7++WeaO3eu1V2LHzyUyfbt22nQoEEUFRVFP/zwA3399dfk7e1NvXr1oq1bt8o+jpQDrnvkyBEaMWIEhYWF0XfffSeKDNdbunQpBQUFUY4cOaS9tkoNiurAgQPSTrQXCTA9evQQorEV/N+zZ0/Zbt4XngeuCw8A2o04Os6Na2Bg8sYbb1BERITs37ZtW1q5cqUQsSmu3LOZQTtv3jxpU8OGDemrr76iunXrSjs6deok7nC8i1spYwjIBPe3YcMG6tKlixyPARfecYMGDaz3YKJNmza0cOFCaZcrz85sF64PMtixYwcNGzaMIiMjpX/83//9nzwLWIVdu3aV/mVP8vg7Pf0tvf3F1faa4sr1IZ7Sd1RUnBVwlgMecwppIuEff6z3S5UXnm32AiMkNODqvUDCefLkkR8mFAoEP+zhw4dT/vz5re2BC3bmzJkysl+3bh1VrFhRrMFSpUpJAtfo0aMlfoxjnnzySSpWrJgoMJwLSgoKZuTIkVS7dm0qWLCgKCCQ/OOPP26NP1evXp3Gjx8v7bBVLFBoUEa//vqrZJOax+I4nKtmzZr05ZdfOrQsYA2AUMqVKyftxYCjSpUqoiBtBf/DG4Dt2A/7z58/XyweKPf33nuPcufOLVYwroF3CyJGW7A/BilQzOYzdOWecSwy1XEPTz/9tJwfzxTHmfeNtmAbCAGWTmqCc8KKA/lWrVpVOjuON9uRNWtW6z2YgKs9ISFBLCdXnh2ePQTPEOTz0ksvUYECBeR6uC6en/ks0C48i/79+wsBms8C7z6t/c2V/uJqe802u3J9T+k7KippEXCWAx5zCmki4YYNf6bdu3fSvn27KSIyRHa410gYSmT58uVUtGhRa3ugCCZNmiRuMLhlzW34cSOjGnFjuLVt9zfjyKZSgysX18RzMePQgEls+BtEMXXqVOsIH4AbENYOXpT5TPGJeDWOwXWhaMzz2Co1WKZz5syhwoULW48rXbo0HTx48KZncujQIWmfeX7sP2vWLCGi+Ph4KlKkCD388MPW+zOvj/sHsL/tM3TlnnEsLE48Y+yH43CPUMS4N5ABvsffsLLgqkxNMGgaM2YMlSlTRtqP40AoGFQBaLt5z9gGJV2pUiWxtKCgXXl2plcA9zVgwAC5Hq6Be8Z1QBAgBvNZ4HkiFAILzjwWfTGt/c2V/uJqe13trxBP6TsqKmkR406RsL+/N23Zsklwr5AwRsbt27eX2BWUGEbSSDoCOWM77gMjeriwsN1WKZo/cih4nA/ngkJ84YUXaMmSJbI/3HaY/gQlhGOwLyyXOnXqSDtKliwp28xzYd8VK1ZI3Mq0ZDFyN5UPEsdAiq+99prsC2Vpm0zmThLGM4FF8s0338g9m9fBvcI6+/zzz8VFiIStadOmyf3CxefKPSP2julj5rHY/sorr1BoaCgFBgZK3B73ALK0tTgdCQYRcEOaoQV8wg09Y8YMmjJlikxHA7GZ23CfeL+w7uDadeXZmcQE62zXrl309ttviyWL+4dbNDY2VtqC/mK+W5AFXLV47hB7Er5dfwMZudJfXG2vq/3Vk/qOikpaxLhTJPzTT/Xo22+/FoSEBNwTJAwlANcU3M3jxo2THyuUj6ko8IOG9QFlayYo2VrJuE+M7OE6A3nDYp49e7YoFShzxEtNqwCKCQoKrkMoc5wT10TBAvN6cGvGxMTIKB1AzNKMn+F4uEthqSDuuG/fPplCBSVlPm93kjCICNY/3IuICZqEhfaEh4dLfNJMcDITgxAjdeWekewFJWkqcVhhTZs2pfXr18u7g6JdvXq1PGd7V6i92J8L7lW4cs1EKjw7tBPbYCVhUIFYIcTVZ2cbH8ezAUliIIc2wcoGcSHuCrct+o/Zho8//tjaBnsSvl1/A1zpL66219X+6kl9R0UlLWLcKRKuX/97+uTTjwTBIf73BAnjBwulAeUJJQ2lYP7AcQ/4vl27dqIgHClFM3saiT9mZi0UMCwKWGI//vijuECxLz5/+ukna6a16b6DEsJ1sQ/ahaQntBMEh/iZrbVWr149iUOax0PxIPHE3MedJGwSCdqBZCbTooTiQ9zUPkkJ4uo9Q6F/+OGHVncr3g+sJ9Paxr3D7Q2icJQUZCv2ShkWGeY6YzCF95SYmCiWHbbB4oLVBE8IxF3PDmImO+H+cH4QEhKLli1bJolPcPWabUAs1mxDWvsbnqsr/cXV9rraXz2p76iopEWMO0XCTRo3oBbxzQShYYH3BAk7AtqOHzLc0BhJQ9HiR+tIKSJJZMiQIeIKtBdcC24081pwcSPTFZaYKTgOx+M85rXLli0ryh7KB1a46V7D8Ugysj0eyhLZ3aZivNsk7Oo9m9YQ2mCSJz5hfeF9wKWIrFs8m9tlt6LdtgofbUGGMe4Xmc/IOMa9YJtp1UHJQ9z17NBGEA/c+iADuEtxr7AQ0Y/gUjYHffhEnNNM/kprf3O1v0Bcaa+r1/ekvqOikhYx7hQJ+/t5s/UwURAWHnxPkDDaiRE3lAt+2Bg5I9v3gw8+oKFDh970g3WkFPE3vsM2e4Eye/bZZ60KAecfOHDgTQoUlgzik6ZFhvbg+rt37xYFj9ireTyyYaFEMJI3Be5iTJEx3arpIWFYOnDBp0YkaSFhV+8Zzxr3jRABFCfI0WwXPvE/vkfyD9ybt1KmsHpAurgfHAvLDfcJa+v777+X84BIsA1eENPjAXHHs8PADWRfv359ccGin6HfASAGM3vXfFb2pJae/uZKf3G1va5e35P6jopKWsS4UyQcGhpIu/fsEEREht4TJAxiQbwTynrw4MESG4arD+RrZl2a4kgp4keN1WAcubegnJA0Y1oOeNjI/IQiMgXJTIhzgQSwD54bRvZQ7lBKlStXth4PpYQ22iolWAndunWzJpLdjoRBGFBA5n1BEWHOKe7DvCdXSNjVe0a70Ca8JyhwWKd43ri2rUKFEkay0K0yXHEe3CvmuZpxTLQL5GJm+oKY0Q4kZZmKHOKOZ2daZmgrjgfwfjC9BkSA+a94rrZtux0J366/udJfXG2vq9f3pL6jopIWMe4YCYcF0t59uwQpSXgok3BPJuH4TEXCsIBbt24t8SQoCyjP1EbIjpQi3HRIXHKkFHEtZJma14IlgUpTtj9+WGtIsEE7sA9cecgkxSAAx7/zzjvWGJdZWAQuPVOQMIPpFmYyjK1SQ/YnppCYRAKg7Ui6QVwUAsti8uTJVssCcIaE7dthiqv3DDHjf7CgMBCB0gVJmtNmzGNeffVVazwyNYHSh/vSzOo155niXCA0zLdFgQ5kBJvPBOKOZwdSQczUnN6F54fnuGnTJklmw7OyTQ6zJ7X09DdX+our7XX1+p7Wd1RUnBXDLSTcjUm4H5PwxPuLhO3nCd9K0qoUoXACAgJuSiKBwoD1hNE9SB/HYqoMXGXYB1Ya3IFQegD+NhNVcDySUDCNA8dC0WClJ5zTvB9bpYb2opKVbXvN+8VzwDlgQTRp0sRaPAGwJ2EkzKBikdkOWEI4BsoXbQDRwUKB8nP1ntFmKFT8jX1BeLgGLFBkwZqxRPQvZM7CerX1VtgKBlN4PiBaKF60G1OW4A5FoQdk/4J8zWdlK64+OxA0ssdtXdVmjBOkhPsCSSAb33xW9qSW1v7mSn9BBrSr7XXl+ngHntR3VFTSIsYdI+FQJuG9uwRKwpa23kopQhGjmABiiRiFm+49TIVBtSG46pA9ilG96f7DuVGxC8oDigeFIxBbM7fDgoB1AusOUzdQEhDfmc/bVqlBwUABobiDrRXw3HPPiTsO10f8zLQSzXuyJ2EoR3vli8pQcOGPGjVKSA1zb9FmV+8Z7wcJNHAho2QhiBD3AGsM019sFSnckLbuYXvB+TAlybRUYdmhHXCHjh07VqzY6dOnS9YvzoP7NMnYHc8O8Unb7GwQBt4XrGnMp4WVh/5jul/tSS2t/c3V/uJqe129vif1HRWVtIhxJ0l4DxMwoCRsaeutlCJ+4BiVm1WnTMWCbF24RAEoOluFZTulA+fcuXOnlPoz24v9QCY41ixbiHOYitNWqUHgSobiM13JOB5kAoWEc2B//G+bxGJPwmYlIjMjFYDLEs8ObcAzQEEEkJir9wwiwDxQ3Bf2RYIQlDKSb2xLZ+IcsGpxf6mJffEIAMfhvCBPs3IW3ieqP+EeEG81idjVZ2efnY19cF+4Hp4N3LXYBvctttmTWlr7m6v9xdX2unp9T+o7KippEeNuk/DGTUzCI4ZSn749qVXrePkhmEopnchQEn7rrbfSTcKY7O+sUoTgeygJjMShFHBd22eDv/EdFBRG/CiZaVvJB9YFRvXIOrXP9oQyhILBcSAGfGdPwiADkAJIBsrM9tpQSlBYODdieaYb0Z6E4dYFOcE1aJvkYrYDzxCWslk5yZV7xnGo0Wx7jKl08TcUP5QvkoVQpMJsoyOBOxLuT1hHJrGkBpwX7UExCkxTglJ39dnBRQ+3N7wGIGvb481BDPoipgHh/Paklp7+5kp/cbW9rl4f4il9R0UlLWK4SsJfMAn37EYDB/WjyYm3JeGdgsxKwohvYvSMesIogYdsTCgN2wzM1ARkhPgWijrgWAAJHnv37r2lWwuKBUkgIHvEyHAclDUAKw3Vj5AchpgcFIPtucw4K5QjijQgZgcrAcoMyh9uPqz8hClVOBemeNgmw+B4WLIoVgAywj64LhQ7FCUsPZAGqghhIQK0Dck5iJfaDgagoLEfzoE2mBYk3HqI0aEdts8wvfeMJBzM38V8U/MYXAufSKSCOxhKGy5SXC+15w4Cw8AB8UJ0cihg0yIz24EMW1h3ZiIS+izahpV+zOXuXHl25rtD/8IABgSK4/GJ/YODg6WaE9ypIA+c/5NPPrFWoEpPf3Olv7jaXlevb8rd7jsqKmkVcJYDHnMK9x0JQ7HBDQXX1cGDByXZBFZwapaFrZjWEUbcOBaAsrDNqk1NcH5cB8dCkWF1IrhKUQoQ58D0kNTagOuCBJF0AqWM4xDnwnFmAgoUoXk/UIK258LxiLdhHxDTggULRBFBmeNZ4J4QUzPvC59mopX9OeBJQKIMLAmcA4oQ5wVZ2bc/PfeM/6FMcQxWEMI0IcQJ8YlzYB6rmfl9KyUKpQ6FDKKF1QqLC6TZr18/ORfagrgwXJ9wWZpxTuyPQhXm3FZXnx0+ofDxXmDV4rnhvtD/zBg03qF5PJ6vbVw6Pf3Nlf7iSnvdcX1T7mbfUVFJq4CzHPCYU7jvSPhuC378GAhAEQD2iuR2gv1xXGrTqG4n5vGmpZcewbVBDs6eIz33bHsMSNC8Z2euB4EiNqs3gWCRcATFDIIx2wHyRIYsSiOa7mSQMKa1gETsxZVnh/1BVnhuabkPVyW9/cVd7U3v9U25G31HRSWtAs5ywGNOIe0kvGenQElYxVMFytY2sxmAGxMZ3LCikPyDsAQsI2RPIyQBlzT2QwlKWID21p2KiopKagLOcsBjTkFJWOWeFLg7zYQs9EVYxGZcEpYvXNOIryJeiEQeEDDixb6+vkLQajWpqKg4K+AsBzzmFNJMwruZgAElYRVPFriTsUoSEoqQiWsSLTJ04XpGkhaIGRYwim2AoBs1aiRTbNLrOlVRUbk/BZzlgMecgpKwyj0psGSRLGYWmTCzbG3nBoN4q1WrJtYvaobDelY3tIqKSloFnOWAx5yCkvD/s/fW31Fl7bfv+Qvuj2ecc8f9vv220ViAuLsTorhbcJckSEOCQ+Pu7i4t0EDjEIi7S8U9hBCChnmfZ4XqDsVOsgPV3ciaY8yRULJr185ifdZctqU+WzGIeVKOdsYsb3zBS4rY9+7dE1tW8uxcnjGruzRMSkpKSq2YWQocU+W2Qzg9VVhCWOpTUtPZvmz+Xc1MWykpKanWxMxS4JgqSwhLSUlJSUl9gJhZChxTZQlhKSkpKSmpDxAzS4FjqvweEE4RlhCWkpKSkpKSEJaSkpKSkvrXxMxS4JgqtxnCaQRgtoSwlJSUlJTUPw3htBThdyG8jyC8iSC8UEJYSkpKSuqLETNLgWOq3Ahhf4LweoLwdoLwKQlhKSkpKSkptWJmKXBMldsM4ZSUJGEJYSkpKSkpqX8QwpMnj8fhwweFQ2bNkBCWkpKSkvrixcxS4JgqtwnCo0YNx/jxY4WDgqe9BeGDBOGt2zZhyVIJYSkpKSmpL0fMLAWOqbIWwpsIwrt2b8eZs29DeFFTCA8e1A/GxobCM2ZOkRCWkpKSkvrixcxS4JgqtwnCo0ePwMKFYcLBIdO/SAjzHsTS0v+mpaSkPi4xsxQ4psptgvC4saOQkZEmrDsx63OCsG6lpzVv+N+c+R600tL6tG4Z01q3XEpAS0n9u2JmKXBMldsE4YED+87t6e/7e5/eAVdmBk1r+FwgrFuR6QJXWynynXea84sXL6Sl9WrdMqZ1c6DWLcMSylJS/4yYWQocU+U2QbipgkOm13/KENatrHShqwRYvjdtc9beIk9aWl/WLWNaK4FaF8q65VsCWUrq7xMzS4FjqvzFQVi3YlICry5wuUJ8+vSpcH19/Z9+8uTJO66rq5OW/iDrlil203KnLYtNQd0Uyq0BWUpKSr9iZilwTJW/GAjrVkS68G0KXi10taDlivHx48eora0VfvToEWpqaoQfPnz4lqurq6WlP8i6ZUpb1rjccfnjssjWAlsLZi2UdYGsBGMpKSn9iZmlwDFV/iIgrAa+XIHpQlcLW64Iq6qqUFlZKVxRUYHy8nLhsrKyt1xaWiot/UHWLVPassbljssfl0W2FtBaMGuhrAtkCWMpqb9XzCwFjqnyZw/h1uDLFZYWvNqUq4UuV3pasBYXF6OoqAiFhYUoKChAfn4+8vLyhDUajXBubq609AdbW57YXL64rHGZ47LH5nLI5ZHLJcOZwaxN0Fx+tUDmRmVzMJYglpLSn5hZChxT5c8aws0BuGnybZp4uSLTgpcrOa74tJDNyclBVlYWMjIykJ6ejrS0NKSmpgqnpKQIJycnS0t/sLXlic3li8salzkue5mZmcjOzhblkcslA5rBzOWVy60WyNqE3BTGuiBuCmMpKan3FzNLgWOq/FlCWLf7ubn0y5WUNvVyoigpKREVGoOXKzmu8LgC5IoxISEBcXFxiI2NRXR0NKKiohAZGSkcERGBBw8e4P79+806PDxcWvot65YRrbkssblccfnissZlLiYmRpS/+Ph4JCYmCkgznLmccnnlcsspmRMyNya1MOaGprabWpuKJYilpPQnZpYCx1T5s4awLoB1029T+HLq5a5ArtA4fSQlJQnocgXIFeK9e/dw584d+r63cOPGDVy/fh1//PGH8NWrV3HlyhVcvny5Wf/+++/S0m9Zt4xozWWJzeWKy9e1a9dEebt58yZu376Nu3fvCogzpBnODGUur1xuubeGEzI3JpvCmMt7S6lYglhK6v3FzFLgmCp/dhBuCcCcBhjAnH65ctKFLycLrtAYvJxIuMLjyo8rQ640f/vtN/z88884d+4czp49izNnzuD06dM4deqU8MmTJ//0iRMnpKXb5KblR1umuHxxOePydv78efzyyy+iHHJ55HLJDUKGMjcUGcjcY6MEY+6m1qZiCWIpKf2KmaXAMVV+bwgHBU9/8bFBuDUAa7ufGcA8hsbdd1xZcaXF8OWuP67QuGLjJPLrr7+Kio8rwuPHj+PIkSM4ePAg9u3bh71792LPnj3YvXs3du3ahZ07dwrv2LHjLW/fvl1aukXrlhltWeJyxeWLyxmXt/379+PQoUM4evSogDbD+cKFC7h48aIAMidl7rHhRiTDmIdSePyYx425wdkSiGXXtJTU+4uZpcAxVW4Vwovmz/1fSvrYknBTALOVAMzdctz9zONmnH55PI3H1jhBcOXFqffSpUuiYuMUwtDdT8DdtW0btm5Yj02rV2H9iuVYs3QxVi9ehFWLFuCnBWFYERYqvDx0vo7nYZkaz5f+0q1bdrg8cdlaSeZyxuVt7dIlovxtWrMa2zZuwO4d23GAwHzs2DEBZE7J3J3NMOaeHB5D5m5qntDFqZgbntwA5YaoLohlGpaSen8xsxQ4psp/QXjdGwifVJeE34Zw1BsIb/woIMwVihKAefYod8/xJBZOvzzmy914PM7LlRfDl7sCD1LFtnPLZmz6aQVWzZmFJWNGIrSPH+Z6OmK2nSlCLLqRuyLYnN2l0WYGH+Qg087SX7y5HOi4SRnhMjfb3hw/ejkjrF8AltL/vzXz52ILNQ53b9+Gw5SSudeGYczJmOcwcO8Op2JucDYHYp6sJbulpaTeX8wsBY6p8tsQ3vZpQlgXwNplSNpJWFzhcAJuCmCeZcqTW3jSC4+xceV16OBB7Ny0CWvnzcWiQX0xhyq8ELPOCDbugKBu7RDU5VvM7Pw1Znb6r3p3/Eq1Z3T4j7R0y+YyZfANZnb9DkGGP4jyOcfZGktGDsWGxQuxa9tWHDlyWIwhc68OD61wQ5OHWxjE3AOkBTF3TfNkLe2saQliKan3EzNLgWOq/NlBWAtgrli4guGKhisc7oJuCmDufuaZpzzR6vjxY9izYwc2LAzDogG9MNvKEMFUwbUZuK1ZAby6fqfSlZZuzZ2+JiC3w2wbYywlGG9esQz79+7BqZMnxbwGHmbh7mktiLWJmMeItbOm+f+L7JaWkno/MbMUOKbKnzyEdVNw025ormC4ouEKhxNAUwBzdx13Px89cgQ7Nm7AikljMZeSb3PwDaLH1Fj3fYpWgK+u36lopaVbM5WbYKP2+NHdDqtnzcTubdtw4vhx0T3NPT5NQcyTEnmyFi/T4/8n/P+F/9/opmEpKanWxcxS4JgqfzYQ1u2G5nFgrmC4ouEKhyseHgPmLmhOwAzgI4cPY9va1VgybABmWXRFEHfztRG6rfkdAEsQS//N5kbkLCtDrJg4Bjs3b8LxY8cEiDkRc9c0T0bkJXm8PI/nSSiND8s0LCWlXswsBY6p8mcB4aYpmLvVmo4Dc0XDy5C44uEKiBMBd0EfPXpEAHhh/54IMe30Z/rVhehf/kaldd/XCpAV4CshLP3BpvITYt4Fy0aPIBBvFomY5z7wzGlewsS7wPHwDA/TNB0fVpotLSUl1bKYWQocU2WGcABBeOOmddi5qw0QfnudcBQOHNyHLVs3YvGSfw7CSmPB2m5obQrWdkPzMiSeBc0VEVdIOzduFAlYC2BdYL4L1/e1BLH0v2QGsUVXrJg8Hnt2bMfpU6fEJh+8Fp6HZbTd0ryZB68e4N4jTsMSwlJSbRMzS4FjqvwOhM/oQLi5dcIfE4SbjgVza75pCuZuNx4H43FgXobE6yn37twpxoC1XdCtwTfYoG3Wfb8qGCsAWIJY+kM9s+N/McfGGGvnzsKBffvE5jM8HMO9QryGmDfz4DSsnaTFjdimM6Vll7SUVOtiZilwTJVbg/DixaFz/peSdLuj/y0IN03BumPBnIJ5K0peK8njYdwNzWspNyxagLkO5mLJUXPw1QWrML2+Reu+XhHILYC4BRjrVq7S0mrNS5rm93DB1tUrcezYUdEbxL1CvJkH76rFabjp2LDSTGkpKanmxcxS4JgqtwbhZrujP0YIa7uieYyL1wRrUzB3v3E3HO+CtWvzZiwe2BshRu0VAawGuiFdv3vLus8rQVk1iBUALEEs/WH+CsEmHbF84ljs3bVTrCHm1QE8W5rnSnAa5hUE3HjVdknrTtCSkpJqXswsBY6p8icL4Za6orlVz617HgvmSSi8YQGn4EMHDmDd/B8xx9qoSTd0y/DVBa5afxCMFQAsISz9IeZyNdfFGptXrsCxo41pmG9QwmPDvK0lD91oJ2hplytp07CEsJRUy2JmKXBMlT9pCOtuzsFdadya51Y9z/zkMS9u7fPNGHhHrF1bt2Dx4H5vUrBC+m0Ovt2+b5tbgfH7gli3YpWWbouDjTvip2mTsH/PbnEnMF4pwEM1PGTDG3jwBC1uxOrOkpYQlpJqWcwsBY6p8mcD4aZd0doJWbwumFv73OrnO89sXvkT5jpYUArmsWBlACuBd5ZhuzZZCchqQKyma1q3YpWWVuuZVO5DA7ywY+NGsUc6D9HwunltlzRP0OJGrO64sJycJSXVsphZChxT5c8CwtodsrgrTdsVzRNOtF3RvDEH321mzdzZmGXeRTWA34brDyrdPIzbDGIJYWl9msrPLMtu2Lhsidiohre05EYqN1a50crzKHiWtBwXlpJqm5hZChxT5U8awkrjwdylxl1rvBkBL8PgCSi8LGn39u1YOmYkQkw6vgPg5uH7F1xnG7VXZSUgqwOx7JaW/vvNE7RWzQ7G/n17ReOUG6m8hp7XDPN9h3lpn+5SJQlhKamWxcxS4Jgqf5IQ1p2UpTQezLdv47XB3OXGN0Dn+6+G9Q1AsGF7FQB+F7xzjDuosjKQ3wbxnzBuBsStdUvrVqzS0mrNe0svmzQOu3fsEI1TXjMcEREhxoWbLlVqupe0hLCUVMtiZilwTJU/WQjrTsriLjTuSuNxLd6mkrvY+H6qFy9eFOPBW9auwTwvZwHCd7qgWwDwn4A1UWkdGDcH4tYSsYSw9N9hviXnohGDsWPLZjEuzJMWuceIe460k7N49yw5OUtKSr2YWQocU+XPAsLaTToYwjyuxUsueOkFb0jAG9cfPnwYG1f+hDkO5n/BrxUA68J3rmlHVVaCsRoQSwhL/xPm+xCH9gvA1g3rcezYMXHPYe3kLO5B0q4X5p4lCWEpKXViZilwTJU/Gwg3nRnN41s8zsWb1YtJWbw+ePlSzLYyIuC9OwlLEcC68DXrpM4KMFYEcVu6pSWEpfXkmV2+w7yePti8dg2OHDkiVg7wZjY8fNN00w45Q1pKSr2YWQocU+XPAsLamdE8qYQnl2hnRvNWlbwect++fVi7dDFB2FA1gHXh+6NZZ+F5Fl2wkBL1Ujdbsg0W2puJx7TPN4WxMoibTNaSaVj6HzZD+McAb2xcvVr0EPEMaR624Z3leBhHu4809yxJCEtJqRMzS4FjqqxHCO99A+EFHw2EeTMC3qJv7969WL14EWZZNoGwTjd0cwDWwvVHcwPMt+qG1f4eOLNoHu4dPYj7J4/g7JJQrPRxxTzLrn+9VgvjFkD8Tre0TMPS/4BnUln7MaAHNqxaiUOHDonhGh620S5T0oWwnCEtJdW6mFkKHFPlvyC89tOCcNPlSQxh3e0qeScgnvnJM0D37NmDVYsWihudN4XwOwBuCmEdAHPaZdjePXYQtw/uQfSFM3hUXoaa0mLco8dWdHdsTMT02jaB+D3TsG7lKi2txgzhuf49sH7lShw8eFBs56qFMM+l4DkVPKzDwztyrbCUlDoxsxQ4psrvQvjEpw1hnuGpvXMSQ5i3q9y9ezdWLlogIKwqBWsBzEB9A+AF9mY4EjIVSdeuYNuIAdgxegjKc7PRQOdRVZiPPRMDEWZr/BeI38D4LRArQbjZNNwyhCWIpd/HjRD2wrqffhJzJXjOBM+d0O4hLSEsJdV2MbMUOKbKnwWEm964QQthXvvIG3XwnZMYwpyEeUy42RTcAoC5q3mxizV+p4tUkpmOi+tX4fLW9XhcVckng7qH1Ti7OBSLnCzEa9sMYrVpWEJY+gPNEJ7j54W1K1Zg//79f27Ywbc1lBCWkno/MbMUOKbKnw2EeW2jdrcshjCvfeQ1kFoIr1y4ALOtjdoEYS2ABYSdLXF+2QLUlpfjSc1D1D+qwWuqmBjCj8pLcXT2dCx0NP/z9U27ptVAuGkalhCW/rvcCOHuf0L4/Pnzf0KYVxXw6gKeW8FzLCSEpaTUiZmlwDFVFhAO8MeGjQThna1AeMyYwL4jRwxtmDRpHIKCp4kXaCG8/8BebN6yEYsW/7sQzs3N/XPLSu3dk96C8HsAmCdkcVfz5kG9kBsTiedUOWlniz6re4y02zewrpcXwmyMxGvfB8T8M5hB3FKXtJ4gzMeaY9KRzq2zuKWj7vNfqoPouvDfbD797bhRxNe+6b/f55p/bNdaC+E1y5eLVQMSwlJSHy5mlgLHVLkphHcQhE+3BGEbK7PQ8PA7qK2twZy5wZ8EhDkJ79q1Cz8tCHsvCDNUQ60Nhbm7ed+UMUi9eQ0vnj4lANch4fJv2Dl6CBY6mP35uj9B3BKEyfwcp+fl3R2wtncPLPOwxwJ7U8yl1/B65ncg/B6Ts2Z2/G8jUBgAb97D53N64Y+4tHGVWGrFn6H7vr/TSuf0IebzD7MxFr0Vi12s3jFfUzXfkWF7fddW3DqwG2t6dscCO5O3/s1/E933tOZ/+1rrWgnCvJRPu3+0hLCUVNvFzFLgmCq3CcJWBOEDB/g/7lmEzJr5UUOY7yN8+fJlVRBuCcBNIRxKSXeRowW2jxyIqsICFKUmY+vQvm8AbPQWhJsDceNM6Y4CGjvHDsP9U0eRlxCHspxs5CfE48GpY9g8uLc4tw+FML9+Pp3P9sBBWNHDSSRsfh83JjLD7yI/MQ47xwwV10T3vX+Xlc5J9zVtNV/zB6ePoSQjDRWaHFQV5AtXaHJRlp2JxCuXEEZA1X2frhc5WYpjVObnYc/4kVju6fDWv9t6nf7ta61kCWEpKf2LmaXAMVVuM4RHjRoJT093zAya+glDuHFzjrakYDZ3N7PX9uqBijwNQTNOrBvWPt70tc1BmD9rvlVX7J00CnnxsaitKEdhShJS6TrmRkcgK/I+Ng3qKc6NYcWV+GJnKwERhjd3mXLlzvDiLnL+XD4mP8+pmj83pOv3jbCjzz8xf5Y4z983rRFQ0X6/c0vDcGnDaixzt/sT9i0e7w30tV203PDgc+P3zDb6QTzf6jFaOCf+Xi0dWxcmTT3Psguubt+ElJvXoImNxgu+8QDBoyApAWm3b+Lukf3ib9La8Tk1V+RrxNKzvZNGY7mXk/g3/40OzZwknm/rNeFu6OauNZ8Tv46vF6d1Lpv8b75GPBufP0v7Gu1nNXZvdxDvWUTP8/v4s9V2l0sIS0npX8wsBY6p8ntAeAQ8PNwwY+YnCGFKn7opWBHCCilYC1oB4d5NIBzg2WYIL3W3RdIfl1H/6BEywu9g85A+WOJqjWUedgR4LwHp1f7uuLZrK7Ij7qMwORGxv13A0TkzGmFCFTF3lcb8ep4e/xkXVixC8vUrBPUY3D16ANtHDBSfe2D6eEpg8aLrnJN7xr3buLB8IVYQXJKvX0Xm/bvYMqwvQrp8R1Bo+XizujXe+ILXSl/fvRVZD8LFsROuXBSA4u/3IefE4Gnp2C0BRozlWjZCkHspaspKBTgPTp8guqgbofldq8dvDsL8d+KNWbihpImLxh2COi9TY2i2ek0IporX+pdziDp3CkdmTRV/W74O63p7i8R9++Be8e/cmCjRM3I4eArmURkSjRj6LqcXzKX3n0dubJQ4Jy4nq/08VPUqSAhLSelfzCwFjqlymyDMY8JBQdMRGDjio5+Y9b4Qbq4rWoCW0guDZl0TCK8hCPNj2gTYFMJaEDeF8I/kNT09UZ6bgydU0fGyJ35/4yzpxpS+hGDAm4HUVpYTTMpQTbDi5VDctXps9gxx3vya8pxsPK9/goclRaLrleFR97BKQIDBwOnwEQHpFV2nh8VFBIl7+PmnJVjl5y66vx+WFGPvxFECsJy2y3Kymj0eb9XJkIu6cFo8zueiIQjw78XpqWJcnFNtS8do9pxWLsFP3s4tHpuvjS5QdM0JkxtFfFz+jG0EZIYeA7a1c+fjNwdhXgvOUK/IyxU/66qrEH/5N3HM1o7beE2UrzVP6ivX5IjnuFdkTUB3nAybTaCPEeYGDP/duUucu++57OyZECjey8vieJIggziTGnI8Zq1mvFlCWEpK/2JmKXBMldsGYRuL0JUrl2PFiqUIDpn++UFYoSuaK1meMMWw3dDfT1Ty6/v5igqZIbyuj7eA8oa+vqJrmrscuYuQu5KVIMwpd9fYYQISXKHvmzJWPK9dqsTnxM9XFzWClxPl1hH9qaI/gydU8XKqWkjH5+TMY5WcKJN5A5HAgTi7eL54D4+H8jmu8nVD+t1b4rHre7aLBMyftcTV5i3YzOrW7k8ANXc87iLfNeav8zq9YI44T0703Fjg4zMIWjpGc+fEDRgGVkvH5r+LLlB03RyE+bruIIi1dvzmICy+D1337YGDcW5JGOqqqlDZxmuidK25IcKw/mX1MmwZ2lcMNyymvysDd+OAAALuSJRkZohjn1u2QHTvn5gXgseVFaLscONl85DedB69RLlRM8lNQlhKSv9iZilwTJXbBGE7O6vQ/Qf24MzZkwiZNePzg3CTJMyTsFZ4OWLv5NFidix3C3M6aaww+4jdsvLo31uG9BEzaBnIGffu4NrOLVQxDxXgZhDrdkczhHePHy4qZfbO0UPF41oI/2hhgFOUhrji5SS50tdVHOPEfKp8qypQQZ/Ls6mXuNkICPOaZT4nPmduBAgAieMOEYmLd/jitc28wQifA1fEurBpCobmjrd/6jixZzanwJfPn4lu15zoCAEjPteo86dFg6SlYzR3TrON24vv19KxuUGkCxRdNwdhtcfXvS5aCDf3fdpyTZSuNXdzX9m6XjT0xN+ergXvvHZz/+7G8W0qX/W1j8TnX1y/UjTquCEoHqf3coJOvPY7Ds6Y2GqXvdYSwlJS+hczS4FjqtwmCDsQhC9cOIuIyHDMnh30WUKYgRlKlR0nmNuH9ogdsooz0ggclwVsOelsoERXlJIkxvnW9/HBgWnjcHPfTrF0iV9flJaCK9s2YkUPZzHW+VZ3tHlnqkh9xVaXXHlzUuRubO2s7VAbQ5wKbYQwd1lzUpxr2kmMB4tESe/7iY7Ld3BiCIuxT6qEefLOUkrhnMq4wt81brio7Pm8+TWXNq5WBeHmjseP8WYlfM7PntQh8erviKTGWOS5U4g4fVwktVV+Hi0eo7lz4r8Dj3O2dGztubfk5iCs9vi616XpxCyl79OWa9LctT4wfYL4uzOEtw7vj8LUZPFavka3D+0Vwx51VLZFg4XKDpfXbfS6B3R8/vs/fVwryhuPhfMxdK+JriWEpaT0L2aWAsdUuW0QdrAJvXL1EjKz0jB7zucLYe6uvbF3h5g4xN2Q+6eMEeOoyynd8hIlngTDG3TE/npejHMudrIUY3+r/T3FJBqebMUA5UqYX687MWuZp72YUPP08WMxmWfHKB47tBcpa+fowfR5Y6miLxSV9LHZ08VEMJ4MxLt0cfrmz9N2R/9ZudP34nWofM5a4PGSG570w92Xdw7vF8meUzWn6ObA0Nzx+BrweTHgGrte54qGCncv82xxvmYMqJaO0dw5cfc9j3W2dGyxgQmZeyi40cK7i+l2vzYHYR7v3T1uRKvH170GWgg3933e65ooXWt6jMshp2rR0KIkzY29nWOGiTHjJw85Ca8SDTrukuYJfFxWjs2dSWVAI95zdmmY6M7Wha6uJYSlpPQvZpYCx1T5y4Kw0jphBQgzWLlrkSvywyFTRRcqV/7aSVd8x6Q/tm/CL6uWijHgP2dF02u4kubNGaqLCxHz8znRLf0nhN9s1sGvPTprOsqyMlFfWyvSLS+nYXBzVyNP4Im7+LNIWNzlWExJh3/nY/62dgXmUSJSA2E+n9/W/ST+XUPXhpP6pY1rBKjehsC7k5J0j8cQ44ZC/O+/inPh9bj8OwOVGyQ8fsmpvaVjNHdOPDmNodLSsTmFMtS4i5fTJn+W7kSk5iAsZj47W7Z4fD5X3WuwnBoILX2f97omStf6zVAE3xSEofqUygTPLM+OvI9aaqzwJCyGMHdbH/sxSIyp8+zquEu/iM/l9+yfOlacny50dS0hLCWlfzGzFDimym2G8NXPDcIKaZjTWfqdmyKJXt22USwbWuJiLWYxi8lalNx4MhYnHvGYTeM6T4YETz7iJTk1pSXiJ3cbN03B4rMosSygCpVTM0OI0w4DlTf/iDx/ilK3G9ZRkgo/flg8xl2SDOnfCaBLqEEQTLDhNaJcSfNY9I5Rg8T3WkSgyYmOFI9tHd5PfLf1fX0osV8QgOelTpc3r8VKOu+33ksA4NnPao8XfvyImLHL4+KlWRniO/AGI5yw1R5D95x485KWjs0pb+eYIWJCXNrdm+L76yZhXsLDXfU8Y5hnG28a2LMxMdNz/LOl4wd3efcaMHDVfp/mjvvONVG61m/W+PIEtet7dqAoLVkci7u3r+3eJsaZtcMWPA6dExUhZkiXZWeJNeZXtm4QCVmOCUtJ/TtiZilwTJXbBGEnJ7svAsIL7EzFDRm4gqssyKPK8BIurFgsJhYxfDm18Wxp/snm9Z27x4/Ar2tWIJUSECclXj6iTX66EBafSeaJPgxuTt4Meu5mZMDP5s1EurUTlTIn7dV+7iL5clcyA7hxs45vRWXO3d1/bpZh8I3Y4IEBxd+PH+MKnito/gxenyz2QX4DnLfe2/mbdx9TOB5/LjdEGFB8DXhpESc0Pl/u0lVzDKVzCur0dYvH5mt3ZvE8AZ6LTca3dS1gqv08et9fYGr53JWugdpr3NJxFa+JwrXWNiJ44t5SKgfabnrtJiD8fTnpc7nhBiF3e/NnMeR5Mh+/V/daKFlCWEpK/2JmKXBMlb9oCDfdNaspiHljBN75aM+EUYi+cFakEk4epVmZYkkJJyEey818cE+kEk6rpdmZ4jU8Seb+iSNiSQxXotwVrQvgpjdvaGoGyLs3cGgcC32fbSvfqnzfvFf38fe2gEnjlprvPKfSzZ6TwrE5CfNOWzwhiWccq9mYolkrHF8v1tNxW/37vvkcbrjo9ga0ZglhKSn9i5mlwDFVbhOEXVwYwq42k10AAIAASURBVL+3AOENBOGwjwrCJ0+efBvCXVXeypASCHf/8fjvlmH9cDJ0Fv7YuRn3Tx4VYOauQjEb9vxp3Dt+CFe2bcDxH4PE2lEeB+ZkpDshSwnC2qVJ8n7CLZu/P88S5+vKjZW2wke60RLCUlL6FzNLgWOq3AhhP4LwGoLw1g+B8J6PHsKzrAybh7ASiBmiBGPtph3cdcyAXU5g5gk3bP6dH+PuYt6ikNdyauHbHIAlhKX/LUsIS0npX8wsBY6p8vtBOPPTh7AiiLUQbgpiLYzN3+ym1YK1r1MEcHMpuCmE3+mKlhCW1q8lhKWk9C9mlgLHVPmLgPDOnTuxIiz0LwjrpOG2gLhFa1/bBMC6KVj7eW1OwRLC0nqwhLCUlP7FzFLgmCq/F4QzPlUIW3YTsGsuDTcH4rdg3Iq1r1dKwO+k4DcNgndTsISw9N9jCWEpKf2LmaXAMVVmCPsThNdv+AAIx8RGYd/+Pdi0eQMWLvr4IdwUxH/NTn4XxEowbtVN029LAP7AFCwhLP0+lhCWktK/mFkKHFPlphDevmMrTp3+3CHMiVML4dZArATjVtwUvq0B+ENSsISw9PtYQlhKSv9iZilwTJW/LAhb/AXhlkDcEoxbtPa178D3AwGsAGHdylVaWo0lhKWk9C9mlgLHVPk9IZz6SUI4RAvhZkCsO1lLEcYtWPtaXfg2C+B3uqGbgbBMwdJ6soSwlJT+xcxS4Jgqf3EQZtCpA7FyMm7JTeHd9BgtAfh9UrCEsPT7WkJYSkr/YmYpcEyVvwgI79ixA8vD5hOEu/4JPF0Qtw7jtxOyst9+fWvwVQLwOxCWAJbWoyWEpaT0L2aWAsdU+QuE8Jv9mJuCWCkVN4Fx81BuBro68FUCsFIXtBoASwhLf4glhKWk9C9mlgLHVLk1CAcHz3g6ftyohyNGDDnyGUH4LxC3moqbAXKzVgJvs+m3BQBLCEv/DZYQlpLSv5hZChxT5dYgfPPmNTx9+gQTJozFJw/hYPMub0FPEcQ6MG4Wys1Y931vHVcCWPpftoSwlJT+xcxS4JgqtwbhX3+9gLy8XEwYP+bTgnB4eDh+//13nDhx4i0IM+DeBnELMG4GyKqsEr4SwNL/pCWEpaT0L2aWAsdUuTUIBwVPx/jxYzFs2KAmEM74BCEc+heEWwNxs0Buo3WPp/uZ78C3BQBLCEvrwxLCUlL6FzNLgWOq3BqER48JhK+vN4YMHvCpQ3jeWxBuC4zVQln39c3BVwJY+t+yhLCUlP7FzFLgmCq3BuE5c4IxffoUjBg++NOF8Pbt27GMIWxm8C74moVx61Bu2brHaQG+EsDS/5AlhKWk9C9mlgLHVLk1CK9ctRwbN63HqFHDPxMIa+GmC8FWYfxh1v0cNfCVAJbWtyWEpaT0L2aWAsdUuTUIHzi4D9dv/IHx40Z9ZhBuAcT6ArLu8doCXwlg6b/DEsJSUvoXM0uBY6rcGoTPXziDzKw0TJzYdInSOxCOJAjvJgivJwiHfjoQbgOQ9Wbdz23GupWntLQ+LCEsJaV/MbMUOKbKf0F4NUF4C0H4uCKEJ00c95lDWGtdaOrLup/TgnUrTmlpfVlCWEpK/2JmKXBMlVVDeFITCKd/ihCerxLCStYFamvWfb9K61aY0tL6toSwlJT+xcxS4Jgqq4XwZC2Er3zCEA4y7fwO+D4G61aU0tJ/lyWEpaT0L2aWAsdUWUDY3w/r1rcC4cmtQXjfbjGNeuHCjxvCb1VICkD8J61bQUpL/92WEJaS0r+YWQocU+WmEN62fQtOnmoOwuM/Pwi/VTkpQPLvsO7nSkv/k5YQlpLSv5hZChxTZbUQnjJ5wucN4easC1G11j2OtPTHYAlhKSn9i5mlwDFVVg3hKV8ohKWlPydLCEtJ6V/MLAWOqbKEsLT0F2QJYSkp/YuZpcAxVX4/CKdLCEtLf4qWEJaS0r+YWQocU2W1EJ46ZeIbCF+REJZWthgPb7JeWvd56X/fEsJSUvoXM0uBY6qsGsJTJYS/SAcRTGd1+x7zLAywyN4Uix3NsdjJotH8u6PZG5tjmZs1fvJyxEryKm8nLHHm12if/+t1jcd44zf/XkTPLbAzxjxzA8wxak+f2Q4hXb9DcOdv5EQ3PVpCWEpK/2JmKXBMlVVBOFNC+Isww47ht5BhS4Bc4myJVT4u2D9hBG5sWYvCezdQHhuBisTYRsdHojz6Hsoj74qfFbEPUJkUjaqkGFTGR6A8JhzlUfeEy6Lvoiz2PsriH6A8IQJliVHkaPGzNCESRfTa9D9+xbUta3ByznQcnByI3aMHY0OfHljuboslAvpNYO5A0LY1Fg0ECWn1lhCWktK/mFkKHFNlCeEv2AyvuSYdsMjORIBthYctDhBws29dJVhGoTwuEpVxD1BNriVYPstIxLPUBDxNjMHThCjUk588uIkn92+iPvIOnsbcw7OkKLxIicZzAuwLet9Let8ret+rvAy8Ks7Fq7J8NJQXoKGyEA1VxXhVXYJXD8vw6lEFXlSX4klxHh7nZaI2OxU1mUmoTo1DJUG6MjYclQTqijcuJfCnXTyPvWOGYLmbjUjTDGW+e5Xu95T+yxLCUlL6FzNLgWOqrBbC06ZNkhD+HMzdy/MtumARJcmfPO1xPjQE+dcuofT+LZTduYbyG5fwOCoc9clxArYM2bprP6Pm3CFUH9qM8rWhKPpxAvKnByJv1lSk+DsjvVd35AYORGHIFOSP7ImSMT4oG9MXVeMHon7RDLw4tg0N967gddw9vM5JweuyPLx+WEoua3RtJRoeV6Ghhh57VA7UVtBjFWggML8mSL8mWL+uLMLrCvrJAC/R4FVBNl7kpqGGAU3wr6C0nf7bWawP8BApOczaUAJZwRLCUlL6FzNLgWOqLCH8BZgnSYkxXQdTrPJ2xp2dm1ASfpPgdR+PkmLxPDOZgBuNujtXUb5mPgpmTUD5jo2opMJQceIwNHOnItnfFam9PJHR3xf5IZORPbY/kv1ckNTDEbmTR6H4x8mo2r0J2b3pNS7mKBzqj9Kpw1E1Yzzq5k3D87DpeLk2DA2/HUcDg7iqtNGUfl/XMHQrBYBfM3gfkxnINeWN8C3ToOFNgn5NP1+XaPC6KBevi+lnQRY5Ew2FOQTlVFQTkMsjbiPh9GGs9XPDQkrHIQQe3WvypVpCWEpK/2JmKXBMldVAOONdCKdICH8CDjb4BmGWXbHSwx43N65E0e2rqIgORx1B90VuhuhefhJ1F7XXf0PZlpUoDA2CZsZopPXzROao/gTgAyg7thcJAS6IczRF5iB/FK1ehqJlYcgaPQhZU8ahYOUy5AVNQIaPPUpnT4ZmaF/kDh+MdDtTZBD4NfT5pc4mqB3kjWcrQvHqj1/xKiuFgFpEYOVu6RI0VJdRCqbk+7AcDVUljd3VDF1+vigHDQzZ4hy8LqUEXcoApt/zMxudl9H4s5BgXJhNv2eJf78g0FfHRyDn8gXsGNpbdLfPNvrhix8/lhCWktK/mFkKHFPl94DwJQnhj9jB3N1MFe0C8gYXK0SvXY6CI3vx8Mwh1F+7hCc3fsfjW1dQd/sKqs9Ryp05Gpmj+yN9aE+kD+uN/FXLoVmxBEXr6X2hk5E+uAcS3CyR3NMVRctDUXvrKqpP7kfujJH0mDOSvO2R7GqBFIJ0dk935I0PRA5D2MUO6UbtCcKdUd7LFfVbV+LFg5toyE7Fq/xsvCrOwytKsy85wbLp9xeF5AL6nUD6Ijcdz3PS8Jxe/yKLGg2ZSfQzBS9z0wiw9Fg2/Z6dhpc57FQ0aNLRQPBtYAgXMIwzxU9+nrusC25SWQiaiGV0TWYbtvtiYSwhLCWlfzGzFDimyhLCn4FnkmcTfEM7fY0Ntsa46WWDaHsjxLmYIXfsMGg4wU4YgtKwYJQRXAtnTUTRvGnIHN4LGaOHIG9hCDRh05A0qDvifB0Q5UVg7dMD6QGuyODx3pmTUP3rOdTFPEDdgzsoXDIPaf7dkeRmjVRfN2QP60/pOBT500cijz6nMHgKCiaMhKafN/L7e6Ni3kzUX/0Vz9ISyUl4Sj+fJsehPi4CdZF3UXP7Gqr/uITqSz+j6txJVJ05ivK9W1G2ewvKtq9FxfY1qNi8AuXkyp30++4NKNu5HhWHdqLywA5U7d2IR6cOou6303hKqf55+HU8p8T/PD4SL5Ji8JIS/0tKxo9T4lBIDZFjU0ZjqZNFYzf1FwZjCWEpKf2LmaXAMVXWI4R3EYTXSQj/g+bUO48gssjgG+w37Yhr3b5HXC9fJPm7I9nTEXEOpkjo7oy0fj2Q6m2DjD7uKN22BvnzJyMzMACJPraIc7NArKc1knp5IMrVCvdtjBBD78kYPRzZgf2Q4m6BrEG+qPnlFJ4Q2B6ePgjNMH9k+DqhIGQSNKMHQTN5NIrXrkTmqL5IH+iHrKG9URg2BxUnj6Hil3Mop0JUcfEXlJ49icJtG5G3fhXy1ixDzrwQZBEQUwj4yT6uyOofgDR3StAejsjwdqN0bYkUO1NkOluQrZDqYIZ0ej7VmZI5PZ7mRq91p+9FjYHsAHdk9fZBVj8/aCYEIm/GFOTPDULRCkrvFy/gRewDvCT4v0iIRu39W8i/eA47h/TCYntT0W2ve20/V0sIS0npX8wsBY6p8l8QXkUQ3kwQPiYh/DGbu1HndPmOUu9/sc6kAy53+QZ3jDvjbpevEW38A4HIiwA4G2mjRyBtoD9yJo5B4bIw5EwdjqSejoh1t0IMwSzKzoTga4tESrJx3k5I6NkDKYN7IqWfO5K6WyHFxxHJ7gQ7BxPkDfBE7bmjqPv1NMpCxlOy9kV2f18UThuD0sXzUPjjTBRvWo+S/XtRuHcXCo8eQeGhgyig3zNmTUEcNQri3B0Q62iOxB5uiHVzQJyHE+LdnJDoao9EW2osmHZDkqUp0p1toOnri6KgaUiztUBytw5IM+uKVKPOSDXuhBQzdhckGnVCMr0nw8sJGZ5OSLHoigSTLkiyMUf2kAFI7+GO3AF+yB7kj9KNlJ737UT1yaOooaRd//s5PLt/Ew/vXofmt3PY3NdbLNP6EmZTSwhLSelfzCwFjqlymyF8mSCcJiH8jzuI4DuPKtCFXb/DEQ97XOr8X1ylf9/o9DXudO2EOwbf426nbxBrbSS6iBOcCKDutsibNBIlq5YgdVgfxHa3Q4yLHeJ93JA8wB/Zc6ZS4u2HZD9nJHhYIZGAluzngQRKxPz+JBdrSqROKBrqi9rNS1F/7giqN69C1bGDeEjJ9uGVi6g8dRRllHCLjhxG/pYNyKRknD64Dx2PIO7jTjB3Q2p3RyRaGSLOuCPirboh2dUSebNnIm9WMHKDZiDJg87JyghpPX1QtHQRKug4haOGIc3KHMldOiDV3EhAOMvWBJmOVuLfSQTgRGMDSsL0ObZmiDfpjGRKzkm25uIxzZjR9LnOiLchgLvbU6OhFwHbARkeDsj2d0HpvJmou3AKz6Pu4SEl4xyC8Xo/Nyz4zJc2SQhLSelfzCwFjqmy3iC89w2EF0gI682cekMICPMNvsFys874zcMOlyjxXu/WDvfMDXC9SzuEmxki2tIIkWYGuEcQDjf4DtEEvEjjDnhg+K2AkGZUf5Tt2IyKo/tQenA3indsRPbUQIKyPSVjG0rB3kju70NplVKyrSGiTNoj0dkSuVPGoyg0BKUzxqBy9kTUrF+KmvMnUEaFJI/+1jkL5yB53FDE9fVCrJczJWgHJDtbCRgm2pghyc0eKb7uyBoXiDgbU8SYEoitjZHsZodUgnRadycUTB6BkuXzURg8Fg/3bkLthdMoHNYPmc62SDLuhjQHCxTPDUaOpysyLQnCDFlKyJle3kg0NxbpOcmOkjs1PIpXL0PukL7IdKXj21sjpmtnxBgSsF0dUBA2B4l2Fog2aEePt6fztEbeqEF4uGMdXsTex/OUeFRe+QUpJw5ina8rFtgYfZYwlhCWktK/mFkKHFNlLYTXrmsLhNNSMGu2AoQ3Sgjry5x8wyj1bqHkeI0SYPSAPrhNoL3W7n9wq/N3CDfphGiTDoghIEd2+Qb3KBmHU1p8QOkwwdkGcXZmSHCxRGoPO2QN9EH5umWoIshlDw+gxEvg9TAXG22k9HHHAwJOBCXAGAJTWi9PpPk6omhJGCrPnEDe9DGUHm2R4++GwkVhyAqahFhPO9w374IIsy6IcbDEfUq4UaYGSHI0Q7onA9YeqT27o3DlMmT07YFEe1NEdWuPWAuC6NCBKFy+hM5jCFLp87L8PZE9agTSKDHXnD6Ch4d2IbufD5IsjJBA4M6fMgpVG1Yhl1Jtposzsnt4IZ27nH29ke7dnYBvi2QvD+QHTYNmSG+kU1JOJljH03WIMuyKBHcPpPT2RerYEbhr1IHOsytizLsha1BPOldn5A3vg8cXz6H+9/Oo5xnkV8+j8u41pJ8/jnX0ncOsu31WMJYQlpLSv5hZChxT5bcgvG0zTpxUgnBqEwhflhD+u80AXmrUDlcczHDdqCNudPov7hp3xtXO31D6/R73TTshotv3lPLaEdy+RyIlznhnC0RQgn1ACTjB0w2pA3oje/J4lGzbiIpjB1BxcBdyxg4iQJshzsEEia7WSPL1RO74wUj1ckACJeBUbwfkDAlA+dqlqA2/haqfTyGjlxfSnHnykx0lXTfEUJqMMutKiZtSeOdvEWPZBbHUUEgk6Kd6uyJv0ijkzZoOzY9ByOjtjSQCfIKVMWJNuyDF0wUFU8cjf1gfZPkQOAMHI8vbjY5P52JripKFc5EzsDeSXR2R7OmE4qVheHRsPyrmTkOWEyVge7K5IbLo9SXUGMgd3BtJThaIoUZAEn1+iqM1Eh1tkOzuggR7W8Q6OSB93GhkzpyKCErG0Xa2BGZqOJgbIX/6OGT39kdOX2+Ub9mI4gmjyCNRPmkYnv5yHM+TYlH54DbiKBmv8WUYfx7d1BLCUlL6FzNLgWOq3DqET/8FYScnCWHVFl3J32AeQTLU4FvM527lTl9jXifuXv4WoZRgw+i5BQTNBSYdEWr8A2ZT8p1FXmppgD96uSLW1wPhtpa42uG/uNzuP7hj3AXxvj0QadUVDwi4MZRGYwlyGZQqc6eMRXr/7kj0tEa8lx1iePkQQVAzaTiBdhDSB/VA1sie0Mwci7yQScibGkiQ9ESKjwviKammuFqhcPJQVO/ZgrrIe3iSHIfiNQuQEzgQmZRWUx0tkEKvY7DGEQyjLLrifpd2eEDnG2duQGnXBMnelCxnTkJ2/x5IdbdGsp05krn72YHOxcddQLVw3DBku9ohw9kWme4OyBs9BBlerkhxsKDPGozsMYGUuEPpPLaiZs1ilI0fhoKhAwjAVkglmKdaGiPLzRGanp5iBnWitRliTSiF8/F6eVODwBSJfj5I7NsfUfRctLUF4lwoudO1i7E0Qjwl7HgzQ6R7uSCJjpfsYoOc4GDkT5osPifPywml1Fh5evVXvEpPxvPcTFQmRCP29FGs8XPDj2adPunbNEoIS0npX8wsBY6psoSwni32ZjbpgIUE1k2O5rgc4IlbLla4RknvilkXXLYwxE1PZ0SMGIrYwP5ImjoWcdPG4Pbo/jjg54IdPZxwbeooxI8dhtj+frhNCeyPTl/husH3iCSYZQXNQMoAP6T174WU7q5IC3BDZj8fZA7qjayJo5EdMg15K5dCsyAYOVNHI7kngdnXFdGOJoh1MEUypd+swEHI7O9N77cR4EyilJk7sh+qD2xH3f3beJqagPq0RJQf3I7sYT1RsmapSLfxNpSgbUwpOTsijYAXQxCLd7REvGU38VzG4H7I8COw0+9Jll2RTAk5jeCd5WmP/JH9UTppJDSUKrM8HJE3fiTSPW2QP7gnsr2ckeZijcp921Fz5hiqFs1G+djBKPBzRTYl3TRqaKRQ+ubkmtXTF9kB3ZHT0wOFlFrTfFyp8eGHPCqPSU5WiOrWCfe6dsLl77/C71//b0QYdUG0mRGiLQi49LfICPAW4E11cUK8qSFiDDog3sqMkrkXNJTkc91skOdph8pZE/Ai+j4a8rPRUFaI56UFKI2PwsVVi7HCww7BXT7NrTAlhKWk9C9mlgLHVLltEHaQEG7OYukQpdpVHna4PWc6okcMRjglpzsWXRrHb11scdOwI+6ZEkzGjETVkcOoPLIHOeP6I7G7PaIIhLcJ1DcI3LcplV63NcRVOt4fBl/jlsE3iLQm+A0djAQCWkqAF7L6+SOjB2+UMQilm9eiZPNK5E4YjFgPC0S7WSHa3Qbxnk5I7uOLlJGDEEH/Drc1QiylQk3wdKR52yPRkeDp0A2ZQwJQfXQvai+dx+MLxxvvkpSZgpqbV5A6kADfx0uMzSZSso2nRkQ8peAkR0rcBOEEWwvE21kijdfnEjhzCMTp1FhIIujFdW2PBKPOyKTUWb5iMUonBCLH1Rbp9Ppknrhla4K8ccOR0zcAOQN7oWbfNlRNHoFCAnXhgN7QuNsigz4zi2dY21CqpgSbTI2AZDsLSuaWyB3aE6WLZyFvzFCkutkiyqgj4uh1EYZdcbvD97jRka6bOZ0vpegENwcUr12OorC5yJ8fgvzQH5Hq54sESzoepej8KeNRtigMBeNHINvdDgV9e+DZ9d/QkJ2ChpI8vK4sRgP5SX4m8u/dwLYhvRD2CU7ekhCWktK/mFkKHFPlNkHYwcFGQljBnH6XUMo8M3cGCq9fQvVvZwmIgZS83BBu3hm3u/2AGybtxcQp7kKtOXEEtb+cQvowf4JEZ4JGe0QSqGNszRBDye+uuQFumvyA6ybtcMXoe1w3aod4bw8k8FpbK0ORYhmieRMDUXX8EMpXhyJriB/BxAyxlpT8KJk+oCT+gL7vfUqjUW7WeOBihnv2Rkjs7YvSXdsIvH6UWp2Q6uOI6oM7UXtsD0qmDEXpjNGov3MNzzJS8CQpDhVH9tNr+yHV1UbMeE62txDduKnUqMigyjzVywN5P4agcs9WlAWPgcbHBRp/d6TamiPBimxjDc30iXj023mUhUxBjpsdMnj9r5kxknh8lxoHGkqy5SsXo2TsEBT28UMuHTu/px+yHCyQTp+VTrBOdeBZ19bIHtGfUn9/xJl0JoB2Raa3I5ItDRHVtQNdy67UqLBFnKUZok0MEdmto5iclmBjIcBdNGoANNQoSfdwQrqPB1IItlmDApA/bijy+vnQc37I7O4kxpw1fh54cmgbXqUnoIFS8OsqvpsT33SiGK/KC1CVEouY04fFDTE+JRBLCEtJ6V/MLAWOqbKE8AeaK2BOv6k7N+JR5F28zErF0+h7KFm7CHHu1ogw64gIguJ9w86IMzagit4Hj389i6rd65BAMLjX+Qc86PqDmLGb2suHQEwQtScYd3dBuKsD4gOHIpaSYipd68SA7mJCVaa/C9K6WxKEB6N6zwY8vnQOlXu3InOAD6U+M0SaGiDCqD0iCMAPnCkV+3shrq8PkijllR89gHJK4EndbUR6LJg6Gk8uX0D1hiXIJSjn9XRH7dE9eHr/Fp5np6M+IRplu+jYlHSzB/ahVOyPBEr3KfbmyCVoZfm4o5BSsqaXFzJdbCi5WiCDd7ZytkRmXwL9SDrH86dRf+ogqmeMQhF3MfMkLjMjJJt0Q7qLNao2rED1giDk+7pSUnaAJsAb+YHDkeFkTQnYFBkejihetpi8EFm9eyCFrwuBNoWAyWuA481NkEDXK2vqRMRZmSHOzAQxRt0I1F2osWCDFCtTpNlZEVi7k93pM52Q5OmCWPp7JIp1xXbI9nJDNj1fPHs68nwbGxJ1x/fiVVYyGiqK8Lqab7tYCjxshHFDdSmelRUgN/wG1gZ4fDIglhCWktK/mFkKHFPlNkHYzs4q9Ny50wS4uxLCHRoTMN+TN/nsCTyNvIMXZ/bjRfhNPI0KR+n6JQLCkaYdEEUQjjQzpJRmidxBvVD76zlKsHuR3NsfD4wImIadkORoQSmvF+IIoun9CZoEsXsW3XDbwhDRjrZIHTEY6aOGIoGScryZAaINvibItEO6LyXZPRtRtWsdyjb9BM3UQMQTvKJtuiGxFwFvzmQUb1+Dss3LUXl4F6pOHkRCbzdKyh2Q5O2ER5d+xpNbV1AyfyYyCNhZlFQZxOVB4/GMvsfzrDRxw4f8cQORRqkyjRJ/qjUlU0rFaZROMzzsCV5ulFbNkWZtjgxXR6TyxhvWRsjxdUPVjg148vNpPJwSiFKCVR6vP+YuafpemdQI0YwcgJqj+1E2YSgKh/dHDoE1t29P5I8dhUzfHiItp3s6oGb/DjFrO83LERpqTGQM7ovcSaORPXo4NRB6IX+Qnxgr5m5unnwVZWqIRGdbaAJHIMvTFVm+3amRQOndzZGO54I4cyPEUFLmpUxJBPrMgB6Uql2pQTEeuf6eKBw3HHW/nEVDQQ7E7RbZfA9kvt0i33qR/agSLx+WIy/iLoHY85MAsYSwlJT+xcxS4JgqtxnCu3fvxLFjRxASMuPLhnDHr8SGDpEHdqI+JQ6vbl/G022r8Pza73j6x6+UTLchd+ooxLpaItKZwNm/D0opUVaQH108T+nwONKGBSDWyRKJ/j4E4D4ElP5IJhjEEryjCLa3LTrhBp3zbYLeHcuuiLC2QEoPZ7E2OLbjf5FgZUAQtEbBmAGUUD2RP3sGCheEICNwoBhn5qVIcS7mSPJzQO5oek0vD2QNJvCbd0A4JXRN0EQ8ibyHuhuXoRnWB8nUWEi1MUZuD0eUjOqH+p9P4HlqAuoe3EJ+aAhSPB2RzEuBbM3E+KxImI7WBE0/ZLo7IsORIO7hQEmYUrCTDXIIao92b0bNnCkoHdIXeZR6s3g2t70lsnt6oWr7Rjza/BOqQ4NQ1Ks7SgP7UQPAE5oRQ5DibINkW55dbUoQdUBh4GBk9HAV49GpXi4o27gSD4/vR/XuTeBJWhk8gcuOUi1BNndoH2hCglG6ZjnKgqegmMpqQdiPYsOQZAa7kxMlZQPEklMdbZBNCTx/eG8UTQhEPr23LGwOHl/+FS8SY9FQmt/YDf2wrPH+xny/Y773cV01Xj95iNePCcTVJdBE3MYa/48/EUsIS0npX8wsBY6pcpsgbGNjEbpkyUKEhhLQgqd/0RAO6foddg/vh6oHd/DqzlU827EeLy6ew3NKjY92r0PBtDHICewNzawZKN61jQC8GeUr5qNo+hjk8Q5W2zcggZJohAUlYd7zmOCVS7AqXL0MOcETkDK0N+5YdcZVw2/xS+f/4Ox3/we3uvyAGGtjJFLKTHY0RX7INLEciLeBTCOQpPk7U4I2Qxz9O2N4X8QS/KN4Ew5Kxclutkiy7iaWDMVZUrp2NUfNtUt4np6EussXkDvAF6kEsRSrbkh3MiMo9UXt1Yt4lp6M+sQYPLzyG0p2bIVm+iTkDumHREqyiRbGSDDujDR7EzH5KsvLDbkB3sj29kA6Jfr8oX1Rs3U9SkcMQIGfp5iUxXDmJU9Ve7fj0fJ5qBjWC0X+7tD40Hu7E8AdLcTkqwRLI2QO7k9AHYhsN3vk9HBBuru92Cs6jY6jGeCHovHDULlqqdg7mpN5qp0lUm0tkOVDx9+1BY9OHkEVFeyswX0QTd/txnf/wY0O3+CBsREiDNojnl6rmTwOlTuooXDkAMrmhaBw1EDU7lqL59Q4adBk4XUJQZi7oxnCbAJuwyP6WUswfki/F/OtE1PxsrwAmXeuY0V3x496CZOEsJSU/sXMUuCYKrcRwmahEyeOQ+/ePTEzaOoXC2Huhl7DS1mO7sXL+Ci8OLEftTPG4fmVX1H380kUTh2JvBmTkEgpNdHTHmkE4yQfV6R4OCLRgZLmyCEoO7ALCb5OCDdpjwgzSmRD+qNo408EZmeCpyUi7IwQTVCK7G6Hnw3+g5Nf/7+4RcktkZJy3tQJyOrphgw/OyQ7myPOkY45ZbS4H3CEOU/wMkSSlwMyh/dBxtgRSOkXgEQnK8TydpSmHZFkY4KUQd6oT4rFCwLNk/BbyOnrg4zurshwoTTrbovCSYGoI6g8oz/+s/QU1CfH43HEXVQfPYD8aROQ5GKHRFcHJFM6zezjjYK5s5BHhSSPvltuzx7IHxCAyhUL8fjEYZSNHwoN79nsZkep0xMVG9eg9ug+VIwdjLJRA1A8qCdyfVyQRik8nYCbxjdkCHBDGTVeNMP6EdAtxPhwpm93ZA8dgAwfd2p89EQOvSd/YG9k9aAkzF32BNUMej/PdH58/Qol7c3IHdgPyfa2iDbphvBOP+BOh28RwePFDvZihjffsalo3HCULApFhn935A4OwJPrl/Ayj5cmFaGBICyWKbFL8+hnOl4X5+B1mYbgTIAup8d4nLj+IZ5UleHG7q0IszX+aO9XLCEsJaV/MbMUOKbKbYOwlVnogAF9YWZmghkzp3yxEF5gboDkpWF4tncbpeDreL5lBeqWzkP9L2dQOmcSsvp5QTN7KiKcTERX9H3zrog07ooUvx5iYwtejlNxYCcSCKIMzUhKfrkL5iOpvxfuEyjvdf0W17v8F/G9vZAQOBCXzNrhQvv/4I5ZF2SPHYmy5XMIRHZIcCAoO5iLVJwXPBVlOzchIcBd7J4VZ28surpjCdLpffyQ7ECPmXRAok1XZA3pjZrfzuFlUT5Zg2cJUWJyVd6YESJlZgV4EGz3i6VKz5LICTGUmJPxLDEadZfOixnU5fOD8PDgbtT+dlZMDHt85gglyI2omDEW+QHdUTVnOuovXUD97WsoIcjxtpOFo4cjr78/SoMno3g4NToozWqo0ZHtYYOiudORQd+3IGgiCmbS89NHi52ycn09kOPnTbB0ETemiKdrmcLj0baWSLc1IzjbiLHerO5uyOzpR++fjGoCf/X5k0jx90CcaRekerpTY8WefuelVTZIcaLGwPhxSPbqgZhuHZBAqT7JhY7DCXrdQrzITCbAcsrNw6v4SLzcvw0vd63Hyxu/oiEvo7GLmtMxd0sTfF8/r8XrF7VoePEYVQXZOEzfb7ZR+3fKzcdgCWEpKf2LmaXAMVVuE4StCMJTp07CoEEDKAlP+yIhzAlnuXU3lC2ej5cEoQaC8IurF/H03DFUb1+FbAJJZm8/xPB6X4NvcKPzV7jZ+X8Qy/fFHT1E3EUow8sRZRtXI57gk9CDwEKg0Syai/u2JvSeb3G301e4Z/AdIuzNEW5njBtmHXHduBPi3Z1E12rBrLEEX0NKeMbQDO6NNA9bFIwdhLKls1F55ihK6Nj5Sxchb/4cAnAPpLpYI9naECmU3nPGj8Cjy7/gRUayWHrDoHmRnYpHR/eg5MfpSHS0oCRqR6APxeNzh/Hop7l4tH4J6q/+hmd3rqHu1BHULJqD2mXz8eTEATz95SSe7NuCysC+KO3piaIejigd6I+a+TNRf2wvnt67gcrFc5HfzxfFfN/hOcHI9fdCDiXQ3B5OyOnuSOnVFpkE5MLli1AwbiiyPR2Rw+fqYkkJ2Q3lSxcgga55rFEHgjB9D1tzpBI4+UYOWX5eyKLkncb3H7a3FGuay9avRAala54IF+9kjtLVy1AYMkOAPDNwGDVebBHn5UbX+nvcav8NHnRtj1R3+qyRg/E0OhwN5UVig46XvHHJygWomz4WT0JDULcsDC+u/0LXTNM4MauuGnhag9fkhuf08+VjvHxRh6LUBKzv642gj/A+xRLCUlL6FzNLgWOq3CqEzxOEM5pA+MyZU7h79zZmzZ75RUI4hCrW3ZQ2q3dTCr5/By+uEJyuXETNge3I6OeJFDsTZBGEIi264G6X73CLIHzb8BvcN+6AJD8XRJi0Q6qbHYqpUs8c0Q8lm9Yia/Y0RHpY45ZBR4QbdkCkWSc8MO6CKAdrxPp7I5ISWsLoQGTPmIT8qeNRTLDMHOhDadgJuf0D6Hc/5EwagbId61AXcbdxHDcpFo9+PY3CmRORP3kccsePRuWxw6iPeYCXuRl4lZ+F12UFAsSvctLEuHDOAF8k0bml8+zgsFmU2L2R5WSKIvqMR6sW4jE1OkoomRcP9kfVrEl4tHQOaubNQOWkUch3sYLGxlC4sLsDKsePJEgfxJNdm1AeOAAV82ai9sxx1OzdQWm4JzIcrCi9OqJkzgzkDggggJqgYHgfZFGDIt3JAunWJkizMkFun14oHN4PKXQ9E8151yxPZFMiTrM2Rqq1KXL7BiCvTwByB/YR3ekpBN4MX0/kDB2AzOGDxN2Zygnumn7+SKXUHEspOsLCBPctLXCrAzV4unZAoocrpejueEiNiZeaTHFNXtL1q9+3HfVb16Fm1gxUTaTrN3ooqoLG4en1i3jJaZlnTD+uwusn5KeciB8JEL+iRKyJCccyDztqtH1c48MSwlJS+hczS4FjqtwmCPv4eM7bsX0Lbty49sVCeJ5Je/wxbyqeRN7Hq+R4PD+2C/XHD6Hm5GGk9QtAmqsN8oMnIcnbBfHONrhj1A7XOv5P465XBKhYF1NkDRuA8q3rUX70IMqP7Ea0rytumhrgWqcfcLPdV7jT4SuEd26HBFd7ZFDFX7RxDR7+cRn18TF4Gh8tuol5e8nHt68TVCPxlIDxLC1BwJUTXENFMV4VaUTafRoXgfqo+/QzEi9yM/GqMBcN5Nf0/OvSQjJDOBVP7/whlgAVhM5F7owpjbf+c7FFTNfvxYzp4uF9xTaSGg97FE8chSw6N94DOoe+Ly85yqEGg8bHAzkERw1vQRk8GdWUIB/OGI/KiSPx+MAuPFwwG2VjhyPfxx2ZdubIcLREKTUeNP4EVVtDZPJdmKwMkWFvinSeyWxpJpYP5RBM4407ItXeAiUzx4u11jzBK42f6+6MEmqYlBDos3hDEVPuIbCiho4zUrq7oHTNUpStWoH8If0pNbsha3BPZE4ag1i/APrbdMQDAnKUpTH97bzxlMD5iiD84gFd200/4eGcqeJnxaxglE4cjwJfdxT18UbF2CGoXTwbL+MfNG7i8bgar+vJzwjEBODXr56grqoY55aFYo5Jx3fK0L9pCWEpKf2LmaXAMVVuE4Q3bNjw/wwc2Hdudw+X0KCgaS/ehfBa8cbPGcKLbI1Q+NtpvComeKUkov7oftSdPorybRuRPWYIskcPQKyzKSXejkj07Y5obxv8YfBfXOvwNaWu7xHDy4bsCMRD+6DixGEUrl2IcKsuuNrh/8PFb/8vfv/v/8aN7/8HURZGSHYjCPf3Q/WFs3ieQ+mVgcmThSrLCLQljcAtzhPdp5xqXxflCgC/rirDa/opni/nn9ztnNv4Ot6CsTAHr+l9PO75mrteNel4HnUXj86fpNQ8FhkDeiN/+VJqMDjgHjUM4q2skTdyKHI8HZHlbCduoBDf5QckGnVBsnEnSq2myLAyQyZBMdvFDvm+HijwdkVJf39Uz5mGJ4f3oG75PFQO7o1ibzfkEbyzKbGmW3Sj41kSfM2RSn+bNCtjsUc0/0yjYzJQY4zaI83fWywnSrahtDx6IAoCh6Bo6jhKzc7I5DTs4QiNlzOyKQmn8q0OB/RFMp17duAgVJ85gfIVS8XYcoq1uUjD6b19EOtgjzhnB8RQIk6gc67csRovkuPw/O51PFoyC5VTR+Lh2hWoXDwPRaOGo3jyBBT09aPv5oaiAHdUDO2NJ1tWiGvX8IiXLGnTcC2l4To0UCIuTk/AKgL/x7RsSUJYSkr/YmYpcEyVGyHsSxBeSRDeRBA+2jyEmyo4ZHr9lwZhXnqy0tMeVeG30EAX6WXMA9SuCUP+yL5I83BAZoAHsvr0wP1u3yLKtAsSKKXdteqMW4bkru1xh29DaN0ND4x/QJK7LUo3rkbe4hDcpxR45fv/iyvf/V9c7/wt7juYQTMnCCmetkjmiVITh+NJXBQBmJJrdeNmEQ1vlsw0VBY1rmPVbquoXUrDG0vQY7zf8euH9J7ywkY4cxcqTyziY1WWNJrA3JCXJZJz7dnjYnZxMp17hKEB7nZsTw0KE+SOGYm8iWOQPaCXWEIU+cNXiDX4Hsn0PbnbON3WlNKpBYqnT0aejyfyeK/mAT1Ru3cbnt25jiebVqOaUn2pjzPyna2gcbIicBsj1bwrUi2pwWHRFRnuDmINMo/5pthZIMnBrnEiFiXrRLMuSKekXDxpGEqDJqJoWAByvVwaIezfAwXTKL2HhkGzcEFjN76tBQpDZ6L66EFoBvZEmpsTXXM7pAT4Ic7eGglenoi1tqS/UzeC9UDUXf8dTy6dR82GFag9sAOVi+aimCCe6+eO3J6eyB8+WKx7zqbjZNkaI4++a8XY/niZHN34N+E0/ITTcM2fafgZgTnizDGEWhu+U5b+LUsIS0npX8wsBY6psoRwG/yjWWdcXrkEdfHRaMih9HjnltjYIWugH+IdzJE1fBBV6MNwz5Bg2+lbhHdth3CCVJynCx7w/sb29JqZk+jftkjvH4Cqo4fERKr43u642eUr3CXgJI8ahvxlocifO12s+03xsEXuuGGo/uUsXhVqCKi8W1O5WK/KPxvE7k38bwZwSSN831gAuKay0fz8o6rG1MbA5hsScFquKGxMzSX5eKXJwPOfT6BiOkHYsiuixK0KO4pdvRJcbJBEYGVoRXbrJPZqTiJ45vi4QdO7ByXFQJTQ+8rGDkOxvwcKfT1RTCmeJ3TxVp4vE2Lw9MIZVE+fgEICfC41NDI58dL1SaK/SxJdn1R7viewJZIJxGnuTuJWiEkE7CS6bpm+7tD07I6i3t1RPGYI8jxtkOtkiVxK1pVbN6L80EFkjB2PeA8XxNJj8T4eqDi8D2XzZyOLb8Xo2x2aJQsRP3IEbnbthNsGnRHexYDA7ISKretQuXoJSiYMQ8nkEag5shflC2ajaOwIMUlM09cbuX16IpP+jpnUeOAEn0eNsfIxA/Ay7r64fuJvITbwqH6ThmtFGi7PTccKr49n7bCEsJSU/sXMUuCYKusPwnt3YQNBOGzB5wvhRfamKL55haCSgVdR4Xh87vT/z95bgFeVZonaz//PTHvVdHWXKy6BhLi7Q5SQEAge3CncNRDc3Qsv3DXE3d3diAFJ8AD13rU3NXPv3829Q8+le/qfPut51nNOwrHsfdjvevf+vvWJIQaS4+VJposjZVMnUTJzGlF6XYjp3oHYXp3JcHcm2dqYRItepFjrkeNtr67hWyLG3HL+Rx7evkK6jx3R+l3JGTqQuuOH1WlGKeb6ZDnYkCVGWDZ2GI3nT9MmtqrarALi1p+BqkyTURpHKBBQwHxfMd+fLVmBrzxOvd8i9qwMIlI6PimPa6jiJ2WUb02Z2pBCmXbzSrHhtERaD+ykxMGELN1uYrvdBLhab1ZLMtVXF0WI19FS591mWxhTInCrXTyXllM/0LJlLff6e1HrZs+9fm7U+fbh2alDvCrIlqJFtll+thQu4TQHLRFAi8k6WFBobUSBvQWlQ/qTZ2tKnvycI6+bbWYgdqxHSV8nKmZP5eHpY9xfG0Rlb1vKlL7VVoZUevSmZsIYGvZsp/bQAbFbVzL6OJEo2ztdrLdu01qqRg+lcvxISmTfxFlbc6trF0I6dyK0cweSjPUpGT6Apo3BVPb3pMTJnFKBfP3qIAGvF0UeLhT5uFEkJlw9azrlgYGUCsBKxNSrB3jzIGgBr/Iy3pxNULa5ui8afgaxMkjrMY/v13F59VIWGP19XBvWQFgTmnj/oTDrLRx7p1Qg7C0Q3rhpHbv+byB88L85hNWpSQ5mNIVc5lVhLi9uXeOh0g1q53aqNm0ib/R4ShYuJFdMK04MLlpAFaunrZ4ajTLsQaQAOUq3E4mmPUgR4y1ws1WbSTRfOUuyiwVxYtlFE8dx7/B+YgVE0cr6wQa9BH5m5Io5Fs2Zqg6+UuanKnBVgfroza16XwGA2K5qtmqLxTe9jd/0OVZOl/4MbOW+AupG5XqxvFZNOa+VAV2leeqgpFdKcw5lkNb3oyl1dyDboAfpYr1Kj+UMcxN12cJE3Z4k6sjvLEypXb6Eh4f30jBnOvVzZlIlxqgsQ1ilDODyceXJ4d28Sk3gJwHxT0W5vBYrbstO51l4CE1LxTbFasu8HCh2slBHQOda6JOpTEXS1yJbIFwoJvpg90YeH9pOw8I5FEkxU2yhJyZqS6WfN9UzppPZx45ES2MiuiqFTzcpYAylMHKlav507q0PJsvZmmRzI8K6d+Fmu2+506W9ujRkrpsjjYoBjxlKubKNlfnGyhSndaspG9CX4oD+FCrdvxzEugf5UR4wgKoRg6iWAqpVio4XmclvVlhSTvcrCzwo21vuq/ugWfaFwPj102ZqxJZX2Bn/2XfqvyI1ENaEJt5/KMx6C8feKf8jCF/UQPhNztXtwtFxw2gOvaXOH31647o66rZi2jiKxJLS+g+hYM5c0n29xHxN5KBvTIq9rQC4J1EGOkTr9SDGWJtEM703o559+vDgwmmab18l09+ddG9XarZuokbAHCfGnSCQSBX7TDM3IEtgUbBwNs8KlWkxDW/s9mcAK9b1WhkUpNxv/rm/sfLvAgRlpZ//T89jBRTK7xRIKNeIldPQynSc8kIBY5raJ7pNjLWtIIcnNy6p13ZzBWoZ2l1J69WVdLHfVL2eJPXqSbqJAbkudtStXyUgnEiRkx1FyqAtZblBZ1t1HnDtmBE0CmSfnT7Kq4QoXqfE8So5lpdy+zIlXh2F/CziDq0nD9Ewdyr5tiYkdf+KlG7fkiGFS4GYdNnwfrQIyJsmDadetkGhjTHFYrn1KxZRIRBWBmel6fck1cyYhF69xNB1SBeLzu7jKCDuTeGA/qSbGpJk2IsYKR4ienQnVlebPG9PykcMoGHGBHWwVbGjGSW+7pQp852DFlMiBpwvBUDZ4AAKBfJFPl5SODlSNX6MFBsT1Z7bbUrRoowyV85OqCngra6gLSaClzGhvMpNUzts3c9JZN3fySlpDYQ1oYn3Hwqz3sKxd0oNhN8xl1sbUnH7Om2pSTy/dZWmfTspVjpMiR1l+HqTM3kW5bt3keLtQZLYb5KpMUnm+ur1xzgzI+LEItN9fdRT0/nujpQNEbhcPc+juEgaTh2havVC8gZ7qev9RosVxxppk2DQnVTFmgf5cu/kUV5UlvJaOdi3/gxeJZWpMf8OYWXQVsMbM1OvE/8bgH/+WRnEVV/J63plYFYVrypLeJqWwOO4CJrOHKXp2F6e5WfTVpKvNuaomxhIgbEO2b20xIZ7kGasT3yPriTp61Lg148COZiXjhhIvsA421iPHFN9da5u2fAAiv29KBGzrJK/tXn2JJ5vDeZV6A3VituunKHt5H5eR9/hdWocbfJej7evoWyoP4k9viG5RwdSBBbZ1kbqQKyHOzZS69eHSg8pRsz0URZqKPf1pMLFhgoPZ/JtTKUgsCdNigSlmUe6kR4JPbuQJMVPfn8vMu0tSTLRIdHCgiiBsLJqVYFAumHpXOoDB1Lp5kSxsw15NiaU+HsLaIdTKs8rHdSfSoGu0uGsdKgfFaOHUTN5HE3bVksBdZaHst+e3DjLy0qBcV0NL4tku4WH8mT7Jp6sC+LZzk28PH+Ux4lhXF+9lIVGPf7se/W3Tg2ENaGJ9x8Ks97CsXdKDYTfMYNsjWmMiaQt/DatPxyQg7s7qWK7uYOGktHXk/T+AyleuYrSxQspnDxWDvgGxJvJgd/elngrgbFuNxIFzsmWAgwPVypGDaLl1jVaBcJ1B7YKoPsQZaQl5izwVaASGECilQBF7mc4WJAxdjDN8dFywC9BHWilDAL62YTV+8qp5n+73qvY7r8BWfmdcr1YOS2t/L7pHq/Fgl/VVtAacZvCUf3J7utEiosZWQP60HTlHE/zssSKs2g9fYwSV1tyxCCzLUzIcrAlUV+bFAM9AaQ5OeZG5FqbkWtrJebaizx7a0rHSGHSz11dBanQ0ZoSAVu1ux0PpoyQ4uUyL+W78jI2nJdhN1Uzfp2VwsvEaJ4e3aee5s1Relsba5NrZaTOT64Z7E3dUF/KZfsXyu8LlMFcVqZUiL1WiV02zplG1QBvinq7qCOqlTnCKdrdSdbuJp9TWx3UlefpTppYeo6vF+kWxmQqc5oFqA82rObegL6UWpmoo7SzjJQiwpnaud9TMXY4FVPHU+LnqXbjqpwuMB4yUCDdl1r5jt+bPpmmxTN4Kn/Ti6I8nqWl0HJgL83r19C8aT0PV6/k0cbVPDu+n7b4MEruXFELuT/9Xv2tUwNhTWji/YfCrLdw7J1SA+F3zJUKhMPu8PTcj9zfuIGSiRNId3Ike8Ag8idPJkUgUBK8hvJFS2g4uI+8wP6k9rEna/AAIgSsoVpdiNRVTkcbkaJMtxGra75yiZaIECo2LSfByZIoXXmMnhYRet1IsjEmXbmWKQaXYtidJAs90kb48+DOdV7eq1ZHOr9ZUu9/uSasjnyu/Z8QVgZsKdeCFRNWTkur14xr5fkC4Ngwckd4kWzeg2QrKRZMtEixE9CNHcp9MdVnAuGncVHUTBkr5mkqtmtDhrkhybpaYucGZAqAs0wMJQ1U+8wQ+8ySAiPLxpIcMc+SAb5UC6hKettTYmfCvUE+PNm9mRc3L9EWG8GLS6dou3iCV/GR6inq5zevUDdtIoWu9uQoXa88XNTFHuqmKN24TCnU70qevha5hjrkyDYqkYKg1NqYyj52YtyWYrHmFPTzJMfRkVQpGnIE4Pn2FvJaVmS6OJHq4U71tg1kuTqQLyB9cOo4zcFLaRg7ijJHO/JN9MnS01Zfp2bRXOrWCaCDllA6zJeK+bMpn/09+X3d1QUkykaPoHzQAJq2rKM1Kozm0Ls0rAmmfr48b9YM6ubOoWnFUh6uD+bx4T20hVymITmGIHvTP/te/a1TA2FNaOL9h8Kst3DsnVID4XdIZdWkDWJdTSE3eHrqKC0HD1IvB7DqbZspmPo9mX7eJFkLeILWULV2PfUrF3NfYF0uB/kEFzvu6mgR0r0jYQLhZGcntUNTnps9D87+SGtyAo1XL1A4YxKxZrqEaXcmtGdHInW6ECsml2JlJjZsRpqlIel2phTINm+OCOWVMi1GGQTUqpiwsq7tA3Xq0euqYl4rtwp4lRHRigXffzMV6WVVCc+LcnkcH07pjNEkW2uTbm9E0ZSRpIsJ54hR5gcOpGjycJqVftjpSTw8+YO62H2GAl99HXUd3kw7SzKtzMk2M1FHSGcpc3vdXchTpvAM6EeRuxOlfRwp7+9Bqa+7OrWobuRAmjcGqXNxlevPzyNu0bpwKi/OHOPVXSksou7SeuEMpWMDSTfSJl9AXDVyGA1SBChzckulKCkVKGcbCGB1BchS2BTZm1Eu71vq406+myt5Af4UBgTIZ7Ig39FWnR9c0r8viabGRMv2K1u/ikwx6KYje3hy8RyNwwZQLYVOsbk+BRYG5JoZUtDbiUKvPuQ5O5LrKkWWkxQfLs5kK9fl5bXylGUT5T0L+/ejRmy3etduyqdMonLMaDUrxo2latpU6pZJMbY2mJYjB3geeo2m9HjW9LH9L29jqYGwJjTx/kNh1ls49k75LhAu+EeH8HyxsDPTxtF87YKYzUHJ/Ty8fp26Uyep3LqVginjSLURQE6fQ+2OnTw8e4YnSXHcv/Qj6YO8iBL7DdXtIbdmxCqDhJRVe8TgGg8d5FFKIq3pydQLjDIGehGpDOTS706ClSkxApo4o17kDhlA+YyJqmEW+HpRuX41bWUlbwZpKaemFStWTjcr84LVucE/j4y+/8Z6XxTl8DQljtabF2g8sIO6HespHOFDlqc1hYG+1G5fR/5wHxLtDARWesQ7mFC+bA6tMaE8EjjWzJtBllhwqvwN2WKWpeNHUSzALhTQKisapZvoku/pQrG3KwVOipWakGdpovZ2zrOzkFtDih2sKHF3oHZyIM/Cb9OmLAEZeYeXynrMKfFyG8OjE4fFgJ3kNaUwkO3TtHIpzcsXUePnpa64pCx3WCDboNDBhlxjPfX6c23QcqpWLCfb051UKQ7SxWgzjAwoHhxAk3wniydOIkGMPcZIl3ApcnLHDuRxyHUerVhIY0A/6ocOoEJZGtHJVm2LWeDehwxbS1IMepGhtM30cifdyYF0a0MyHc3Jce9NmoFYsxRH+YP9xar9xZaHUBo4gtIxoyifNpnK6dOoXbqIhi0baJFC62nEHVpy0zkm36G5el3+7Pv1t0wNhDWhifcfCrPewrF3Sg2E3yEXGnYnZP73NJ8UAJ8/z6NjP/Doxg1aoiK4f/c25ZvXqaOb84YOo36fgDUynFb5t4a9W6hcMptcgVZiH2cSe8vB3MebBHMjSsTw7gUvp0We3yIwehB2h8ot60hxE1MW400T80r1cCRBAFYwagS5nq7kOttTsXAe1euDeJ6f/aYlpTLNSGlH2aR0yFIacjSpU5he1lfxPC+NltsXqV23lMp5U2g4sk+AJZ/Hx5G8AW4UTxkhkBpE+ZzxZPm7EW7UiRC9DoQadia9f29qtq+lNTqU1tCbVE4bL5brS8kgP/JcrMk01VenLKUZ6asDtjKk0MhROl2Jtec7WpFjakCmXg/1dLXS1EOZ95vnaEPZED91TvGL2HBe5mbwMi+LV+mJtKUm0HrxjLy2lbqecO30CbTu20nzhmAqvXtTLq9ZILDPNdAmTzFWJ3sqZ0yjZuN6AWE/smTbls6dQZpymlwgXbNpPeWjR5AuYE4UY0+SgiFJrPzh5TM8P3aA1tGDaejrTrVs1wox7BJlhar+/SkZPJC8fl6kyXZPtzQj3dGRDGv5u7yc5LXMyJHH5TnbUtCvN0Xjx8itL0V+vhQHBlI8chRl30+hcu5sapXT0zu3q2c7nivLIVYUUx15m02eDv+lbSw1ENaEJt5/KMx6C8feKTUQfodcataLtP27aL54jtaTx2iRg2vzzh3cP35M4BlK5YH9VGzZROWq5SpYq8T2CsaNpTJ4Ffc2BlM2axopzg4k2luR1a8vMQY6ZHm5Ubt+LQ2H9lI4NoCqVUtpPHuKytXLyBs+kAwfgbGLLXG63UnU70FSzy7qvNzC6dN5GHKLtuI8XlcWq4sxKAd4daqR/Py8KJvHGYncP39U4DqOssmjKPB3l8+2mHt7NpPr34c0R4GJX28Kxw1WT0WXzJpAlp8rcZbaxMjfGmupS1pfR4pnT6Zs1UIeKqeK4yJpOryf8sDBAlNr0nS1SdHpIRA2IFXAmCYGmmmoo17TzXe2I1NMMl2/J+l6PcnU7UmWgDrH3oYSpSHJtFE8XDmP54lRvFCmLIkNt0k+vnqRsqEC+iG+NB/ew6PjSueqhRSKoeYb66jXhAsdLSgbI+Y5ZyZlM6eRL2BNMdYlxVBbDNZcbntJweJE1fJlFHl7kOMmxY+1KbmzxvIw7BYv7t7g+dLZNMs2rvXpS3lvJypGDFOLhhzZRyXDBpHbWwogAX20Tk/Z9t3IsjUiU+lPvWQexcp86EN7qNu3l9zvp5Pn50+hvx/FY8dTMnkKZcrnEhuuXhlE/a7tNO3fzZOQqzyJDOH5zbOUH9vJZhdLlhp0Y5bWd3/2XftrpwbCmtDE+w+FWW/h2DulBsLvkMss9ShSrgUrEBYLfrhprToqt2HpAmrWiXFtkNy0marNGwV2QdTIbebAAErmzadWAF0r2yZZ7CnJzposgUKSwDSjjwt1e3bReO5HCkaIfQ3wUaFStWIxeaP9ibcxIlIAHKXdhbhe3YnT7kaqtQWl8+dTvWsnz4vz1QUdXpYW8DwzkUfxETQe20PJ7HFi5N7kDvCgfPkCMjzsSfNypGrvdio2B5PhZUeWjzNpfaxJdTIlxd5I0lT9XbqXPbHWOiS4mJLgYChFgzFxzuYULp/Dg4g7PJH9/CjyLg07t5Dfx4FMAWthgD8FHk7qqdxcMV5lnd9sAWaWMl9XmdokEM5QIKwM5jLSJVuAWOzjTrnA89GFH3l2+4qAOI4XiTE0nzlB9exJPNy7VW132fqjFBIDfeT1egrYrcizN1NXd6pcsYQUBbhGeqQa60mB0lUdDZ2q34sUPeWUuQnlE8bKZ5S/ydKQ4mkjeRQn5p2XzYtrF3iyZC4PZ0ymdkB/ynw8KBw2lARzUwoCZT84SaFkbaQudxjR7UuSenUkW4onZYWsXGURCB8vyqeMomTcKPLEhPNHTxAT70/RiBGUz5hB5cKFVC1YSO3ylTRs30qj7KtHN6/xJD6WRxfP82TLamqCFpA+YQQbjHuwWK/L3xTGGghrQhPvPxRmvYVj75QaCL9DBlnoce/kYVouXeDh4YM8XLuCulEBVA7yVaeslC5ZQs7kSRTLgbdy9x6qDxykaO5ccgf2I3vEEPJmzyHT34cMNzcxptHk+7gJdP2o27uHB3dvU7kuSKxzEpnebgJPX/LHjSC1tz1RetrqtKZYg57E6HUTUBiLwfpSuiJInc/7qq6attJ8mq+fp3B8AHmD+5ItBpvj05tUB1MxaUtiLXSJNNMhxcNBLNyFdIFrio0hsTa6RJnrEGWhRYJlL3U6VaxRN2KMOhFrpozO1ifBRIsY4+7qWseZI8VgTx1WjfiJWGvTod1itf4UCcSUXs/KPOFcE11KXG3IERhniR1nmSj2a0u2ibE6gEtdYtDBSl3zt8DGmIY5k3l67hgv0pN4npFC6/VLPBL4PhVbVa6j3t+3izxrE1J7tFcXcshytCFdtkG6pQWJPaUw6dKRRO2uxPfsTEKPTgJhgbUYa76DpbyHvJe3Kzn93HkcHcorKVraEmIEgutoXTybOj9vKpRBWEpbUVdXIuS5RePGkONoTqaNCbG9ZJt3+5osUx2KZB9nWpup75/t7EhRfy8KBwygaEgAxWPGUDR2HEUjh1E1bxb31q2jbnUwdWvWUL9xE83Hj/Is/C5t+bk8S0igdelCHg50o0kKr1JPFyJGBLDa0kAd/Pen37u/RmogrAlNvP9QmPUWjr1TaiD8Dhlkqc+9syd4cPgQTVs20rxrGw82rqZu6gQKnKwpGj2W3CXLSBk5huJ1mynbvo2sgMHkT5pE6apVZAwdRr4crEvnzhbbGsG9TeupW7uSh7euc//2DbJHjyBzQD9JDxIEAPFywE+W103t7UjmYF+yJHMGeJLp1YeCMaNpuHiRFxUlqgk/iQujYJSf2KwBiVa6JFjpkSgml2ClLzZtSIyVAeEC0lgLHZLtDAW42mpHrhCT7kQ6GonpmpDsZkW0PCbGWCAsAI637iXv209gLCAy7U6KizzGwUje31EsfQANx/bTGhNO880r3AteRlngEIp9PSj2cKZcYF8gtpul34McYzFfM0Ny7SypDVpK/Y5NNG7fQPXieZQO7U/T5tU8u3OVF2kJPE9P5Jm8pgLfJ7euqHOUq76fQJqeFAldvyWxu9LAowcpPSW1u5Ck1VmyI8m63UiW/Zou75mnnDIePYwyseAMZS1kZ0vKg6bRVpzDq9xMnu3ewqP1wTSIwZZYGJAlpq50zwrppU2YQRd15arKUcPUjmaR3dsT1/1rMXfl2rc+mRZG5LgKtPt6UOBmT0XgIMqGSQ4fTKlAuGzcaGqU+cNSIDUEr6Jx21buH9jP4zu31YU+lGUv29LSeLhgHvettGj2daRl7Ejuy3tmCpiDZT8prVH/9Lv3vlMDYU1o4v2Hwqy3cOydUgPhd8jlArTSs8e5f2if2tz/wcqlPNy2gbpxwyiwM1Gbb2TNmEb2nJlkTZhA1tihpHm6k9G3LyXTplMw2J8y5RTlzh1Urwmm+eIZWgXAjwQ6jdcukSoQyxZDLl+xgLzAgWQPDqBi43pqD+yl7sQR6o4epFSAVDBsCCXyHi1J8byoKlWv/zbs30Cm2G+ik4UYrx5hhgJcKRpiLHrK/c6ECVzjXG2JtjYgxs6YaAFwuJcDtx3MiPa0JcKml9hwT6ItdUjv70n6YB8ijbWIMO4hYNKSf9Mn3LQnkaYCaIF8jAA6XYy6bMl07l84ySOB5uOQG+o1zye3r9GsdLeSz1rez5OSPg5vRjOLQVaLNZeJmVaNHEzz/u20nj/Fk8uneR5+i+dJ0ZIxPI0Oo3nvdu5NHUuZUng4WqsLRiQZaZOiZK/upBvrkyuQzHG2okgKk8qZk6nfECzWvJPmk0d5dOk8jy5foEVe/1HINZ7npfOqopQXcTE83rqBptkzKLSzEsPVJ9pAjxsC8UsdPibKsBtVMyZR4uZEgo78/Z0+JblnO3mcwNpQiwIXW4o8PSlwdlZXU6oZN5ymtUFUTZ9KVeBQ+Xk09+bMpn7uPJqUfbx/r3r6+WlkpEA4gufnz/LkB7HiU4d5IAB/aK9Lc393WiaPonFVELdGBbDwbzByWgNhTWji/YfCrLdw7J1SA+F3yMUmAqlNK2kUGDYsX0bD0sXUL1/Cg+2buScmo8wfzR41iqzRIymYPIWK1SspW7mMLF9PiqZMFQseTe6gAAqmTKNyqQD80kWe5eXwOD1JIHuA9MDhFIwcSt3m9dzbupb6o4eoWrNCnQKT5d2bsiljqVw4Vyx0FIXr1vIoI41n2ak0Xz5F5fJ5FAu0MgZ6cMewK5EC1DgBa4RpJ8IFwlEC0ChjxfS6ESqAviFgvWJhyEWj7twUQN+S50SYKODWIcykGyFG3bit0547vToK1HUJN+iu3r+t35Wbuh0JFUBHK4tQOClzlofy4Lr8LRlJ6lrEL/OzeKmMdBagPo+L5GnoLVp+PE7jsoXUCOBLpWApd7KkcepIWjYG83DuJFrWL+bplTOqATefPESFwC3LzlQdgZ3jbE3ewL7UbttIzQoxbrHchrUreHztAk/DbslzbvMsPlIAHstz5bpyWiIvlLaYSl9qZQqU2O/LkgL5twRa9u2iackCSn28ybaxFvM34FLH7zj9zcdc+e4jge4n5Mj3I0u3B3Fdviaph1iwaS8ydLuqhVaZlytlUlhVeLpRM2IIDRvWULJ0EXfldbIF4PekeLm/ZJ4UaMt4GLycRwf38/TqZZ5FR/EiKYnHe/fROm8uTzYH8/zyWZqH+PDQyYTWKaN5NHcGxUP8WSWw/2vbsAbCmtDE+w+FWW/h2DulBsLvkPMFYGdnTRZrvSiWE0Td1IlUCGxrZ0yhMjCAPAcbst08yBk+nOKZs6ndtV0dPJXh148Mfz+S3XoTZ2tD2sDBVO3YSdOxwzwVMCgDnarWLSbJzZ6SMUPUU9QNP+yn6PsxxJkbEta9AxFa7cgWq6xesZh8gXjGytU8EKtrvXGWwpG+ZA3wIn/8UBJczAgViMY4GxPvKLZr0oUoM+V6rgnxYrCxVnqEyN9xXrsDP/bsyHmdztw00SbGw5EIWwMi7fS5a9CJWz2/k/yGEDlY3xYTvKvbmUhzPYGNHrfMexHn5UyUtR5xFjpkeVhTMmkILVd+pK0oh1dl+eo6yz+VyK2Y+uvqUl7mZai9oZ/s3sSDWRNpEug0DvKmztORKrHxag9bHiybw6MLp2jcsUFebyS5yvzbwMHUbFzDw4tneBJxV51b/DTsJi+un+Nlcgwvs6UQEft+fPeWGO8tnoTd5km8GGdmCs8T4+Sx8m/XLklepkHgW+7vQ76rM5kmOhT69yPWwZ4r3b7lWsdPier0GcldPiVXT0xbpxfJ8vs8K2NK+7pRYGlMuZszVT7uVHl7UD2wH3UzxX537eKAqQWTf/8RRz/6NelSrNROFaDu282TE8d5eva05CkeHzrE01M/0rpkKS1jhtMyc6KYcSjPbt+gecRAWv0cebZ+JfcWzOWYb2/mScHzp9+/95kaCGtCE+8/FGa9hWPvlO8RwvsEwhsFwov+20FYWf1mnYsVNaeO0rhxNWUeNpSNH0e5mG/l2JFqY4m83h6ULVpK8fy55I4fTcaQAIGgMYmensQ6ORLv6Uem8px1a7gnFtV67qRAI4rKoDkUTRtP05GDNJ06QtbgvmKxutzQ7snlzt8SZm5MoWznomEB5CtNIXbv4d6Fs5Qvn0qivSEJ9gYCeifi7PUIFUMNVUY3ezsQY29ChEA43sWUJA8HMvp7kCj2Gt/HmlumWlzQbselXu25LfYVYijWbCambCYmbdmNO3rfcEtM8Eb3r7mt24k7Rj0Is9An3teDWD9X7ph2J87ZjEwfJ3I87KhdvYBnWcqyfsrCENUqgF+VFfCqXGBcW8br8kJeK3OCE6PVntEvrpzm2eE9tGxazf1Fs3i0ZxPP4qJ4FBVOa/gdWu9c55FyejsxhmcJYpLxSs/um7yMCuFltGRaAi8SY3l6+Twt64KoHe5P+WBvKmaMpvnqeQHvFVr37qEpaCnVs2ZS1N+PNH0tErU6kCzWmuvvQcHQQaTaWZFiYkCadmdy9DpTJMabJoVPZq9vKbYxojpQtrengzotqjTAR+3+lenuJvt2CPGDR3HV1ZN92ias+82vWfHBrzlno0+1FFF1B/dSP3E4D4b3o3nCKFoXz+fJ/j1v2nUq07GK8mkryOPJhXM8Gu7D42E+NC1dyLWRA1nwVz4lrYGwJjTx/kNh1ls49k75PyG8ViC8TQPh/12uMO5B6aLZ1EwdI5bUnYpJoygbGUjNgvlUjRhAkasrxZMmUjhpLMkC3ThnJ0JM9EgIGETSqLHkLV5GxY4d3DvyAw1HDtN67SrPc7N4JCB+eENs7cBOKpfOJcHVhVAbc2I9XAkz1ibWxpIka3My+7iQ6WRP4dz5FK9eRdZAFxIstIm30SPerpc8rheJYtQJXg6Ey88Jvq7yWuZkBHgRZ2csQNYiwd2KkpULie9rz1Wd77is8w035aB/W78TkQKQ1CE+ZE0YRrj8fUrDjtBe7bij355bBl3EmrsT4mZD4qQRhDgKrIb4EudgqI6izh/qS8utS+pqQj/dq5As51V+Mm23TgmA8/hJjPinGoFxSR6vxYxf56TzKiuVV8op4ySx2pRYXlaX86KynCfpyTy8cobH4bd4lhTNs5hQnt+9xovbV3lx9RwvYsJVKL8QaD8+sJuG0YMo93ahWBlxLrcFw/ypWjSDpuAg6qZMkP00gRxLE9IVyzXoobbWLB8ToO6rLDcncj29ybe3VtcSLlKaqWh9SaFpF8rF0LPMjQjp8AWHPvmA3R9/yP7Pfs/F7t8Rot+DEEsrTnbuxKFvv2Pz737Dpt/8Cwc//yN7pXDaojQUkeLq0eHtAtrTPJYCS5mC9bKkUF2L+lWp3FaW8SInW6z5KPedDWka2o/iwP4s10BYE5r4/10ozHoLx94p/yIIT5kwxm5k4LDmSRPHPZ8163v1Af8oEF5m0I2cicModrOloI8VVZNHUzFxvArhukWLqBwaQOmokZRPmUi+vy/pHi6k+fuTOXkSyYHDSRrgT4GYsrLIQ2VwMA+uXOFpShKPoiNoOLaPgu8nUDx+JMWzp5M3ewqRLjYk9BOAOtoRb21MuqsjhYMGUL56LdUH95Pl76ICMMnZigQx3DSBbnIfWzL7C3ydDNSMt9cRI9Yl0qQrEeZdyRL41B7ZT+na5YRY9eJSz++4qN2eG0bdCLPRIdnbkRgBa4hRO+7qtyPKojt3jTsTYtyd8wLk07qduWTWkytGXcXs7dXHxphrkSXPq142g2cZCbyuEeDWC4jrKsSIC1UbfpWXzk/lAuiSXF4X58ptoaTAWWz5p4oiXpfKY+RL11ZfR0t2JtVixjUblvBg30ax2fk8WDCF1jVLeLw1mCdXL/Ls3DGeRYbyJDqSh8eOcG/jesoXLqBo+jRyhg0lf+QwatcEcW/hHCrGjqTQzpx8yeReHdT2mvc2rqTh0H51JLUyzajQtz/F/Twp8u0rjzWk2EqfHGdbTn/1KUG//AXLf/H/sOODf+Zc169IHOJHgsD7kpU1R7/7nKOdO7Dzq6/Z/smH/PD1p5xs/yU37Uwpls98f9d6+XwHeXL7Cs+l6HiRk0FbthQf+Vm8KivieXY2z69fpHHSSNKmTyBtsBdLZRv/6XfvfaYGwprQxPsPhVlv4dg75V8EYUtL0yVJSfECwDbmL5j9DwXheXLwOurTm6IJY8SkBlM9fSJlIwZTNWkc92bMoGHpUhqDV9O0cQ1NW9fSsGsr1euCKVs+nxTl1LSdNSkD+pMzdrTAYiY1W7fRsHMXLVcvUXdwGymD+pLm3oesAF/y5LVjBLq3jA2I6S1QFatO7d2bitlTabp6hZaoMEqnj6ZAPkeioynRZjokOZnJ823JD/Sn+Pux5A73Ir2PMQnWPUiwF8v1tqFw5kTypgYS725JuAD8hjIwS+kVPdCH5MF9iettTmJvEwF3T2IcDUkLHMBtedxFgfUF+ftP67SX/JYrlj0pWL6QbLHiOAF9uosJRYPc5G85LbYnkFVAXFfOT43Vb2CsgFdg+1Np3hsQK/eVJRkVO5b7r6rLaKup5FlNNQ/SkslfOZ/Msf0pmTCYQls9io07UeFkRMO8KfIeF3l0+TxP797kSWIcLZHhNIWE0CBZLzCpOXmSTIGp0vykdtFsGrZupGLoQHLMDUgRy8z1cKLu0C6aTh2ldtlCyqZOpHBYIIUD+1M2dDClfh6kW5lI0WLNhs8+Zvlvf8VBMeHTX/yBS2LFUbbGJMp+inB25oJ2V07p9WRX186s+fxT9nz3jRQpusT196B42Uzqj+zm4Q35vLGhPE2O4ZnkC7H+tvREXso2eVmQw7ODu6mZM52DUkAFGXb/qzfu0EBYE5p4/6Ew6y0ce6f8DyF8USBc8DOEzc0Nlxw5ovzHvcCcuTP+oSCsjFpdZa5LvvzdVVNGUrNwJqXDB1E+Yzo1YwJpmDWdx8eO0rJzoxixHw/3bqN+xUKqVy8h3a+vOuXnRvd2pPbzpjBQjHriRCrkuQ/PnKbp5GFShvYnwduDJB8PEvu6EePiRIihDnEuDiTZOZLu5k7FuvXUXbjAo9REHlw7z73t68kf0U8AbU26tzP5o/0pmjyCoiljyA/woGBgH7L7mJHqpE+KqzGZA/qIWRsSa6tLmFkPrghUL0neMNbijmkPIp2MKZXPW7hoOokBnty21uWiXgd+7PGNWHAnTvT4lhPa33LN3oC8RXOI7GMtxYUeBWMDKPBzoHrBZB5H3HgzQEux4YYqfqqt+Hfg/lRdokL5p8YayVq17ear8gLa5PZpST6PivKoi40kZd5UovycpXCwI6XnNyS1+x0pHf9ItnlPqqTAqJ06iobVC6nftVHto129YxPVJ49RceoUpdu3kN3Pg6zeLlR8P4V7i2ZQsmoFUXqdie36JVlOllSvWUzDjg3UBC2lbNYsSmbNoWD4MMrHj6Ze9m+l/C7X25s0j97E25hRpEzdcrTmUvfOhLtZkyoGHefpxi1DfW652HNXbPu4qwf79Hpxwd6CxKljKNiwgpoT+2i6cYHmu1dpjQnhcXwET5WpWMro8fQEXuak8fToEVoWzKUgoC/Bpjrq+IM//e69z9RAWBOaeP+hMOstHHun/AshbLxk8uQJ9O/vy8xZ0/6hIKyk0mIwarAPeZ42VC6YQ8mUSRSOHUv10kU07d7Fi9RkdYrOs9AbPLlzg5Zrl9SG/gViYrGWBuz6+CPOffExcd07kuXem0KfvtQHBXF/x2YqVi0hXuARJwf1FAXU8+eS0teTVB9vksWCc8eMpWzVGmpOneG+2N+j9BRaosNpOLKfWmX+q7zXg9CbPAi7TdN1setdGyibMJB8P0fy/Jzk/azIEbBl9+9NToAbKZ7WYsO9CLXqxW2B2y3JaG8nKg/vIWfeJG7bClB6fctpgeDRbl/xg+SRbp8LiL/ikhh0ysiB3DDtyl3DDqS4W5Bk1ZM8/z7U71zH89w0XikGrAC3rlJgW6QC+HWt2HFD9RsAV5fyuiiTlwLsp4VZNCdG0JQURYXYdNzsSdzydiTK04pwec/wr35D6Be/5+6nvyNDrD/TSIs0815ECFCibU2JVRZXmDGZ7FWrSF8s29HbjQjtDmSJteYNDeCYnjYbPv09Z7/8PdF6HSkZP4q6YIHk0gVSRE2lfEUQxdOmUjVvNve3bKRuxQrK+vpQLkVRjQC3dsxwCt1diHGwJX7CMDJXr5Jt5UWEmwPR44aQvnMrITNmcm3kcCKmTyQteBGFh3ZSee4496RYagq5xsOoO7QIhJvjwmmOVlanCqEtJYqXAuQW+b9UMGIQy/W7/dl37n2nBsKa0MT7D4VZb+HYO+VfDOFhw4ZgY2PFjJlT/+EgrLQWXGvQlQRLHfInTqV0xkTyArwoXrSA+9du0KZc68tMoi0hQp2b+jQhlpoli6iYOJqc3rakiJ3FiImFaLUnrPO3FA8dQtPGdTQf/4HSOZOJ9/Uitk8f4l1dyRrgT8mSxdQe3EvBzMkUip0VTZtG6aLF1KxfLe93kfuXz1N/YAe1OzdTu2sLdUcO0HThR7HkizQrc3QjQ2i+coaGDUspnzKc8uljaPzxKE1nj1EVNEvgM4/cKSOI97AiWgqLuP4uFG9ZS/ywvlw27Mg57W842f0rgfCXHO8mMO76udx+wVltgZ+XMyGWPQkzak+MeRfiTLuRbNadoiF9ab11kbbS3DdGXFOqjo5Wr/0qax1XFvK6LI+25HDaMmN5XpxNa04S9TdOUXP9RwoObyF2wTQuiWXfdjDmdpfPuP7Zr7j66Qdc+/i3JPXqRELHz4jo9DXnP/uQE1/9K/slD8vvoyaNJX7OLGKGDyXR2Y6knt+SYm3E9nbfMuiXv2D2737JyW9+T6KFAWWBAyjsrfSjNqVk9ChKJ46lXL7bVf6eVKnrA4+l1MuDigA/Kgf4UODuKsWQC4mTR5O9eycZ69bKZ91N0dkTZB89QPL2jSRuCiZtx3pyDu2i5OxRqm5dovLKWRoibnE/PkqKpxAa7t6g8foF2UfnpFi7wguBcNnqNRzwcmWuzl93epKSGghrQhPvPxRmvYVj75R/EYQtBcKzZk1n1KhA3jYwa8tWgfDS/74QVnKJTgeiXC3J8elH9Yq55A73I6GvB9UnT/E8M5nn107w+NBG2vKyaMvNEiO+TfO+ndSvWErjnt3cWx9M1YJZFPq7UzNnJg8P7ad+wzJSvNyIF/ON93InNWAgBdOmUDJtIjUrl1MphU3OwAFk9nGmaISyXOIuqpdMp3iYP4WjBpHRx540FxvS3Z3I9nGhcGBfKqVAaL4sB/qcdLWxx5PESB6e3EfL5dM8SYik6dgeiqePU0dMx7rZiNVqc82oO3ds9bht1pNLOu240LMDp7W+FhB/ybHuX7yBsED5mFjxNWt9Egb7EC4gDjfoQKR+e1Jt9Mh1MKV+5QKeRt8R0EbyMj+Vl7lJvBbgvs5L4XVJLi/y0mi9vJfHqWG05qXSJI+runqC0vM/kHt0F1GLvueknQEXzbW53P4PnPnjL7jw2Udc/PS3xOt2I67jF4R89wVnPhP4fvohOwTO6z//HYfMjLgx2I/o8SNJHj6AaMNuhJpos+Czz3D4p39i+C//mc1ffchlrS/JcLMl3VxZ8KEjeR4O5DlbUzzQh6KAfpROGU/+oP7kCRhz3OXfPJzJdnUg1dOVtAXfk7huPXmHtlEZdoPyO1covnGBnJMHyDl1mPwfD1MgRU7l3WvURt+lToy3Pi6CurBb1N68RK0URfcE0I3ymPqLJyk7fYQfZD8uEAv+azfqUFIDYU1o4v2Hwqy3cOydUoWwtxcbNq5l567/CMKWpktWr1lJkIBh1uzp/w7hlNQkDhx8A+El/80hrNjwJjl4F08eTuOudeSNH0bqAE+1l/LzhFBajm7i3qoZatOIl2XFvCzIFQhl8iI7nRdZAkTJ5+nJPL50ksd3bvIo9DZFgX3FJnWJcrATKLqRNmgQxbMmUD5HuT45g/K5sykcOZzisSNpPH2SxmMH1cUJ0sXo4gx7EqGrTbydDbGmRqS42pMjsCgbOpD6oIU8U6YBVZbQJhb6ojiX5/nyWQqyeXT7IsWj/UhzMibGQoe78jpKR6xw0x7EO5oRYaXPbaMeXOvVngtaX3Cxxzec6f41p3u245T2d9xytiTC1YYIEy0ieklhovMdSXrtyDbuTKWPA/eXzaRl33qeRd/kZVoUr/JTeFWRz8vqIh6GX6TuwGIexl/nQVY89YnhFJ/aTs6uIDL3rOeOWPsRC22Oi8me+uo3nPjjP3Pik19z+vMPiDHUIbrrt9z47mNOf/EBRz//iINffc729p9x3MWaC75uhI0dSsy4YVy00OeEXjdG/f5fBcL/L8N++wu2ynNP6os197Elws6UCGsT4ns7kuzqSLqPO2k+nkQ623PVUJeLBtpi/V0JMdUnTl4rZaAnWbu2kLJ7C6U3zlEdHUJF+E1KFRBfP0fxtdOS5ym6cILyG+epEuutCrlG1Y2LVAl8q86foOTIbgoP7SBn9yaOjhzASlsj5up2/psAWEkNhDWhifcfCrPewrF3yj+D8On/A4Strc2X7N+/h+PHjzB7zj8mhJVcbKRF1OLZNN68TPnmYPKmjqNVDspPLu6hbt10mq9f4HmiMgpWQJwhJpiTyauSAl4qK/nkpPGyvJhXZYVqq8fnAsn7R/dSNmMSuSMGkyEWnKusS7t4jtivLyXjx6iDv+qPHeXhzWs8VE4lz5kkJu1JjgAn3taYUAFomIFA3MSQZEdbcgQqVdMm0Hx0v1hn5hsIV5f+nGW0VRSrMG69epbquRPJ8nQk0d6UJDsjMURrcn37iHXbkuXvQZSZFre0vuJGj68I0e/C1V6dxJr1uOtky02THoSadidarz2J+h1J0/2WXKOOlDsY0DBpCA+3LuPJ5QO8Ks3idXMdr1vv01ZXRv152U6X93M/OYz6lEgqI66Se2wryWtnkbRhKVcCAzhg0I2DAtZDn/yCY5//mh8++a3c/ivRjnaEdfmGa1/9kQtf/YHz7b/hVKf2HJTiaJtZL3Y5OXLIpy9H+/sQrN2dBe3bMeqPH+H3i39h7B/Emq1NOdXPg8sDvLni2ZtrHi6E9vckzN2FcDdnYrzdieztxG0rMy4aG3LSyIBjOt0IczYhM3gRqXt3UKC0C424RWXkLfW2IvQa5WHXBcRnKRErLrp6Rs38C6fIloIpY89msg5sJ2VLMIeH9GOltQHLzHSY9zeE77+lBsKa0MT7D4VZb+HYO+VfBGFbgfDlyxdITIpj7rxZ/7AQVq8NO1pQcOwHKk8fI3/2VIpXLuP+mf2Ur5hE4/GDPD75A4+PHeCpbKvneTm0KQvY56SrdvyqspxXNZW8qirlRVGe2nu58dBuSmdNI3twfwrGBVKxeB612zfz4MIZdS7x0+wMngnMH8dH0STvWbtnmzqYK3/KOFIC+hJmokeSlwfZA/3UpfdqFszi/v6dtIbe4lFiDE9S4nmWnSY2LIVAeZE6IvlFST7P0hJpCblO4+HdNCodrHZuom7revL93Mh0sSTTw14MW5tQseR4MccoUx0S3OwJMelJiGF3+bkb6da6ZFv1JEcsuEAMtsROn8ohfWk+sU8+czIvlUFaj+9LPuCpALlm+2Iq9gdRF3lJbFGgdU5AtWMZcbLtQmeO4rirBTu12rG73WfsFgj/8OWHHPrsA4599xnh1pbc7PA5tzp9xc1u7bilLMCg04UzdnocdLdhm1jsJgcn1to6MEdbh/HffMOETz5iwdefsMXMkB8DR3B17jyuzZvPhXETOOXpwaXBA7kmebWvB9c93bjuaM8dZwdC3J05b23NcUsjYmcGkrpnK7nnj1Im9lsZeYeq8BtUR8r9qDuUCohzLhwn5che4sVyY7ev4/aKeewT6K6w0meZeS+WynacK0XM3xq8/2tqIKwJTbz/UJj1Fo69U/5lELa1XHIn5CZFciCf9w8MYSXnyMFsl9ho/tEDFMyYSHpAf6r3baFk+SQyAv3EREdSvnoxOVvWUHlWzOnkQcq3r+WJsqSdwE8ZxPUiK4UXBXIrZvw0LYFHCTG0xEbSEhPJ49REnmSl8Uxs+UVRLs8F4E/jI3l4aBulw33I6G1F5kBv8ufOpGDZYnKnih3PmkHFogVUz5lBvezMillTyBWY5gV4UzpyEI0bg3ksUH5ekM1zMfEXpXli49nq678ozlNPobdcv0jdllXk+LmQ3ttaIOxITn834sTcog06Ey+2mSSQjTbuQoKy5GEfG7Ltjck116JQQJhtqkV6z6/JNtGifNQAHidG03ZPio5HTbxqbeJRcRZ1109SdnwTFVcOU3x2HzkH15G6bQkxiycIEL3Z3OM7Vn/zB4I/+Q1b/vgLDnz1EQe+/AOntTsRYqzLZQHwLb0uhBhoEW5jpM5lDhnTn5Py3B0eTmywsyXY0ob1Tr0JtnNks6UFO+R5e+wsOD1pMleWLZNczsnvZ3E4cDQnR43lWN++HLG355iNJSfMjbjkYMltb1exZB8ip48jedsGcs6doPiuWG/odcrktvDGObLPHSP15CFiZd9fXDSd7f7uLLPUY4kAd5GR1n85dP80NRDWhCbefyjMegvH3ik1EP5P53csNOrBaWW07PdjSHG3J15ZsnDHSuIGOXOltwkHbHU56uXMqf5OTNPqwGpLU1K3bOK+bLMnykL2uek8unWWJ8poagHjMwHy05RYAXA8j2Lu0nr3qoBZgCzZcvWsWOp67s0YS1mAFwX9+ogFjybe05FkX18y+vUjZ/BgymfPonbubIqG+pNqI+Yq4EqxEkgqa+1OHMW9NUE0X72o9mhWpsk8kfdT+j63lReKHZfyvDCXlrAbNJ45Rv3pU5TP/558ZVqTjzMZtsYUCPhz5D1T5H6yrRFp9qZkOVqRZtiRNKMu6mCnTAFxpmEXyuSxD08f4UVVEa9bG3nVUs+DtEjuhV2k/PIPFAqIcw4Ek7F7BSlbFnFztA/7zXqyRKC76JMPmf/Bv7Dm979g26cfsq/dF1y1Neda945c6tyOG3rdCZPPEOZgRpiXDeFzxnF+fAAH+gtgbC1YZWrOZhdXNnt4sce7L6cGDuDyxPHcXLKEUNkHods3c3bBAnYPHc5uvwHs8/DmuFdf9hvq8oOJPhfdHQgbG0DCgnnEBC0ncf8uUuVvST11hJQfdhO5Yy1n505mlaMZSy10WSJFygLD7mpx9vcE3T9NDYQ1oYn3Hwqz3sKxd8q/GMIhGgj/eyoH2+VyAL47Yxy5AoA4V3PKd20gf8FYQn3NOWDciUVdv2abmzVuH33AyE8/ZYe5Bdk7tlEjG7Y1PVnMN4zHYrlPUqJpjbhOw+n91B7cQFnw9xQtHE/xqtmUrFlA0aJpFA7xJNfJioLedhS42pLh4cItrc7c1dUm0dKSbD8/SiaMo0L2TbKVIeHy+cINdUjr70umm9J72o48McXaJfOoWTKHe2uDqD9+mPuht3mSL3ZcWsCLEjFixYqVWzH21pgw7m0IUvstV4weRM2siRT59SHX05aSKSMo/n40ReMDyRNI5/S2IN/HlSIx56JBntQuncu9xd/zLD9VANxI24NaGhNCqI+9RU3kNQqObSRr7wrSdywnZulUjtnqsbr958z44++Y/sEvmPO7f2Htp//Kxi9+z97OX3NZ4Hi+y3ec6/QN18WCo7zduWtjSOQIT8Lnj+Pm3LGcGOXPGhtzFhoYiA1bs865N9sEwidHDCdGbDbh8EEitm0kdv82wnds5tyMaRzw8eSHvl5cDBjIcTNjTtiYcCGgHzdmTCJ86QKuL5jJrsE+rBDoL7XQY6kUGovFdJXVtf6egfu21EBYE5p4/6Ew6y0ce6f8iyBsb2+tgfCfpHJ9OFhAHDu8L/HKqkaD+nP/yinKVk3hupsui9t9yIgvfofdr/6FIR//gTU9exA3fy6lJ49Te/s69aE3uR8XQUtcKI1nD1C88nuylk4mZVYgseMHEjluIFHTRhH9/VhCPGy4Jfad5O9D8bgR5Pl7k+zuTo6vWLCLM6VTpqq9q9MdzIlSBlAJIOLFktNGDCPT35csDzcyHe0oDAykaPpUspWBX4vks8jOv3f1Ms1JcTzOSBYjz+FFeREvq0p5WVbIs5Q4Hh4/yP0twTQGz6f14o807dlK/TqB+M4t1K5byb2NwVStXErV4vlUzp6sXleuWDSd8ukjxfqjefmwjmcNFTTEXudxRT4t5fkUnd5L5vbFJK6byyV/dzZ2+ZZ5n37EhA9/zcTf/jOLP/0dwV/8kfXffMERQ21Odu3A0U5fcL5HB26Y63Bd6UJmq0/41KGELZ7EpdnjxEytGfjFJwS268DErj2YZ2jCUksbtnt48OP4MVyeP4/QDcFE79pM1PaNXJ0+kYvyPf4xwJ9Tnp6ckCJni7MlS2Q7LzLUYrFxT/W08py/s9PK/9nUQFgTmnj/oTDrLRx7p9RA+D2kAuI1Jj0Ic7MhPXAwLQKXijlDuGnVmRWf/4LhH/4Tvh/9lind2hOkrcUlP0/y9+yi8tIF7t29IWAKo/72WUr3rSZ92WTiF4wjbNoIro/254pA+MqUkVyZNIYjLpaccrWmcN8ucicPouT7iZTPnkvlxAlUjBxG9ZyZFChdt3qJHXf7llBTfQG2v3ymEURbm5FgbiZw1iNMpwfh+j2J1NMiSaw61ac3WfL8vOmTKReQNh4/RKvs12dZabwUG36pXDfOSORFYhTPEiJ5mhxH85ULAuCt1O3Yos5brhGrrtm8jppNa9XFEyrFtkuCl1AwPoBHyeG8qKtQrwcrJvyssYqm3FQKT+0mY8cSouaP4YBJd5Z8+Qcmy3Ya/cEvmfSvv2TZd5+x9MtPWPn1pxzS7sqhdgLjTl9y0bA75+Wz/6jXhfPeNlwa58/ZScOZZW6E0x9/j93vfo3/F58x6KuvGNquHVO0xVwtLNjm1Ycfp4zl/KypXF08lwtzprLVy5kVlgYs1OvGAp3Okh3/7k8p/9+kBsKa0MT7D4VZb+HYO+W7QTj3DYQdHRUI39JA+C05u0d7NpjriREH0HxQLHDGMEIturDlm18z9eNfMfGbr1hpYcL8Hp1YodWNmBkzKTl+jPKTP1B79zpVN86Qs3c9UYumcGfWOK5MHMbZ0QGcGhPAiXFDOTV2BNttTDio9InevIbQPhZkT55IxbSJNG1eT51inwK/4sH9STbWJd7ClCwx4Iyhg0kb4EecvRVhvbpxrcPnXOr4GRe++4Qrcv969/Zc1+pESC9too16keFoRX5fZ2pmTOLB7k0qdF/mZ/CqOI+XeZk8unWJ+vVLKRsZQJlYd9WyRTScOELdnp1UyP17O7dRs2U9eRNHkT1tDNlj/WhJjeJJZQFN8bdpjLzAk3ulVNy5QNbuYFK3LeXWpEFs7iHb8ZMPGPPBrxj1m18w9fe/IbhLRxZ+9SnBAt+dknsEyoe7teOIrhZ7rIwIFhNerN+FhZILDLoyXasdEzt/pebUrt/8nN+qv5/Zs4PAtZM8rrt67Va5nv/v13D/yv2a/55SA2FNaOL9h8Kst3DsnVID4feYc7Q7sNVVTHXrSkoFwhG2XTnY5ffM/eOvmPb5x8zs2J7J33wp97/ggpcHOTu2k7NSbPGHPRScO0L6oW2EB83hiljwj4F+/DDIl0OD+3E00J+TIwLYbm3KPmdbElYsIcTLlcyFC6nfvJHmQ/toXLOC4r4u5DnZkevmSr6POwX+XmT37a1eO05ztCFRTDFOAJ1gY0aM/HzHwpATnb7lVKfvuCLAu9O5HXHa3cj39aLAzowKeb2WXRt4mRorEM4VIEdQu20lWYP7kGzZg/whvlQELabh+EEaTp+gWFm4YMQA8qeNJ2XkIFJGDyJ/yWQepsXQmp+izgt+UpnHs4Yqik7uIW3TEuKDZ3PO35mVHT5lkoB3hAB43Ie/ZNZnHzHns49Z+MXHbO3Snh0dv2JX52/ZqdOVxT06MFegqpyB+NN9oMn/c2ogrAlNvP9QmPUWjr1T/ucgXKSB8P8uZwuI19noEznImTAva657GLJD+3OmfPgbpn7yB2Z9+RnzBS5BAr7zPj7EBw4g7+AOck8dIOPMIWJ2BHF1zhgOD+zNVicLdrjZcsCvD4cEjJvMLTgzTOA+Zzo3A/z+B3vnAVbVlbX//zeTKd9kJpmZZDIzKYK9oYIgKCI2LLF3jTX23hULCiqioCL2gmLvvffee4+9925iYkyZ+d7/fvf14OVy0IP3WoD1Ps/7gPeezvH8zlp77b2xuUUL3J40EY8XzMbdQf1xspifciBOlymJM5XL4PzXNXFGgfxwkfzYV8AHO73yYLMC2o68ObHZKxs2embDpsACWJrXE0uzZcWydP/EZgW73So6PpztC1woXgD3Q9rj510b8PPh3Xiwcj4Od2mO5YU8sSz3FzhcrwoudG6GmwNCcGtsDM6rF4G99Wtia5Wy2FGvJg52bI4r8+Lw8MAWPNq2AN8d2YKfH9zEjzev4GhMX+zs3gIbOzXC1NIB6On2MVp8/Bc0+vAPaPeP99HtXx+i26cfI8IjM4aov9vAAnnQM2d6dGdUa3LdxdYsEBaJXC8yy4RjluwiCO9TEI5VEI5WEO6VpiFMc07Yft5ZMbFkAGb758GoTP9Gv4/+gpjMGRCXKwfGKhh2+pcC8r8+wRIVkX6jIHxq4RQcnBiNzVE9Mb9dfYwsVxgh3jkQki8PBhbKh6EB3hiYOzdm1KyFedUqY3KxIogtmB+H2rXBzR6dcLl+NRzJnwena1XDmRqV1M+quBbeCxc6ttIDeBysUh4bPBRov/gEKzJ+jrXZM2J5hn9jbc5M2FiwAFb6+mKB+nxdxk+x5fMPseezD3DKOxPudmmKH7euweOta3F2VCQWli6I8dk+xfSMH2Glx6fYHZAdJ2uXxYmmNXFARexbq5XB2tJFsKqoH7bXrYiLM8bh3qrpeLxxGp5ePYmf7l7Hnf07sKFdAyxSEfD8+hUxpmxR3S7bp6C37Rpm+Qxdsn6u/AWCFXS7qYg32CM9OqfSdto3aYGwSOR6kVkmHLNkG4QrKAhHKQiPsAbhswrCCUfMEgg7moU93VVUHKYeeuMK5MawDJ9iWgFfTPPyxsIK5TEyX1Z0+vv7mFTQB0fGDMWRSSOwLbo3lvdsi3ltGmBQkD+aZMuEegrcbXNkQe8cGdEj/WcqMsyBUWo74woHICZvHkwuXAhH1d/hdOUS2O+TDee6dcXVkcNxbWQMrqu3qjuzp+D2rEk4H9ETm4p6Y2nODJj9+d8w698fYuY/P8DcTz/EimwZsNHfHzurVMU2n1zY4vZX7Pjn73As+0e43qAcvl0yCzfnTcXWxjUwq6gvhmX/DAtKFMKKoIJYX8QbOysHYUeF4tilIvbNlUphZXF/LAvwwkb1+ckBwbgR1xff7lyC+6cO4ererdg2vD8GFvZGL89MCPHKjO65M+kMQldlAe3rtUBYJHK9yCwTjlmyQPg1mzDuoaK4Xgowo0sEIDKjG0Zly4zRGT5ByMcfYHLRAtgV0Qt7hoVjboemCAnwR2efvKj7xWco9P77KPrx31HN7VO0zJIeTT79CD0zp8dwBd7YCqUQW6wgJhcqgAXFi2BfhaLY4e+FA5XK4uLggQp8o3Fn3jTcXzEPD5Rvz47DuUGhONiuMebmzoBpX/wdcf/4M2Z8/jGWZkmH9bmzYHfJIOwrVRi7PdJh92f/i6NZP8KVGiVxrXMLFXE3xxJWF1cuj+lfBmHV13WxpV1LrFAR79rC+bC5ZEFsKVcc60sVwcrA/FjmmwsrAjyxr21tXJg0AKeXTMOUVl8jIqgAQv08pD33LVkgLBK5XmSWCccsWSD8hmyLjDOiWw53RPh4YLxnTozL54V1CmTb+4Rgbe/uGFy6FBp/8Tmqf/Q3lPjD7+D33m8R8OGfUUGBsmmmz9Ax8+fonO4TdHf/DL0zuSHa2xMzigViekE/zA30w/z8+bBIRcmHWjTEmT7dcXl4OG5NH4N7syfgVuxQBedQfNO7A/a3aY41hfJjftYvsCJPFuytVAy7/D2xv1xpfNOuBXZ4ueOgT2acKuSBa+0a4qpaZ3uNspiS3xuzKpTBonp1sb5lC2xr3xrLAn2xVAF3TWEfrFWR8aqi/liaPy8WqHNcXMQHG9vWx7wOTfTIUm9ytiCxuQXCIpHrRWaZcMySBcJvwcEqCuyRMz3C8mbDtNrVML9OPYwrWRJd3D9Hs4//hhrv/x4lf/MbFP7D71HxXx+jeY5M6FfQGzFFfRGtosgYn5wYpn5OKJYfM0oUwiSf3JiSNzem5cmJWZ4eWOCdCxurV8KxXh1xPqYfro4djEtD++HckH44G608JBzfhIfgeL/uOBEWjDO92uNk82o41bQ6LkX3x8k2tXE7dghuDeqJa3074lJkKHbVKI/ZBbwxu3xJrGzVHFu7BWNn965YRPj75caSgp5YVdgbq0sGYEmBvJitwDy2mB/6+uVEz7xZBb7viAXCIpHrRWaZcMySXwbhxQrCpxWEOwiEXW+dqlbRIQeK6Js3B7p/8Qla/f3PaPCXP6LK736H+v/+F3rky4OY0oUxqVIpzKpcGnOrlMKCauUxt0ZFTC1THON9PTCjUD4sK11URcF5sUgBcWF+LywoUgj7urbFNwN74WivDtjVuKb2gTb1cahTU+xsWhPbGlfDbvXzcLu6OBXSHJeH9cHV6FBcHxWOh2sX4LvNK3Bn7CBciOyLnZW+xAbltU0bYq2K3rd264qtndpjVoAP5gX4Yq53TizxzoHVKjJe4psT032yoXcqHvQipVogLBK5XmSWCccs+RUhfEog7GKzoprVwJ2Vu2fPiNYqIg7PmwdTqlbEwq9rYFndylhaoyyWVFNWMJ7u74XhWdwxJEdWLKpbF9tUVLqlUW2sUhFrTM6MmO2fD6srlsX2hrWxr20j7GrzNbY2/wqbGlTBxvqVsKRiYSxVXlMzSMG4Ag51rouz/dvjxoRoXB8djgcLJ+Lx9jW4t2w+dlYsjS3F/LG9RiVsbVIf61o0wbZunbClS0dMzu+JmSoyn6O8VL0ArAzwwvxATwzO76EjfsfzFL9dC4RFIteLzDLhmCW7FMLDhguEXWFGj52yfIHeebNhVoPqWKEi2DWNamFlleJYqYC4umoFrAgqgIUFFPQqVcSC4kWxsWUrbOvcCSvq1ESsrxdWVSyJRf6+WFGiKLbXroTtTethc8v6WNuwulq2DpbX/xIrG5XH6kYVsalZFexuXRPHe7XAxeH9cWXsANyYMgK3J4/E5YFh2FO2GHaUCsS+BrWwp35VtXw9bOvYApvbtcIkFYlP8siIOV7qZaCgJ2bny4G+uTMg2EMA/C5aICwSuV5klgnHLNmA8JDoKIweMwJzXxXCE+OeQThMIOwqE8YhXlkQ6pMd0cV8MTuIba15sKpCJexs+jW2V/4SG4oWxIrA/FhTJgg7G9XD2mrlMEFFoOtL+mOFvx+WFiuKRWqZOQW8sbBSWezs3xPr2jTAqqbVsLpZNaxtXA2bVYS8p0tj7OvcBAc7NcbRkI441qUN9pcvjsNlg7A70A87iubD/kqlcLBOeexq2xDb2jfHlnatMSN/LsQq4E7ySI/RQf4I5UQHJucifjcsEBaJXC8yy4RjlmwJwqcVhDsIhN+eFYw5WEXPXOnRJ08WzCr/JdZUroQt1SpgpwLrpgrlsbZ0CRzs2R37unbAmmJ+2B6UHxsCC2J54UDE5fbAqMzuGOXnicXt22Jh0wZY06Y21rasii3tG2BzM/WzeW3MLlkU033yYL53XqzxyY1tRXyxRUXjW/1yY2egJ/YUz4+jTWphm4qsd7RqiHXNGiIub070986Ongr83XJJG/C7boGwSOR6kVkmHLNk6xBuIxB+F0zI9cydCWGeWTGiSAEsV0BeWaakioSLYnWpwthQvSwOdm2Pg/WqYUuQ+rfyDM/smOaVB3H58mJi8SIYUcAH06qV0W3NC2pXxrRyQRjhlRvRGb/ABAXrmdkyYrWKvperfazM5o6NubNgp2927AvMi5Mt6mJb1SCsqlsJA/zzoIeCr/T5TTkWCItErheZZcIxS7YM4fYC4XfKXbK79q7a2wAAgABJREFUoZuKjnvnyYwon1yY4ZsXy74sgTVVK2KV8tbq5bBOQXpr7VpYGVQI83w8MC13Nkzz9cT4vNkRV6IQxgb5Y3jh/OjjkQURWdwxzc8D8z09sDwwEKv9fRWEc2BlzkzY5pcH+/LnxAGfLDhUuyKmVy6BvvlyCHxToAXCIpHrRWaZcMySrUK4fQIInxUIv0vumsMdIR4ZMDC/J6YULoJp/gUxq1AAZgXmV797Y35APsz2y61A7Yl5CshTArwwNE82ROTIjHaf/wvN/vYhwr74lwK0F6Zmy4S5eTyxuXRJ7KtcHkfqVMeegt444JcLO70zY9aXhRDqnU3SzinUAmGRyPUis0w4ZsnWIdxaIPyum5EpJ6aP8s+r22qn+/tgcgH1e0AA5larisklgjAifwGEZ8qAjh9/hK/f/yNq//491P/de2jzv+9h4D/+jPFffIQFuTJiq4qQD5UuhHMNquFoCX9sV+CeVMgLoTLqVYq2QFgkcr3ILBOOWbJlCLcTCKcMPyvi6p07E0YWD0Ccfz6MyJEF473yYFwuDwxM74auf/8rmv9Bwfe3v0G93/wPGip3+P1vMerTv2N7oA92KG8u4I3D5YNwomZFbFX/HpIvB3rkyiAATuEWCItErheZZcIxS7YK4XYC4ZRlwpLVyr1VZDyiYD6Mz5UdU7K6Y/hHf8Ggv/wRQ//8O0T/+Y+IUtFwmAJwlPp9g2cOrPPLiWn//BBz//Uh1uTKgqX+nohQD24ZeCN1WCAsErleZJYJxyxZIJzKTRh398iAMPVzWqZ/YU22TNiaNQO2pfsHtnz2T6z/7COs+PcHWP3pX3E8tzs25s2IaZ98gEnq+37Z0iFEwVf6/aYeC4RFIteLzDLhmCVbh3ArgXBKNkEa5pEeswP9sMszG/Zm/hS70v8Dm9P9BZvcP8A+FTXvy/U5huXNgl5q2R7ZvhD4pkILhEUi14vMMuGYJVuGcFuBcIo3o+KeuTKgr4puR+TJiNGemTDIKzP6cRAQ9VmfHJzhSdp8U7MFwiKR60VmmXDMkq1CuG3bli+D8HgF4SEKwiEC4XfcjHCD2WasgMuKaim2SjsWCItErheZZcIxS34O4UgF4eEKwrNeDOH1CsJnBMJicYq0QFgkcr3ILBOOWfLLILxg4TwcO3YEbdq0EAiLxSndAmGRyPUis0w4ZskvgzBnKFy1agVatmwqEBaLU7oFwiKR60VmmXDMkl8G4eihgzBu3Bg0a9pIICwWp3QLhEUi14vMMuGYJb8MwsHBXdCmTSs0bFhfICwWp3QLhEUi14vMMuGYJb8Mws2bN0HFiuVRv35tgbBYnNItEBaJXC8yy4RjlvwyCNesWQ1583qiTu2adhA+Yw7hmGFDECoQFovfWQuERSLXi8wy4ZglE8IVFYQHD1EQHj0cc+YmhHCXLh3RokUzfN2g7jMIrzeB8EEF4YkCYbH4XbdAWCRyvcgsE45Zsj2ER5lAeOXKZbh69TJat2ouEBaLU7oFwiKR60VmmXDMkl8G4ZEjYzB16iQ0qF/nqUBYLE7hFgiLRK4XmWXCMUt+GYR79e6xPLhLp3ZRUVHZBcJicQq3QFgkcr3ILBOOWfLLIBweHtrt/xkSCDtnjtHcI29WhAXkRe8CudHVI73tO/V5sHo4hhbIg76FfdGvqB/6FPJGiG9OdHHxPL4cK9q2n3x6H8G5MiZaJqU4yespTtICYZHI9SKzTDhmyQJhJ0xA9vL1QHix/Ogf5B/v8GIF0K+IL0L9PdHdM0v8BAkExtT2LXBw2SJsnjRew5bfdcuTCSO+qoTt0yfh/J5duHzkEI6uWYnF/UMRki9nov06494KwJvjxuHsru04smYFBpYu7HLQvykndT0dlxM/t0BYJHK9yCwTjlnyK0L4pEBYOcQnhwbljdMn8eD6Ne37167g5tnTuLB/D3bNnYHJbZuhd/7cGg6hBT2xZ/5s/PDwAe5cOI9xjb5SAM6sIX5i41o8+fYRfvnpKZ589y0eXLuKDeNGqnVzJdqvM+4b6INTWzfh5ydP9LEOrVomxUaQptczd6ZEy4mfWyAsErleZJYJxyz5FSC8RiD8zIyCVw8fgh8VNHlMv6hj+emH7/Hzj0/w68/q9yc/4Pb5c5jVvaOK2rKhp4L2ovDeKtI9qCJdRqGBOgoeVacKHty4hv+qc/r21k3snDUV68eNwOh61TWkHffrjJmGPrNjmzq+n/Ho1g3EVCubNITfVFT5ivsxu55JRvWvuI/UZoGwSOR6kVkmHLNkgbATtocwAXx+727smDFFp5LvX7msoPorfnn6FIdXLUefgLzomisD+hf3x/CaFRFduTR6emfX25jZtR2+v38Pv6ptnFLXk/CNLFNEp1sZQev2Yv88OsXNdDd/Mq0crLbneEz21m2m3tnQR0W//YsX0ACOLFMUp7dvMYUwt8fj4fLhavmIEgE6Sg8r6KVfBsxSvVyXbbK6jfnZOcZ/59D+3M3Tto2X7ket190rq16H6zpab0u9vHA79teT52rA9qX7MDmXtGCBsEjkepFZJhyzZIGwE7aHML125FANyYigglg2qD+ePHqE//z6C87v36PB2csvF1bGROl08JHVyzGidmXEtWyIExvXaVj/97//wXd37+DCvj3Ys2C2hhoj6JF1qmLHzKm4qK7z7QvncOHAXmybGqfgU0GDzfG4aJ3+9vfEnJAu+Gbzetw6expndm3Xbafn9+3WwLeHMD2gVCF9fCe3bcLNM6dx/+plXD1xFPsWzkVs03oJIGfsg5DbPW8WzuzchkMrlmjIE75cjse/bepEDf3DK5fqfXVXx/uy/fCFI7ZZfRxbtwpnd+9IZF47ptHDCnomuJ78jPB9lXNJKxYIi0SuF5llwjFLFgg74YQQ/g7rx45AlILQoPJBOp3Mz57+8D32zJupgcgobP+SBXj6+Ds8vHEN0zq1wu65M/Ho5g0NYJ7Xz+rB992d2zi3ZxcGlAxAbJO6ulDrR7XOD48e4vG9uxru3CfbnYfVKG8aETPKntsrGPcuX9TApbn+9w/u46cnT9S+/psAwoy2R9WthmvfHMf3Dx/oyPyxMlPqPAceA4vHHPdFEO5W58fj+e7ubcwL6672nU0vN6puVdy7ckmn53msEep8dPr9Jfth2y5T+Hxx4LV4rKDA82f0/h9lbpPZgr7qxcb+eo5r+JU+j1c9l7RggbBI5HqRWSYcs+RkQ3idgvBpUwiPUxAerCDcM01C+D/qQXXv8iUFm724de6MLQr+5WfcPH0Sk9s21VXSTNseXL4EPz+1gTauVWPlRtgxYzKefv9YQ4ZR6uKIMExu10xFc4EqglymIUYIMdU9q1tH7JwzXS/Pz7ZMitWFXwmOTUV4TL0yOv1VHQMBfEn9jbZNi8O5vbv09tRFTABhHdUW8sb6McOxdcpELOzXS0OcUSyLxQjw5YMjElVrd/fKgumd2+gIni8QjHj7BHrra7NqWJS+NoQkX1B65c9laT8rh0ZiuHq5mN2jMxb2DcGKIQNxXh03z4Np/5NbN6oXlEJ6O/bXc1zjOrowy8o+zM7F/vpxGzplncqiZYGwSOR6kVkmHLPk5xAeqCA8TEF4pkDYqh0Ls1hxzEpdRluEMv99YOnC+DSpI4THN66ro+MZXdvqaI3Ls9qXXZyYLmU75z22LasH4MMb13V0OKZBTczp2RnfqvUJWKZn2U5qf1yE6rAaFXS19v+pdZmKZVTKaDymejlcPX4E/1XHl6BNWMGGLwrsssTjHVWnKia1boIdM6do4LPgbPv0ybqN135fBBWBSMjzpeOuiry5j4gSBXFmx1ZdoMYq7NH1q9v6JFvYD19KCFGm4rk/vqjcuXDO9lJz5pROVTOt7Xg9DQhb2YfpueR01/2Neew8J5rNCyH5cqSaNmSBsEjkepFZJhyz5FeD8GmBMJ2wMOupAuJ23Qd374I5uHbimG7nJZQPKVD0KeRjCg1GY1PaN9dpZqZLd86ermHJtO34JvX0ctSv6lyZtibQHt28rrb9owbcjVMndNRrf1wsPJrY/GsdnXI99glmmzS/YzvtIRWt8tjsIUxojWlQQ6fHGb3fv3pFp325f1Zt2x9bouvg54G1o2J0+t2IMie1aYqHz47z6NqV6McXhWdwtLofHldU2WI4vmGtjt4f3bqpq6HZts5tmV1PQjg5+3D8e64aNkinwY0uZ9e/Oa4i/dbo4ZU10XmnRAuERSLXi8wy4ZglJx/C6wTChh0Ls9awMEtFsYziWPzzUEGTx8podoiKalnE5AiNpCGsQNrCBlJu4yd1jpcPH9Rtxef27LR5907sXzJfg9X+uLguo8fH9+7oFDcLl4xo2WiXZurYgDDbUNmWzaiakSKBx5cIFlqd2rZJL5sUuGij/ZcRN8/t7K4dupsVr8n3D+5hXmg3Hdkz0rS6Hx4nj5mFZAQ7+1Azeu1X5PmAHGYQJoCt7sPxXAj3daNjNLTZdk4zAp8V3F5Xqjued0q0QFgkcr3ILBOOWXLyIFxMIGzvRBAeMUSP2hSqADKuUW08unFdH+u3t29hdP0aOhp1hEZSEGYUGFO1jB60gw9AAo5QZtUv09XscsMokelSxwIj/nvEV5V15Mx0NEHCbXFwkUHli+v21f8wsn4GYaZ92T797Z1bulsVo0cWNrHAbN2Y4TrCTQpc2gqKBObhVct0Sv2J+luwKIq/Xz95AlHlimsAs5Lbyn52zZmuU8HzenfTaXi2AxOqTHPzWJkl6JrT1jUq8fXMYWkfZufC7cZUK4cZXdpiVo9O2tM6tdZpbfuuVynZAmGRyPUis0w4ZsnJgnAxgXACJ0hHKxCc3LJRRcPRuhjo4sH9Gh5MfxJEkV8WNi0kSgrC3H7fIvl09yKmup9+/z32LpqLKW2b6q5JcS0b6bTveEZ/XlkSHBcjRbZrXjp8QLf9crssmFocEYo982fpqJLX0IAwq5lZPMaom8szBTtJgYxFYJcOHdDRtOOxOZpwnNuzizqPexr8bK9mJLplcmx82yvbca3sh+l8FqZdO3Fcg5SFXVunTMC0Di11hM+K8fCi+fXoX2bX08o+zM7F6JPNqJfno+2V1QZgaRMWCItESYjMMuGYJQuEnbBjYRZBrKuBFXz4OyNBFiqx2plwSBS5qWj5RRAmtAidG6e+AbsVsaCIy7FtlJC5e/G8TvWyO5LjsXHyB0Jad39ikdiPT3R6lftlERhfDjSEq5bV7agsArt24qiOkNnWzOU4ehfX18VM6iXADFyGjVTz1eNH9bZ5PdgmHNu0ro4wuQyjeyv7YURNELP6W/+9FQD44sBz53mz+pzRav+ggomuJwf5sLKPF51LarZAWCRyvcgsE45ZcrIgXKRIQJIQnqAgPDRmMHqHph0Im40d/eD6Vd03l+23+xbPxxQV0XHwiS45bKNHsZsQ08NXjh7GqNpV0NMnOyY0q6fhdfvcWd2VxxgvmpEZh2YcryK/g8sX6yEwCRJCmCNyHVu/GmO/rhUPOXsTiuFF/bB21FDcUJE407o3Tp3U+2fx0Y3T3+hIeXD5IA1HngurrvkZ4ck0OFPAC/r01NEz21XZ9/lFY1nzu3VjhmlI8hqwAIwpePvKYiv7YXsyK5m5nefX9bmZ6p7WsaU+P8fryUjWyj5edi6p1QJhkcj1IrNMOGbJGsIVK2DQYBuEZ895BQgfSKMQTmoWJQ6lyAIiFhcxVWxAiO2YjL44hCQBomdYUttg+lNvQ33O4Sjtxz/muoQso2i2Bw+rXk4P0MGRqZiOtZ+lydH6+Pxy6fZVpp35ky8CxjGz/Tr42YQHGvgqomYam9sfUqGkPgd+xokSmP51PDZH6y4+CmwcJpLn0ifAO9G41Fb2w+tGcxsJrusz89i5PNPEia5nDlv/3pft42XnklotEBaJXC8yy4RjlmwP4ZGjXgph/7CVK5fjyJFDAuG3YQUXY4jJpMBrZi5rdZ34ZV8zoN7Eft7EPlKaBcIiketFZplwzJKTBeHAQP+wuLgJmDNnFoK7dRYIi8UpzAJhkcj1IrNMOGbJyYJwQED+sMjICPVhX3QN7iQQFotTmAXCIpHrRWaZcMySkw3hTp06oEGDeujStaNAWCxOYRYIi0SuF5llwjFLTh6E/X3DateuCV9fH3Tq3F4gLE5kxzmE9XjRJsuJ344FwiKR60VmmXDMkpMFYX8F4ZYtmqkVyqNzlw5pHsKO1dGsCuaMRo6FQLpqWIHJqPbl8uzH67jc67CuFlb7sVKU5QrzPDl+NserPrJmhR5tytnzdLzO9lXSHAqUo2TpOYxN1nWV3/R1fF0WCItErheZZcIxS042hCdPnoj58+dKYVb2xP2E2c93w/iRiaYWZGTIMZDZz5fLcfAN9lllH2HHbbrSrAwmpNidiV1+XjeoaHab4ljVHKiEk01wFiPHbkrJteN1pjm+M0ci44hiSyP7YUDpQKf3k5TfxnV8XRYIi0SuF5llwjFLThaEg4KKhC1ZshCXL1+ULkrZE46YRXFkqstHDupxnY2IidFT5JdFNDA4khTF0Z9WRA9Mej5bF5l9aLdOnYgrx448G7UrR6JlXG2moc/s2KaHh0wwVaLJslbtODIZ5xXm6GL8SXMUrX2L5ul+z6aRqtlnyfDbuI6vywJhkcj1IrNMOGbJyYLwmKFDMxQuHBBVtGihMV26dvhVIJwQwurI9GQNE5o3iB/FSk9636k1HitQGIqHsC8h7KbbTZnG5ehSHOiDIGM0rQfSsAOIMfgG21o5KAaHaAwL8NKDT+jUbEBePdQlQWRMRnDz7Gm1v2+xWf19osoW1etyliUNqxy2sZI5opfedxAHGfHVx+I4KYSZuQ3OjsQokal2HjejxdPbt5hA2Pp5OjrhlJE/4fy+3Xre5YvqvuMwlBzWkiOJTe3QUl9vHjvX4XGxiYAvRbw+jGLjz53bTnD+foh4luJmNM/1ORiIpevoxLm9aQuERSLXi8wy4ZglJwvC9uoa3OlHgbBDhKYeWPx93djhtjlvs9uiqJ0zp+pxnzmpAZczIMz1OVoWZzzaNn2Shsvtc2dwZuc2bJo4FmPq19CTCBgPcW5zZUwUjm9Yg43jR2m4H1i6UEXZx3WqlmMuc2KH3mq5YTUqYP/i+XoKREboHLrxwv49OLpmBUbUqqjHi+a2R9apih3q+Ai02xfO4cKBvdg2NU5PEsFZjxzP2TDhw3ObE9JFp4Q5B++ZXdt12p3nwQg1fqpEjwzJOk9HO85WtXbkUD0a1pBKpfS14AQX/HyVuja9C+TWI4vxOp3ctgk3z5zWM1BdPXEU+xbO1VNM8sXBNrdxZj3DEs+fGYy7ly6q5U/pdPrK6EgN7+E1K77kOtomfHjVc3vTFgiLRK4XmWXCMUt2EYT3PoPwIAXhHmkSwgTwrbNn8FTBlkVJjE4ZubIwiWMVcwIGjnnMSM6AMKNYjgt9+cghPH1sm/uWkxYQ2FyGYNQT1T+Lqo25gPVkBvfv6XGqOSmD3r8CPOfK5RjK3CZnL+J40baH53/1cTFty7S4beKIHHo2Iu6b++ScvZwg4cmjR3p7BA2HfEwqIuYQkHN7Besxoo20MLfB4+G5cp/Pp0rMmqzzdLT9debyywcPiI90d8yYogHJmZY47jazAQQrr/X3Dx/oySp4rZi+5jXgMYz4qpLeF5sJ+LfisbANW08Qoczl+TIyolYlXWT2suvozLm9aQuERSLXi8wy4Zgl2yBcXkF4gIJwjILwDIGwVSeI0NSDl1Epf+dDe1S9arrNlylSPXORgtNudXGZ0uTDeeXQgTp1q+fgVQ87RnME35ZJsTqdS2hwJqZT2zfrtk5GUvazMLF9malvTuzAaf7uXDyvI7UfFHhWDBmAqe1b4MCyhRouXJ4R46Lw3pjepa3aXn6dNj28kvu2QYMw43R/O+dM1ylefsZjcSwy01bHwrQtoz3CnwC+pGDDyRTO7d2lt6n+SPEQZqo3OefpuD/H67xh/Ci93emdW+sit/+o8yZs54d118VuTBWvHzNcTym5sF8v/bLAfXHffFHg7FJ8oYltWl9dw5t6fUbAXJYTP3D7ywf11yllRs4vvY5OnNubtkBYJHK9yCwTjlmyQNgJ28OBURSrdDlrz5NnD/qIkgHYPn2Sji4ZKfEzwoIQXjUsCqMVqJkqZZvmvSuXMaJ2ZV1JPbTKl7h67IiGw8Mb13RExvZJewgTlJvUNeekDGzLZMTGz+jNE8fqCHyZAgn3RXARSoQKo1K2gzKVy33y4cqXhlndO2JMg5oaQt+qlwbClTMPcR3H82YbL9PdrFLmsfMcRtWtqtPTMdXL4erxI/qFgBBmNM0K6eScp+P+7K+z8fLBKSJ5zTld4S9PFfwO7EO02h7X50QOPH/ud1SdqpjUuomelUlPY6gi1O3TJytQ+2B0/eo6vczj4ssLl4ltVk+/HPFceJ48zhddR06b6My5vWkLhEUi14vMMuGYJQuEnbA9HL69c0tFZm1wSl0PPqxPbFyrIFtdT1HI6IuQXNCnh0518oG+ZmQ0pnVqhe/u3tYgObtrh46quF1GaYyqGV0xgp4Z3EE/9O0hTJhzfyxEYpvj3F5ddfr16fff6wiQRVas5OW+eXw8Th4vt8/U6Pgm9XSETv2q9s/CJnYpeqReIhi9cR7eG6dO6IjX8bxZkDSx+dc6Lct1mdI1jp3pYE5hSDASwmwrndiCy1o/T8f9Oba98/z5O8H5SEWyvOZxrRvrtl4CeEyDGtjNOTlPn9Rdme5duaTPlQA35mwOU5DlcbCqmkVz/1GwYTqZ7cJsIyY0eZ6cSvJF15GRsjPn9qYtEBaJXC8yy4RjliwQdsIJIKyis7hWjfS/GQlzzl+2UT6+f1dHx3GtGmN2tw7PITwiWqeMjaiTqV0j6uQDnHBgWpegmdc7WAPGHsIEIAFAEPTwyoqZXdtrMFuDcOZnYLyjryXbVDn/8bk9u5R32rx7J/Yvma+h6njeXJ/n+vjeHd0WzkIm+2NnuzXhY4NwJVvaNxnn6bg/++vMlC+hv2HcCCwM74VJ6jj6BxXULyOMXKNUFMsInlEvt8v2+EMrlihQb9LHZEDYiHQHlg7EssEROlPBYyBM+RLFFHJkmSIIUftO8jrmVi8zjes4dW5v2gJhkcj1IrNMOGbJAmEn7AjhsY2+0sU6TO/yYU4Q8yF8VkGNKc4ZKnI1ILwyJlJXIOu2XHUudy9dwLDq5XU78uAKJXRBD7fB7U5s0VCDLwGE1YNfF/ywyllBeIYjhIv76zbOH9R1YYS3MXa0LmRityZWBbNNlalYPlyZTiWUWVUcXszWpSeqbDENcrPCLH7GCJfRM9Owdy6cQ0zVMnpQjUHli+P83l3Pzv+GTk8PKh+UrPN03F+CNmHlNSOH6sI3tv+ygtvocsTf+bLDrMR///OrjoRZpMX9rxszXK37XYJImPtityKmpgdXLKnb0hk5GylvprEJ66SuI689uys5c25v2gJhkcj1IrNMOGbJAmEn7AhhtjEOKBmgIzHdHUk9uPjgX6suLPuespDIgDCro1mde2TVclvRj/KxdauxNCpcR5KMxvgAv3TogI7uWGmdJITzKggHJ4QwIzJ2V+JyjFYJBKaseQwasArS7FrEyJLr7F00F1PaNtUvBlyP7deM8hhhOp43occuQpcOH9BtvwTb4ZVLVcQYij3zZ+nz498ovjCrsG+yztNxf/bX2aiONhvohC8Xk9U5MMLncV3/5riKlBvrgjNun9fBgDCvD891zYghmNaptf59QvOvdRaAqXhet8ltmuh9v+g6hhf1c+rc3rQFwiKR60VmmXDMkl0G4dgJ4xA9dBB69U67EGZFNNOQ7CfMBzCPk6nosV/X0gNz6EE77CDMZfmdMegEAcFUtq6qVefF9klbxa9thKZEEFZRd1KRMCO4gaUCceXIIQ0CgoVtk+zPS+iw6pkpZVYXs0sRC5ZY6MTonRC7q6K7eaHddFckx/OmeT4ENaNhAo8RP7evK8HVcTAy1BCuWlYfX3LO09FWIcz0Mgulrp04Gn/OPJ5v1TnxOPW+1fUhhFmtzEiXUbxx3vwbEqQ8LnZRYgTNYqoXXcdefh5OndubtkBYJHK9yCwTjlkyIVxBQThqkEA42bYf05htiqwEZpEU+42yQpgFQUfXrtRddFgwxJQkC7Wejx2dQ7cTjmtUB3sXztWfE9qssmWx0YwubXW61Ei3suqW3YAIDvYHHlW7ih6pidue1Lqxbv8kHNaw3VLBgX1YeXyMCAkZpp/Zbjm+SR0dNXL/PFZ2c+K41gQVl7uv9n9s/WoNl6T6tzKqYxS4dtRQ3Dh5Qqfgb5w6qY9v1bBB6pp8oyPlwQSZgmNyztPR9teZ684LtXVFclzOWJYV3tw398FzZmaC15tROq/R+nG2/sRsrz6xab0uSGNXJcL63uVLOLJ6uR71zCiketl1dObc3rQFwiKR60VmmXDMku0hPGKkQDhZtp/dh0AyhjFkCpf/ZsqXfVYJIT3EowK0XtZuFiVjiElGxezSxDZFpjl1NxgVQdo/vLvmTK8jXA4Rye0TvvzeGD5Sb9tuJieaESO7MQ2vUUEBsYTtheDZduP3rYDE9uBh1cvpFwm2XzN9bmzf8bwTnL9fLr19pp35ky8KxjVhtKmHbeSyyThPRye4zrx2+ZKegYrbYfTOdDnPZUiFkvqc+VloQU/dlkwo8m/CNmTunxHv8FqVlCvqYiw9JKVdW7Pl6/gK5/amLRAWiVwvMsuEY5YsEH6XrB7WNmCbA+ZVTQjo7SYBLu1nyxgvDIm+f4Hjt291vdd0nva2dM7GsmqZrh4ZtF90Dpa2+QbOzRkLhEUi14vMMuGYJQuExeI0ZIGwSOR6kVkmHLNkgbBYnIYsEBaJXC8yy4RjliwQFovTkAXCIpHrRWaZcMySBcJicRqyQFgkcr3ILBOOWbJAWCxOQxYIi0SuF5llwjFLFgiLxWnIAmGRyPUis0w4ZskCYbE4DVkgLBK5XmSWCccsWSAsFqchC4RFIteLzDLhmCU7AeGODhAeqyAcpSDcXSAsFr+jFgiLRK4XmWXCMUt+DuEIBeGhAmGxODVbICwSuV5klgnHLFkgLBanIQuERSLXi8wy4ZglC4TF4jRkgbBI5HqRWSYcs2SBsFichiwQFolcLzLLhGOWLBAWi9OQBcIiketFZplwzJIFwmJxGrJAWCRyvcgsE45ZsssgPD52LIZERyGkl0BYLH5XLRAWiVwvMsuEY5asIVyhPCKjzCHcVyAsFqceC4RFIteLzDLhmCXbQ3j4CAXh2QJhsTjVWiAsErleZJYJxyxZICwWpyELhEUi14vMMuGYJQuExeI0ZIGwSOR6kVkmHLNkgbBY/AbdMWc6tMudDq0906Fl3nRo4e2GFj5u+if/3dorHdqq7zvkTLyuKywQFolcLzLLhGOWLBAWi1+zO+Wwgbe5dzrUKuKGoMpu8PnaDdlauyNDp/RwD86I9Opn1tZu8GrohqLV3FC9uBua5bMBmes7bvNVLRAWiVwvMsuEY5YsEBaLX5cJ31zp0MQ3nQZvpjbu+DDMHf8b7o7fD3DHe5Hu+G0UnV7/5L/5+R/7u+ODPu5w6+iOwBpuaFjAdTAWCItErheZZcIxSxYIi8WvwQRmCxX5li7vhvTt3fB+Pxtk/2ewO/6fRRPMBPanXd11dNw0ny2d7biv5FggLBK5XmSWCccsWSAsFrvYBGVjv3TwaaAiWhX5/lbB1xGwyfFvFIz/3NcdHs3cUDfQDe1zJd6nVQuERSLXi8wy4ZglC4TFYheaAG5QMB1ytHDTUez/DHJPBNVXMbfzhwh3uHd0R9USbrqN2XHfViwQFolcLzLLhGOWLBAWvz7ncEMwH/re2dTPTOii/p1omVRkpqAbFnBDtpZuGpiuArC93xvojs+7sHArHTp4JD6Gl1kgLBK5XmSWCccs2YUQHiMQVu6a0x09FHR658+NsIJe+mePvNksAahrrgzo5ZdLu2vO9Im+dzS32d0ri14+1N8TIflyolsSsOuijiskXw61rEf8PgyH+Kr18iSxHvfhyX14IFSdD/fTy9dD7Sdjksv3yJtVH0t3r6yIrlQKc3p2xtBqZfWxOS6fWkwAs802dxM3XVj1OgBs+HcKxBnbueuCreQWawmERSLXi8wy4ZglP4dwf4GwMyZ8evpkx6DyQZjXOxib48Zi36K52DI5FrN7dkJEUEF09ciQaD3DwQrAQxSw1o0ZhjUjozXwGEk6LmeYsO9bOB+mtm+BDeNHYfe8WVg5NBJjG36FsIC8Grr2yxOiSwaEYe3oYYm8InoghtUonwiSPN6+RXwxpV1ztVwM9i6Yg11zpmPVsMEY+3UtDWNHEPf0yYEZXdpicUQffS3mh3XH1WNHsKhfb/2d43mkFrPfb6Gabni/78sB/D+D0+OPQ7Pi7yM98elYP6Qb54904/3x2dj8+HiUF/4Uk00v47ievQn6vA3ddbcnVmE7Hk9SFgiLRK4XmWXCMUsWCLvIjHZndm2Hc3t24c6Fc7h17oz2vSuXcP/aFRxeuRSRZYqaRrgEWXix/NgzfzYe37+n1xtQKjAR4OKXV4ANL1YA26dPwp2L59X+zuP2+bO2/Z49jU0TxmhAG+vz54CShXDj9El8d+c27l66gNtqWcOXDh/Q4GQEa+yjq0d6DFYQ3TV3plr+ojb3w/3xnC4fOYQJzRugm2fmBMc1qFxxXDy0H+d271QvFSWxqH8o7l6+iGXqBmN07HguqcFsB65RNB3+HvJiABOsv4vOrGDrh3ILG2PIvlhsuLITh+6cwNG7J7Hl6h6MPjQNtZa3hdv4ghrUScGY+2HR15fl3XQ3KMdjSsoCYZHI9SKzTDhmyQJhF5lp5w3jR+L8vj06Ih1RqxIGVwjSqdgLB/bi0a2bOoJk9JhgXQVIRqmL+vfGw+vX8MtPT/Hg+lUM/LJIkhBmRLlYwe3+1cs4s3Mb4lo10lHn1A4tcHLrJg3LeaHd0dM7u16eQI2pVhb3FAxPqb/X9M5tEKsAanhco9oa6lyOy3O/fQN9sH3GFDy8eQNndm3HrG4dMLTKlxhZp6o61jBsmTIBESUKJoi4mYaf2ztYQfoytk2LQ/8gfywM7/1KEOYxMNp/UTbgXXFLr3TwamTr4+sIS3sAvz8sB/xnVsWk4/Nw6sEFnH90Wf08jz03D2H3jUM4fu8Mzj26hDMPL2LhmdUos6Ah/joid5IgZpenTG3ddRrcajQsEBaJXC8yy4RjliwQdpGZumU0O6hcMVubbq4MGlChBfJgYb9eGsJH161Gn0LeCdZjW+zYhrVw+eghXDl6WJvR5osgzCj39PYtaps3MFtBnm263Bej8TENauL6N8c1+MOLF4gvjmKamtslHPsowHK/9tbAe7b97iq6ndSmqYL2JVw5dgSj6lbVQCekmTbnS0BvdV4GtG22gZsRP6PmiS0b6fZjMwjr9ml1zP2K+CIswCsB/Lkffh5VthiiK5fWETxfEOh+Rf30tXVMtb9NMwr+qrAb/tY76SjYAHDZhY1UtLtbwfcKlp5bj4aru8Jjcil8Mc5fuQCyxhVDjWWtMf2bxTj38BIO3D6Gr1d1ThLE7HP8lz7uKFfWerclgbBI5HqRWSYcs2SBsAtNiDgCIjhXRoyuX1NFrVfwzeYNGoDxy6tlB5YOxJE1K3Dj1AksCOuBk1s2vhjC6rOIkgE69Xz30nkdbT/fp5uG/L5F83SaeXjNivrlgFCd3LaZXmf1iCGJo3G7bROyhDzbsh/evK7bjPsW9tWpappFWmbHxfVGfFVJp8XP7tqB/sX9EaJg7QhhHithvWLIAJzds0O3nYcW9NSfhylozw/thjM7turU+c0zp3Rq/ubZ0+rf3+D0zq1YFB6qC8wc9/+23CaPrS2YbbSOkDTMFDQjYAKYUW7ojqHINKGwBvNvhmSIX+43CrT/G5NNtxG3WBeCo3dO4tDtE6i4uKn+3HG7etsq+s7dxB2tvBIfm5kFwiKR60VmmXDMkgXCr9kE16zuHXVUuSF2lI7k+DlBxkhxjYLirbNn9M/BFUrg+Ma1L4QwP4tU37FdlqAaUKpQguWYFt80cYwG37SOrXT1NCPkOT276Ah17choRJUpivCi+TVsGakbldGMmIdULKlT2ddUNP39w/saxlx3ZnB77UmtGuvtOR4XI9uVMVH6ZWPVsEHq3x66UC0BhNVnfQLyqt/D9QvBqe2bddqe++U2Z3XvoCF+49Q32DFjCtaOGoqTmzfi6ePH+Pb2LfXvGIysXUUd7/N26LdtjorFSmWmhh0BSTOCZRswU9CMgAlgFmDZw9fRXIcFWo3XqBeSBxew5uJWZJlY1HQdRt//6OGOpr6J7xUzC4RFIteLzDLhmCW7DsLjx2DwEAXhEIGwYUZ3A1TUemzdal0MNblNEx2V8jvCcZL6NyNgRsKMiAnF4xteDGGaAL185CAe3riut2F0gSJM2TbMaJoFWIsjwnTqmClepsS/vX0Tt1VkeWH/Hl2MxZT2zplTMb5JXVtXJRWpLujTU6fEf376I355+lS3LxOK10+e0D6xaZ2OZBOcp9o3I1+2Hd8+f05FxJWfpa2fQ3j5oAgdwfM4bp07i3N7dmJ0/Ro6suY2WNF9aMUSPLp5Q7eP9yvipyP2oVXLqBeCY/pceZxWu3u9KTf2e5aKNoEpzeIqFmGdVjBddn4DMk8ogt8qmPLzT0Z76wiX0OX6v1cRMz/7s4qQuQxhPerQVN123Hp9KP4yPGei7dNMSdcu7GZpSEuBsEjkepFZJhyzZAPCAyOdhPC4ZxDuKRDWJigY9bH7DwuVDi5frNuMdcERK49VxMkiqSvHDus2YQKUqWQrENbR7oQxGlhH167U7b2RZYogtmld7F04F9/du4PvH9zXwCMICf4Jzerj1NZN2jyWo2tX4dKhA3hw7SpunTmtot9uup2XbbGMhL9TD2JGpXN7ddUvD/Sk1o0xqm61eHAaZmQ6sUVDDdvDq5YpSOcDU+MGhFkQtn7McCwZ0EdXb7O9elzjOrofsVF4xXZgvhzweEbWtkGcn/Macpv8fEq7ZvEvMe+C2Ue3QSEbBB3BaJjdkAbvi9UgZWTLFDTT0wVmVtbRcYl5dTWQfzskI3JMKoGJx+boduE/xWTXUC42t7aOhhecWY1/jc6XaPs0x6WuVMrN0uAdAmGRyPUis0w4Zsn2EB42fChmCYSdt5FqZlR5m1Hf3l06jcq0K7/Tba5TJmggMepjdTRhZBXCNoiX0HAi+BhZXj9li1QvHdwfHyVP79RaR9zcTg8FPMKRJtjYNk3gspL721s3dV9eVlCPrldd9zt+8uihrtLm7yuiI7UXK4hy0A2eh/3xMKW9bepE3FcvG4Q5R8ji5waEH964hm9UdM5qbhaozejSRn9nX/nMgU32L5mvl2XfYkbbbPtlepznw/Q7i84c9/023cnDDfVKZMZf+iYumjLMfsBrL23HyfvnkGtKaZ1S/mNMVpRf1BjrL+9AvZUdFZizKzBngv/MKuqz7ei4KRwfDM+lI+R04wpi89XdOH7vNNzHByTaPv2ncHeULW+tOEsgLBK5XmSWCccsWSDsYhN4jCgZQd48cxIXD+5TEWo9DUF+z5/sk0vQsjsRI0t29WF3npjq5XBm51bdrjrm65o67azbP01gzEiR67CdlsVThOXckK46wmSUyzZoRtgvghbT5UwRH1+/RkWaV3Q3JEarV44cwk9PfsCvP/+kj+XGqZMa8HyZmNqhpS2CtdsGYX71+BHdjsx0uFEoZkCYUfmPj7/DDwrs/J3gJ7jtXzLYvWlOCNutL+DaiWM60mc7MlPUjIIPr1ymq6OTejF5G+6Uyx31y2bHX/olbqs1zCKrg3dOYO+tI/p3fka4/m1kHhScWQ3/GOWtwczPPhjugfwzqmhwMzLmsv8c7YPZp5ZpiGeaUMS0SpoQLl3R2njSAmGRyPUis0w4ZskCYRdaAzh/bl3IRHBdOrQfcS0b2vrrPoNHqH8e7Jg1TcOIZhUzq39pgvnpD9/j119+1hBlu+nQKmUcugIl3B+hbgxFyfZfQvDy4YO6HZfdpRyrtR1NGO6YMVkPKMIIlGBnOpiV3I/v3cWWuPG6ynpQhSBEli2aqIuQreirs06575g5VWcAjO8MCH93946GNAutmOJmBoCpbePFRJ9LTg5Akh871bXh8rwWPAe2T2+bGqevAyvNHY//bZoQrlsmm4JwYjDGQ3i8P47cPYndNw/pbkjG54Qp0832ULUN5pFJQfn5Z2wjnvHNYg1hticnBeFSAmGR6K2JzDLhmCWnWgjv2bMH69at0xCOjY197RB+DuDOOmq8eGAfJrb4WoPIPnpj8RNHkTqwdCEOr16uU8qGj29ch2/v3sZP6nzYXswhIhllEuIsUnpRUZJOgSugLu4fptPC7A9sAJHfGalwx3XYl/jomhV6nYnqhaGbZxZd6bw0sh++vXNbF1uxmppdnTR8n22D69J9Ar1xcNli3e47uU3TBG228W3CVy5h7cihGPhlYSyLDNeR7bndO3T622j7ZT/lQeWL63ZhjrbFgjN+zywBz8tY7l0y09F1gzK9MB3N4iqmk0/cO4NsccV1NyR+zuiXhVa/H2oDsQFgfvbesyiY/lytv+bSNr1++thCibZvQLiMpKNForcmMsuEY5ac6iE8f/58DeHIsNDXCmH2iZ3do5OO8hjt8Xd2H2LbK9t6aVYAM1pl5MpBKvoUypvAbOdltx1GlSNUNMp2UgKR0fTq4YMxuW3T+KElu+RMr8HM7xmdMnXNYTOvHj+qI0j79lMWUjGaHaiOh9vk8r3z59IAZhsuoXj58AEMLF1YgdVdA5dVyYyoWWW9ethgXb1NqHP98KJ+aluB+liG16yg+/Ke37sLESqKtge9YxclHi+j3d1zZ+iiMo5Fzapqwp2FaRwGk9XYLBwb8VVFDCgRoAfpYDs2r5k+nyReQt6GWZhVP/DFhVnsajT68HSce3QZNZe1ie/vy9Qzh6csMqcWMsQGwl0BtsDMKqi7sgM+YYpaQfk9BWW/GZV0FLzq4hb8e4xvou3TLMyqWFpB+BULs7Zs2YJDhw4JhEWiVxSZZcIxS051EL58+XIiCE+YMOEZhG19dF1tpos5TjJHqmI7Koui2P3n2PrVOLpuVbz3L1mAKe2bJxij2d4JC7MIRDc9kMXueTN1v9qlA/vaBqrQn3vpfrmrYgZh/biRuu2URWBsl13YN8TWH/kZsAh/DuDBITX3KPBx+Y0TRuuuUbqwS704MII3hrmk+bIwu3tH/R2LpU7v2KpTxdwO24bZds0JJzjoBtuNOemE4yAgjhDmsWvAV/kSZ1WE/eD6Nb2+jnRzZ9Lt4zzPJ98+0gORsG2Y1eMnt27UE0iwaMyWwn5HQKwg3Ci/G/4a6p4IjIY5GQNhy0E6OBIW24WNEbRqr2iHZefXY9PVXdh4ZaeKeLei/ca+8SNksb24364Run9xj62D8OGIXIm2T/9ZvQTUKpK8LkoxUVGYOnWqQFgkcoHILBOOWXKqgfCjR49w584dDeGTJ09i7969WL9+fTyEo/qEvVYIs82SkSOjSrbn6skOFFDszfbN+X162CqDTbZDsHLChLO7d9rGZWa6WEWO7NJz7+pl3RXJSCv3DyqIM7u26YE+bpw+pQvACHl2RWKUmzAFnkNXYbMQzIjUGb2yoprDTHIADt3Wa7cOf2f0yXGpj6xerovMjIkpLuzfqyeP4OAiu9Xxnt+/ByOf9Q22Px/bABwdNbTn9WbVtO28WbHN1De7SDHtzhmcOMvU5rhxGvhMbXNMbA5cwi5VV44e0i82PEemqF80G9WbNmcxcuvojt9GuSeCI02Yuo0P0F2Mzj68pEfC+khFx+wHTKh6Tv0S1Za20lEyo17bdxl1WrrCoqY4evcUtl/fjzxTvowv1kqw/UHu+Hsvd91f2fHYzGyDcNl4CC9btiwewmfPnsX169dx7949fPfddwJhkciiyCwTjllyqoDwkydPEkF437592LBhAxYsWICJEye+Vggz4mQVM6t3WdiUlAlUjhqVVLEUYR5WMK/uM0ugabhXLaMj41PbNun1jeiW+xtSsZSODgkmpnWZKubnidp+c3Iu4Zz6+BiFcp3htSrpmZoYfbMd13EdvR7PS33HZZiO5jqMfnkcTE1z6sM+Ad76eJlOdkwVM7XNiJrfG0NWGttlipzHQzMS1ql8Bfh9C+fqFDfXYSqf3bmiK3+Jo2tW4oECNKvOWUnteKxvy2080yF/XTf8IcI9ESANsx/wlwu+1mNBH7lzEo1WB+tRtNge/F50Rp2iZsTMNmGaETABvO3aPpx8cA6N1wQnOVDHewPdkb2lO1rmTXxsZiaEQyqXxbBBgzBt2jQN4a1bt+Lw4cMCYZHoFUVmmXDMklMdhK9cuYJTp07FQ3jhwoWIi4vDoL59Xh+EX5MJKs7ly3ZepnUdI2jbhAoZk6yeNnP8OpxgwgS8SZnLxhdnmXzvjAn0nbOn6SzCnF5dEpynLv5SLwGMklngxQpuox/yu2AOkFEtyA0fhr54AgemmBus6qzHguboWSMPTUHROV/p9DS7IbEKmkVYjIaZgmYETAB32xqpvzeriqY5f3HJiuksVUbTNgiXw/DBgzF9+nQsX75c/R/ehiNHjgiERaJXFJllwjFLTrEQ5kOBDwc+JAhhtmGxLevq1asawvv378fGjRuxaNEiTJo0CYP79UVX35QFYUahY+rXwPLBEYgoEZBgpqPUZKbCN8SO1rNCsSKcsycxAu5TyEef94wu7eLbh22jab1bXZU4fnTO5m74nYpKHSHpCOKKKsJdfXGLLtQijDdd3a37AbO9eO2lbboIi6NrMQXdSEXABLDZmNE0U+BfdHJDE19bkZjjcZmZEO5VpRxGDBmMGTNmYMWKFfEQPnfuHG7cuIH79+/j8ePHePr0qUBYJLIgMsuEY5bsQgiPVhCOVBDu9tYhfPr0aRw4cEB3vVi8eDEmT56M6PB+CE5hEDbStqyATk60m9LMdm6myFlhzfZg9inmACJsi+aMTGzHvnbiqB6MpJe6Fo5p77dtViVXKp1OF2glFQ0bIGbqOfPEImi9vjfmn1mlIt7TGrz0iXtnsfLCJnTfGqXbgJmCTioC5n7+3Ncdxau6oa3FKJjukjuTgnB5jIyOxsyZM7Fy5Urs2LEDR48exfnz5xNBmNkmZp34f04gLBKZi8wy4Zgl2yBcTkE4XEE4WkF4esqDMNNmTJ8xjcbqTlZ5st8jC05Y/ckClKER/RHslzvRQ0n8DpgvG15ZdKHXvN7BKhqeoUf9OrR8ia7IZiaA7cS6XfkdA7Bhtsn61nfD/4YnPZmDYaOPMMeCdhtfUE9ryNGw2E2J3ZBYsGVWhGXv3w9wR44W7miaz3oUTBPCvatWwOgY9cY9axZWrVqFnTt34tixY7hw4QJu3ryJBw8e4PvvvxcIi0QWRWaZcMySUw2E+ebON3i2abFti4UmTLOxzYttX8OjItG9kM87F0WJn5vRPouu2EZs9K/m74SvY+X1u2aCsLFfOmRpbQOkIzRfZGOwDsfPk/Jvotzx72A31Cxma5N2PJYXuUueTAirVQVjRwzHnDlzsGbNGj263PHjx3Hx4sUEEGa9hT2ERSKRucgsE45ZcqqAMN/YDQgznca0Gtu4mGbjmz7f+EdFD0FI6SLokorTuuK36w4506GGAuMXnd1f2D7sjJmG/lsv2whZbfMkPoaXuatnFoQ3qofYMaN19z1242N3PvatZ88C9rVnn3t2+xMIi0TWRGaZcMySUyyE7SukCWG+ufMNnm/yfKNnem3Xrl16/Oi5c+fqN//Q6hV1Os7xwSQWu8rtcqVD1RJucOvopiPiF7URJ9fvRbrjoxB3lKrghtae6fRgIY77f5mD82bDwLYtERcbq4sWWbzIngTs1seeBexhwJ4GrLMghKUoSyR6ucgsE45ZcoqEMGUPYfsBO+xHzeIbvtFNaeK4cYho2hBd7SYNEItfhzmGc+3C6ZCjuZseUtJZEHP9P/Z3R/oOHJ7S1jf5VQBMB/vkwJAewZg6ZXL8QB3GuNEsamRxI+srCGGpjBaJrInMMuGYJadoCBspaaOvMCukjb7C9hXSujhryhRE9+yGbj45Ez2YxGJXm0NIsutQQC03fNzTXQ/m8ZtkwpjwZTTNqut89d3QsIAN8I77smwWwBXwxMiBEZj1rDJ6+/bt8d2TWE9hVEZLH2GRyLrILBOOWbJLITxo8NuBsNFNyb5Cmg8VPlz4kOHDRrcLD4pEj8B8UpwlfiNmsRbTxoyK/eq54Z/dbJMtEKy/jUwcIbOqmn1/f6e+Z5U12349G7uhaglb9XVyqqDN3CVXRoRVKYvYkSN1ezDHVjeKsqQyWiR6dZFZJhyzZEK4vILwgIHOQPiAgvA4G4R79Hw7EDZrFz5x4oSeyIHFJxy+csKY0QivUwNd8zyfbk8sft1mVMwUMqunWVDl/bWbTi1/HOKOD8Oem9BlUVfuJm4IquyGegXToZVX8iugk3Kwdw4M6tgWUyfFxU9hyEFt2B5sFGWxSUeKskSi5InMMuGYJdtDOGZYNGbOSkEQTqpd2H74Sqak2e6luypNnYqY3iHonj+PRMPiN+8ctnQyo2OOstUsnxua+nLEK5ubqn8397GBl8NQOhv52luPHx5UEKMHR2HO7Nm61wB7DxhjRjN7ZAxXaRRlCYRFImsis0w4ZskpFsKUYzRsn5Jm+xZT0hwJiIMRsEpazy08ahT6fVVVomFxGrKbLsiKbNMCkydO0KPIsWCRhYvMFtmnoqU9WCRKvsgsE45ZcqqCsDFoB/s53rp1C5cuXdKpNqbcmHpjNegMDtzRtw96BuZ7LZMRiMXvmrvkyoDQckEYGz1ED9DBKJgD2XD6QhYw2ndNcmwPFgiLRC8XmWXCMUtO8RA2S0kb40gbBVqMhtlnmIUo7K40KTYWUW2aoxvHkpa0tDgVW08nGeCNmJDumDZlim4LZt9g+yjYGC/asWuSFGWJRNZEZplwzJJTBYTNUtJMrRnRMNuG2ReSb/+MAubNnYvYkSPQv/5XCOZE8wJicWq0uq+75c+DqHat1IvneCxcsEA3y7B5hm3B7BvMKNgYJctIRUsULBIlT2SWCccsOUVDmDIg7Dh6FlNrRjTMYSzZDYNv/5s2bdJFWrNnzcK4oUPQ76sqAmJx6jMB7JcbA5s1woTRo/WLJ19At27dqosVOZgNexAYUTCzR45V0QJhkciayCwTjllyqoCwYzRstA0b0TDf9vnWz37D7BfJdBzbhzlgAUHMiJipaWkjFqcGc3z07v5eusllwuhRmDtnjp43mHURfBHlCymbafiCat8WbFaQJRAWiV4uMsuEY5acqiBs3zZspKX5ls/KTyMtzTQc24dZHUoQMyJmajpSPbBYrKWrpiUqFqdEq/uWY0P3KhWI6O5dEDdunI6ACWBmgNhnnvURRhqaL6h8UbXvlmS0BUsULBJZF5llwjFLTvEQpsyiYaaljSItdlli2o3pN3sQMyJmapqRAou1WDXN7kvsRywwFqcY50yPrl5Z0CPAGwOaNMDoqIGYOnkSFsyfr0eLYwRsD2AOzMEXU6MYi/9PzCqiBcIikTWRWSYcs+RUB2E+ROzT0vbtw+w7bA9ipqYZIbCtjFXT7L7EfsQc0IMja3GIy2CfnHrSB86+pKdBFDCL36ZzuusuR5wXmPdlN18P9CxeEBGNG2BE/346+uUQrewLzLmCOVANU9COAOaLqdEOTADbV0QLhEWi5InMMuGYJbsQwqMUhAcqCAe/cQhTjiC2T0sbfYcdQcw2Yj6gWDXN7ktMT3NAD46sNWHMGD3W9BD1UhHRrJGeBpHzEXcP8EGwX24E++bS7krnE4tfk5/dZzQrnXsU9kOvssXRp1YVDFD//4aGhmBM9BDEjR+HmTNm6JdJpp/Z3MIRsdhHntN6OgLYrB1YACwSvZrILBOOWfJzCPdTEB6iIDwt5UPYSEsnBWKmpi9duqQfTCxSYfclpqeZtmMXDsKYY00zouCUb5wGkfMRj1IPu+FRAzE0oj+iVdQxuF9fDO7bB4OUo/qEITIsVCx22ryXaN5XvL+GhPdV95t6Sx4QgRGDojB6aDTGjRyBuNjxmKZeGDkAB+cGJnz5MskKaKafORgHq6BZhJUUgM2qoQXAIlHyRGaZcMySUw2EKcdo2AzEfADxQcQHEotT2H2JUTHTdYwa2IeSKTxO+sA0NQc3YHQxd+5cDeXp06djqnrwTZ48GZMmTUJcXBwmTpyICRMmaMfGxorFTtm4l3hf8f7ifTZlyhR9381Q0e7s2bMxb948DV6+MK5evVpHvoQvXybZBYnRL0fD4mAcnCeYRVhGVyRHABvV0AJhkejVRGaZcMySUxWEqZeBmA8gPoj4QOKDid00GBUzWuAQl4QxH2KMJJjOY3TMBxwjZEKZhVwEM9vc+BAkoBk100xli8WuMO8n3ls077MlS5bo+47RLqHLiJeFhXxh5Isjm1WY0SF8+VLJl0u+ZDLrw8E4BMAi0esTmWXCMUtOdRCmXgRiPoBYjGKMqsX0tCOM+RDjkH5sM+aDbd++fbqIi1Bm+zEffIQzi7r4ICSkGTkb5gNSLH4V299HvK94f/E+4/3GSJfzYxO6vB95XzLlzBdHpp0Z+RK+TD2z9oHwZdaHzTD2VdBsAxYAi0SuE5llwjFLTtUQNgOx0X3JPj1tD2M+vBhBsHiLQOaDjREy244JZVZV88FHODNiZgqbD0NGIoYZRYvFr2L7+4j3Fe8v3me833jf8f4jdHk/8r5kXQPvU75A2ke+BnyN6Jf3uz2AjTZgAbBI5LzILBOOWXKqhLAhexDbw5gPIiMq5gOKUQIfVnxo8eHFUYTYZszomA82RhaEMqMMzr3KBx/hTDNq5sOQZjQiFjtr436ieX/xPuM9x3uPwGU7L+9H3pds7+WLI18ged8y7WzAly+ZjH4d088CYJHItSKzTDhmyakawlRSIHaMivmw4kOLQDaiYwPIjCwIZUYZfOARznz40QakaUYjYrGzNu4nmvcX7zPec7z3aN6HvB95XzKDY4CX9y3vX75Y2sPXPv3sWAUtABaJnBeZZcIxS3YJhPcrCI9VEI4aNBDde7xbEKYc09NmMDYiYwPI9hGyAWU+7GjCmQ8/mpC2Nx+MYrEzdrynjHuN9x3vP96LNO9LI+I1wGuknZOCrwBYJHK9yCwTjlmyhnD5cogY0A9DY4ZgxsxUCGHK/sHzIhgbQOaDzBHKfNgZ0TIffgag7c2IRCx2xo73lHGv8b4zgGsPXd6njuAV+IpEb05klgnHLDnNQNjQy2DsCGR7KBtgNswHoKP5YBSLnbHjPWWA1rBxLxrQNQNvUvAVAItErheZZcIxS05zEDbk+GAyHliOQDag7AhmR/OBKBa70o73mCNwDehaAa/AVyR6fSKzTDhmyWkWwvZyfFiZQdkRzI62fzCKxa6w4z3mCFx76Ap4RaK3JzLLhGOWLBA2keODzAzMjrZ/MIrFrrDjPfYi2Ap0RaK3JzLLhGOWLBBOphwfemLxm7ZIJHq3RGaZcMySBcIikUgkEjkhMsuEY5YsEBaJRCKRyAmRWSYcs2SBsEgkEolETojMMuGYJQuERSKRSCRyQmSWCccs2UUQ3vMMwgMUhLsKhEUikUiUZkRmmXDMkm0QLqsg3FdBeLAJhHsJhEUikUgkSkpklgnHLFkgLBKJRCKREyKzTDhmyQJhkUgkEomcEJllwjFLFgiLRCKRSOSEyCwTjlmyQFgkEolEIidEZplwzJIFwiKRSCQSOSEyy4RjliwQFolEIpHICZFZJhyzZIGwSCQSiUROiMwy4ZglC4RFIpFIJHJCZJYJxyxZICwSiUQikRMis0w4Zskug/CYsQrCUQJhkUgkEqUtkVkmHLPkeAhHuArC3QXCIpFIJEo7IrNMOGbJBoT7E8JDBcIikUgkEiVLZJYJxyxZICwSiUQikRMis0w4ZskCYZFIJBKJnBCZZcIxSxYIi0QikUjkhMgsE45ZskBYJBKJRCInRGaZcMySBcIikUgkEjkhMsuEY5bsQgiPVBCOUBDuIhAWiUQiUZoRmWXCMUu2QbiMgnAfBeFBCsJTBcIikUgkElkVmWXCMUsWCItEIpFI5ITILBOOWbJAWCQSiUQiJ0RmmXDMkgXCIpFIJBI5ITLLhGOWLBAWiUQikcgJkVkmHLNkgbBIJBKJRE6IzDLhmCULhEUikUgkckJklgnHLFkgLBKJRCKREyKzTDhmyQJhkUgkEomcEJllwjFLFgiLRCKRSOSEyCwTjlmyyyA8esxIRCoIdxMIi0QikSgNicwy4ZglE8LlBMIikUgkEr2ayCwTjlmyAeHw/n0QTQjPEAiLRCKRSGRZZJYJxyxZICwSiUQikRMis0w4ZskCYZFIJBKJnBCZZcIxSxYIi0QikUjkhMgsE45ZskBYJBKJRCInRGaZcMySBcIikUgkEjkhMsuEY5bsQgiPUBDuryDcWSAsEolEojQjMsuEY5YsEBaJRCKRyAmRWSYcs+SEEI4SCItEIpFIlByRWSYcs2SBsEgkEolETojMMuGYJQuERSKRSCRyQmSWCccsWSAsEolEIpETIrNMOGbJAmGRSCQSiZwQmWXCMUsWCItEIpFI5ITILBOOWbJAWCQSiUQiJ0RmmXDMkgXCIpFIJBI5ITLLhGOWLBAWiUQikcgJkVkmHLPkV4dwVwcIjx6BgZH9EdxNICwSiUSitCMyy4RjlqwhXO45hKc7QrivBQjv278HowTCIpFIJEqDIrNMOGbJBoT7hffBkGiBsEgkEolEyRKZZcIxSxYIi0QikUjkhMgsE45ZskBYJBKJRCInRGaZcMySBcIikUgkEjkhMsuEY5YsEBaJRCKRyAmRWSYcs2SBsEgkEolETojMMuGYJbsQwsMVhMMFwiKRSCRKUyKzTDhmyc8hHPYMwlNeBcK77SDcSSAsEolEojQjMsuEY5acEMKRAmGRSCQSiZIjMsuEY5YsEBaJRCKRyAmRWSYcs2SBsEgkEolETojMMuGYJQuERSKRSCRyQmSWCccsWSAsEolEIpETIrNMOGbJAmGRSCQSiZwQmWXCMUsWCItEIpFI5ITILBOOWbJAWCQSiUQiJ0RmmXDMkgXCIpFIJBI5ITLLhGOW/MoQ7mIC4QEDw9E1WCAsEolEorQjMsuEY5ZMCJe1g/C06a8K4VECYZFIJBKlPZFZJhyzZAPCffuFYfAQgbBIJBKJRMkSmWXCMUsWCItEIpFI5ITILBOOWbJA+B3X//3f/yX4/b///a/dt29f79rxvGtKydfn119/xZMnT/DTTz8luA9FyZerr6WrtydyTmSWCccsWSD8BsQH8Q8//ID79+/j4cOH+j+Q4/ffffddgu/+85//4O7duzh37hyuX7+OR48e4dq1a7h06RJ++eWXBOu/DfH4bt26hbNnz+pzkwdBQqX068Pj5702b948bNy4ET/++KPjIiKLcvW1dPX2RM6LzDLhmCULhN+A+BBesGABOnfujF69euHMmTP6P5Khb7/9FmPGjEGfPn1w+fJl/d2NGzfQrl07FChQAGXLlkX//v3RrFkz9O7dGw8ePLDb+tvRvXv30Lp1axQuXBhbtmzBzz//7LiIqfiSwZeRlAim5OhVr8+7oqdPn2Lp0qXImzcvGjRogDt37jgu8kKllb+zFTl7LR3l6u2JnBeZZcIxSxYIvwERmt26dcO///1vfPrpp+jevbv+j2M8nBgxVa1aFblz58aBAwd0mmnz5s0oXbo0WrRogRIlSiBPnjwIDAzUb7/8/m2LD9gOHTogKCgI27dvtwQZRvznz5/XLyPLly9P1W/wr3J93iXxb8N7zc3NDZUqVdL3qFWlpb+zFTlzLc3k6u2JnBeZZcIxS3YxhPsJhE1kPJA/+OAD/OEPf0DWrFmxYsUK/UZL3bx5E2XKlEGmTJmwd+9e/fnJkyexcOFC7Nu3TwN56tSpOqIi0I12RkKckQb/E169elWbKeyXtRPZr3flyhWd5uYxMnrhthmZ85gYzRkRO7/jiwM/57rcx6lTp/TxMo3O9bhdPiC4HlPoPJ7bt2/r7XF9Htv48ePh4eGB8PBwnRHgZ9zHi46J4jL8N4+By3G73D4zBtw+Icdrw/1yXf7Oz8yug7Pb4k+eP7fBZZi94E9eBzYV8Hv+TM71sc+M2B8jv+dLF4/V/hiNe8BYjteR9w23bVw7x+v6onuE22OTB7fPZXhOM2bMSPCgN5pI+Lv9+jxXfsZj5O8v+jtTLzum5FwnY3vcL4+f9yfvH67DdXk+/PsZx/WiYzeu18v+ttSLrrtxLC+6llb3Q1n52xjXwZXXVWRdZJYJxyzZBuEvNXRtEJ78qhAe9gzCHQXCDjIg/I9//ENHux999BGqVKmCCxcu6P9gjhDmfxT+bNOmDYoVKwYvLy8EBAToCJpQJhC4Hv+DTZ8+XUfRTE35+vqiYcOGWL9+Pb7//vsE/5ENGetNmTIFlStXho+PDwoVKoSOHTvi0KFD+iFgfMd0OB9ofCgcP34c9erVQ40aNfT2+UAIDg5G9erVsWPHDn1Mjx8/xrJly9C2bVsdARYsWBBfffUVYmJi9H94vkhwf3/605+QJUsWHeFzH3wAvuiYuG1eQ55/7dq1ERcXh5o1a+pz5n6Yqt+2bZuOvJj+ZQq/S5cu2LVrl34AOcrZbfF6HDx4EJ06dULx4sXh7e2NokWLIiQkJP7vw30k5/rwutv/vbg+syc8tmnTpqFOnTp6P7wfBgwYoB/4/Fsa58K/+6pVq9CyZUt9r7DZw4DEy+4Rbod/Z547z4P74fK8Z5m9MR703BZT7LwH+HcxXtpYt8DPmBrlPZ3U35kPfyv3bXKuE8Vry78Hj5/b5Pby58+vM0fly5dHdHS0PsaXHTuBZOVva/x9zK57jx49cOTIkZdeS6v7sfq3eR3XVWRdZJYJxyxZIPwGZEA4Q4YMCA0N1VD9/PPPMXTo0Pi3d3sIM/LZsGEDihQpolPSfBDzPx9T2XxgcHkWco0ePVpH1dyWp6cnsmfPrv9j5suXT69vBiD+RzTW4/5KlSqlH5jcBgHIQiI+pPgfPn369Bg2bJiO6AjEdOnSoW7duvqhQAhXqFBBb4MpR/4nZyqdDz9uiw8/fs9/M6XO7UZGRup7gw9nHi8BRVhcunTphcd08eLF+P397W9/Q8aMGZErVy59TfhiQ/PfPH9Ck8f9ySef6HV5rRzFz5zZFq/ri/4+fCga+7B6ffgATeoYM2fOrF/e+GDl39fd3V2D2Lh3uByP0c/PTy/L+ysiIkK/+Fi5R/gAZj0C/778jvvh34nn8/7778c/6Bk98cWE5/T/2TsPKCmqtA0366rrb9Y1Ys6KeV1XXV11jairGFdd466iknOeRM5IkgwGQBEEVEBElCRZJEfJyYAK0zMDk7//vre7mprqOzN3pnry+5zzHpiZDtVVXfXUzd98840WBUpQkA5+hyaTVatW5XuccR64v3+mbZo+fbrMnz/fej9BHPhuvPTSS/qz42YFkkEpHPsO59WkSZO0bAvbdnyvbY6t+/h49ztu2HCuF7Yvbd4Hn8322MR6v5KiAWcZPGYVSrgUcCSME3X48OH6zhwnFU46lLBw8rsljLtkSHbp0qW6Km/Dhg0ybtw4feLhMWvWrNEXldtuu01LA2LHxW/hwoVakmeccYb897//jTqxcFKjpII74DPPPFO6d++uL0LoYYkTFRf3jz76SD8PpS8IChezNm3a6BsIXABmzZqlL2DOjQOeg04iqNKCbPC58JwvvvhCbzvki/ZBXHTwL7YLF4GkpCT9GVA6wr+FbRO2G+930kknyWOPPaZLq7hZwEX3uOOO0/sG+xY3DGPHjtUXH2z/2rVrI1W3Ds62F/e1sB8LOj5oSoCwirJ/vD3enW088cQT9b9oV0ZtBGSGkxalHOfmBH/HBRnnXd++ffX3A985m+8ISn/YfggEr4vH4X3mzJmjbzwgMudCj9I3jhOqQXF8HJEtX75cf84aNWroGyrTccb2oPSJ41jQNuEYjBo1yno/4WfUNODcgkixLdgGfGerV68ur732WqTqtbBtx3loc2zdtVfu/Y7PgvMZ21HYvrR5H2yfzbHBtsR6v5KiAWcZPGYVSrgUcCSMkwsXdZxgzz77rJYO7kJRQnJL2GmTRLUUBIQTHNVcePy5556rLzq4m8cJhZIano8LHEpbkKdzx4yLihucaLiY43k4gVEV1rNnT32hxA0BTtYuXbpE2p8aNmyoHwdZ4b1RKsbfcAHxShild1wwcGeN6nbc3Q8aNEiLDHfpeI7TYxgXQlSB4SJku014HbwfLlL9+/fXUsPzUZuA0ggei4u9U8WICw1eExci75AwZ9uL+1r4fUHHB8cQF/2i7h/TNuI1URXptBViG7AtyKJFiyLvgxO5Tp06WpS4eOOxuLko7DuCCzBurCBMbCs+Ex6H/YF2XXweGwnjd47ITMcZ2GwTSnAzZsyw3k+OhHGTiOfiBg5tphhFgPfB9wnHynbbbY4tttk5Pu79jrZh231p8z5olrJ5PXwHYr1fSdGAswweswolXAq4Jfzhhx9qkX355Zd6P+GkwcUfbTT4Oy6sOEkhHtxR4zG4WOLkwV03Tjx00Jo4caI+OfE3XHRwEjkXJPweFyXc5bpPLlwkJk+erE/0o446Sq644gr9HqjqxHvjQtStWzctJZRcUXLDCXzEEUfoKlqUFp0OHF4J47WdoVj333+//j0uCqgCxGfG30wXZ9ttciSM1xw/fry+QOE1UWLFPkE7GEp1ABdElKLxPqiC897lO9te3NfC5yjo+LjlWJT9Y9pGvN6YMWO0xJ2aDNwU4BjjO4Rj7zwOF1yn5zzeD+1/hX1HUGLCdwmlRtx84HHO8/F7bKdJwqhKhchwsYcc3CIzHeeibBNEiuNis5/wfOzrmjVr6hso3NxCvKgihnhQDYvvss22Y3tsjq1bwu79js+Hqu/C9iWea/M+kKjN66HkH+v9SooGnGXwmFUo4VLAK2GcsDgJcbcOyUE4OBnxd5QKcXGFjPA3lApxoUDnClSJ4sTBiYXg4oHf4eSCHCETnGR4HqTpnLQOuPA4d9Y4sbEtuGuGXJGVK1fqCwROXlTh4UJ6yimn6ECSqEZ3OnCYJIy7e5zMEAWqvvB3lG5Rder0kEVnM2w3PhcuzrbbhIsoXg/PhbQdqY0cOVL/DtVuznhJPBYXYWxbQRIuzmvhcbiIF3R88pNwYfvHXW3ubCP2CUosKK3gGGPf4DVxoUbVp/M+7s8CIApsR2HfEdyoYdvxPqjSdarc8X6oJcDv3W3C6DCH93Y+EwQ3depU/ThHwvi+e49zUbYJ1ey2+wngsegMhm3AOQSx4LuLEqZTc2Oz7aj1sDm2bgm79zu+yzb7EvvI5n1wnbB5PXxHS2K/EnvgLIPHrEIJlwImCeMkQdsdervi7hdDl3DyoZSL4Qc4wdAWhJMLJw+qn3CnD1mhStLdtotqYlQr4vVw8cPj0LnDKc054CTDRRd3y3gMTn787Aw9wh01TlxcNCEknNDYhvbt20c6r+CigIuXV8L4TBA0XsMZSoFSCC4eKO1DYJAwen/iQoj94bQVopRb2DY5bZ/ekqWNOPOTcHFeC/sGF/eCjo9Jwjb7x72dzjbiBgjteag2xTHG/sH7oJSH/WfaLwDiwcW+sO8I3gftjOjEg6p/fA5sI0rI2A+ounQkjMdi4hi8XkJCgn49NK2g5IkmC0fC+Jze44yqV3znC9sm1ELg+2C7nwBuaDGRDfbBgAED9A0qth/HzqlBsNl2NBfYHFu3hL03WTb7Eq9p8z6Qus3rYVtKYr8Se+Asg8esQgmXAiYJA1z4UZUF+WJ/OaUbDF3ARdbpUIGen/gZF2TnLhkXOvSGxEmECwGqs9ExAych9j+qPSEvLygZoPMTqqfwfrgwoe335Zdf1p2UcBeNExKvhddFKQxSxHAMXBxwMuOi6u14hNdFlRhuKjD8Chc3DAHChQZDMPAcfG6MfcZ+gODxnmgHwwWjoG3CxcQpCRdHnN6Li+kCavtauAFB6byw4+OVsM3+MZWE0cMYbdcoraAaEY/Hz+h4BLGZPouD02O2sO8Ibo4whAifB9v/yCOP6NIkLs7HH398RMKOXPE9wN/QOQiPw3HDjaQjYbym6Ti7e0fnt00YYoMOSrb7yREsqqEhU9Qqob0T3xt8h1Btixsn7KvCth0itDm2+UkY2OxLnDu272Pzeu7e0bHar6RowFkGj1mFEi4FcAFGaRLDEXAhdpdWnGpfVE1hSAwkiIsV7mYxTAgXB/weFxScjDi5UCqCWFDSRbUUhvTg+RiTib9D7PmN+8OJhgsIOoKgeg5DGnC8UMrFOGDcAGBIBNpB33jjDS0TvBdEiAsbtgVVf7hgYQwi7r5ROsZFAJ1D8BhsM9ot8Tf0TkWVHwSM94bUMNwJJV88DsMksA8K2iaU+nGhcb8fZIjXRHUbfofXxH4DeC1cnDBuE58HFzM3EKyf18LxLOz44HlF3T9unIs8erviIo32QhxfPA/vhRsjlCxNn8UB+9vmO4LPhOOL0iRKXXgcHoOhRvjc+B5ABngcqkQxfhmfGcfIGRsLOeDmCaWs/I4zPlNh24S/ofev7X7CdxOdmPD+uDmB9LFdkBEEA7GhdgnPK2zb8T20ObbYD/ntd9t9afs+tq8X6/1KigacZfCYVSjhUgAniDMDE0pcbjniQorqNLTfQng4mfF43L2jVIF2UUgIj4EY8Bp4DF7DaR/CBQ9VVDhZTe/hxXl9vB+eh3ZGVFU54xfxXvgbTm6nI5Zz94/fo+OWcxPgVPnhNXFzgYswXhNtXBA1XgO/d7bH+byQCN4X1WN47YK2Ce+F57nfD6+HoPMKfmfaVvze2Vdu/L6WzfHB84qzfxwcCaP0gx712F+4MONfvJezfabP4sb2O+KUutA2iFKac5zxWGc2Kedx+C7juGF78L2FzLG9+GzODU9+x7mwbSrqfsI+h7wgXdzoOscDVdK4gUPJF73LIT2bbbc5ttiGgva7zb60fR/b1wOx3K+kaMBZBo9ZhRIuxzgnu80JgpMMKSp4jnNRiBV4LVw4Ctpu531NjymJbSoJinJ83NjsH1N1Z3Hey43Nd8T2M9k+rqDjDAraJpv9BKmgmh7NGGjqgdSw71BrgWpX7D93D21gs+02jykMm9eweYxDUR7rd7+SogFnGTxmlZhJuL+ScKfO7UX9nhImxCcQiXvGLXdbLzkMSrJoH8d+wixrmHnqqaeeisxihf+jw5VTWiSkJICzDB6zCiT80MM1JTEpXrr36CrvvU8JE1LmoFoS7ZfowezMPU2igVxRPTts2DD53//+p6djRAkY/0dPaTRpeDvmERJr4CyDx6xCCRNSDoFcIGK0ibPNrmBQvYr2fLRvonoatQj4vzO2mpCSBs4yeMwqlDAhhBDiAzjL4DGrUMKEEEKID+Asg8esQgkTQgghPoCzDB6zCiVMCCGE+ADOMnjMKjGWcBIlTAghpEoBZxk8ZpXDEo5TEu7iR8J9whJuRAkTQgipMsBZBo9ZJVrCIylhQgghxBY4y+Axq1DChBBCiA/gLIPHrEIJE0IIIT6AswweswolTAghhPgAzjJ4zCqUMCGEEOIDOMvgMatQwoQQQogP4CyDx6xCCRNCCCE+gLMMHrMKJUwIIYT4AM4yeMwqlDAhhBDiAzjL4DGrUMKEEEKID+Asg8esEhMJL16yUPr17yMdOyVJ02aUMCGEkKoDnGXwmFW0hB9SEk6Mk27dlYTfo4QJIYQQa+Asg8esQgkTQgghPoCzDB6zCiVMCCGE+ADOMnjMKpQwIYQQ4gM4y+Axq1DChBBCiA/gLIPHrEIJE0IIIT6Aswwes0qMJZxICRNCCKlSwFkGj1nlsITbKQl3Lq6EFygJ96aECSGEVDngLIPHrBIt4RGUMCGEEGILnGXwmFUoYUIIIcQHcJbBY1ahhAkhhBAfwFkGj1mFEiaEEEJ8AGcZPGYVSpgQQgjxAZxl8JhVKGFCCCHEB3CWwWNWoYQJIYQQH8BZBo9ZhRImhBBCfABnGTxmFUqYEEII8QGcZfCYVShhQgghxAdwlsFjVomZhPv26y0dOiZKk6aUMCGEkKoDnGXwmFUcCScoCXft1lnepYQJIYQQe+Asg8esQgkTQgghPoCzDB6zCiVMCCGE+ADOMnjMKpQwIYQQ4gM4y+Axq1DChBBCiA/gLIPHrEIJE0IIIT6Aswwes0oJSLghJUwIIaTKAGcZPGaVkIQfVBJuqyTcya+EEyhhQgghVQo4y+Axq1DChBBCiA/gLIPHrEIJE0IIIT6AswweswolTAghhPgAzjJ4zCqUMCGEEOIDOMvgMatQwoQQQogP4CyDx6xCCRNCCCE+gLMMHrMKJUwIIYT4AM4yeMwqlDAhhBDiAzjL4DGrUMKEEEKID+Asg8esQgkTQgghPoCzDB6zSswk/Hbf3tK+Q4I0bkIJE0IIqTrAWQaPWQUSrqkkHJ+gJNy1k4x6lxImhBBCrIGzDB6zCiVMCCGE+ADOMnjMKpQwIYQQ4gM4y+Axq1DChBBCiA/gLIPHrEIJE0IIIT6AswweswolTAghhPgAzjJ4zCo+JNzII+FeYQk3oIQJIYRUGeAsg8escljCbShhQgghpKjAWQaPWSWvhDsqCQ+nhAkhhBBb4CyDx6xCCRNCCCE+gLMMHrMKJUwIIYT4AM4yeMwqlDAhhBDiAzjL4DGrUMKEEEKID+Asg8esQgkTQgghPoCzDB6zCiVMCCGE+ADOMnjMKpQwIYQQ4gM4y+Axq1DChBBCiA/gLIPHrEIJE0IIIT6Aswwes0psJLx4gfR5u5d6UoI0akwJE0IIqTrAWQaPWUVLuOaDEhffRrooCY8cRQkTQggh1sBZBo9ZhRImhBBCfABnGTxmFUqYEEII8QGcZfCYVShhQgghxAdwlsFjVqGECSGEEB/AWQaPWYUSJoQQQnwAZxk8ZpUYSzheSbg+JUwIIaTKAGcZPGaVkIQfUBJu7VfCPSlhQgghVQ44y+Axq+SVcAcl4WGUMCGEEGILnGXwmFUoYUIIIcQHcJbBY1ahhAkhhBAfwFkGj1mFEiaEEEJ8AGcZPGYVSpgQQgjxAZxl8JhVKGFCCCHEB3CWwWNWoYQJIYQQH8BZBo9ZhRImhBBCfABnGTxmFUqYEEII8QGcZfCYVShhQgghxAdwlsFjVqGECSGEEB/AWQaPWYUSJoQQQnwAZxk8ZhVKmBBCCPEBnGXwmFUoYUIIIcQHcJbBY1aJiYQXKQn37tNTEpOUhBtRwoQQQqoOcJbBY1ZxJNwurrV07qIkPJISJoQQQqyBswweswolTAghhPgAzjJ4zCoxlnCcknA9SpgQQkiVAc4yeMwqhyXcyo+E5ysJ96CECSGEVDngLIPHrJJXwu0pYUIIIaQowFkGj1mFEiaEEEJ8AGcZPGYVSpgQQgjxAZxl8JhVKGFCCCHEB3CWwWNWoYQJIYQQH8BZBo9ZhRImhBBCfABnGTxmFUqYEEII8QGcZfCYVShhQgghxAdwlsFjVqGECSGEEB/AWQaPWYUSJoQQQnwAZxk8ZhVKmBBCCPEBnGXwmFUoYUIIIcQHcJbBY1ahhAkhhBAfwFkGj1mFEiaEEEJ8AGcZPGaV2Em4dw9JSIyThpQwIYSQKgScZfCYVSDhB5WE27ZrJZ06t5cRlDAhhBBiD5xl8JhVKGFCCCHEB3CWwWNWibGE21HChBBCqhRwlsFjVjks4ZZhCQ8troS7hyVclxImhBBSZYCzDB6zCiVMCCGE+ADOMnjMKpQwIYQQ4gM4y+Axq1DChBBCiA/gLIPHrEIJE0IIIT6AswweswolTAghhPgAzjJ4zCqUMCGEEOIDOMvgMatQwoQQQogP4CyDx6xCCRNCCCE+gLMMHrMKJUwIIYT4AM4yeMwqlDAhhBDiAzjL4DGrUMKEEEKID+Asg8esQgkTQgghPoCzDB6zCiVMCCGE+ADOMnjMKpQwIYQQ4gM4y+Axq8RMwr0g4YR20qAhJUwIIaTqAGcZPGYVLeEHH5A2bVtKx07REo6nhAkhhJD8gbMMHrMKJUwIIYT4AM4yeMwqMZZwW0qYEEJIlQLOMnjMKiEJ368k3EJJOMmPhLuFJVyHEiaEEFJlgLMMHrMKJUwIIYT4AM4yeMwqlDAhhBDiAzjL4DGrUMKEEEKID+Asg8esQgkTQgghPoCzDB6zCiVMCCGE+ADOMnjMKpQwIYQQ4gM4y+Axq1DChBBCiA/gLIPHrEIJE0IIIT6AswweswolTAghhPgAzjJ4zCqUMCGEEOIDOMvgMatQwoQQQogP4CyDx6xCCRNCCCE+gLMMHrMKJUwIIYT4AM4yeMwqlDAhhBDiAzjL4DGrxEbCi+ZLz17dJF5JuH4DSpgQQkjVAc4yeMwqkPADSsKt27SQDh2TZPgISpgQQgixBs4yeMwqlDAhhBDiAzjL4DGrFFvCTZs1yoyWcBtKmBBCSJUCzjJ4zCqHJdxcSThRSXhIHgknJLRtEzARXRLuGpbwW5QwIYSQKgOcZfCYVQqTcL4lYUqYEEIIoYQJIYSQMgPOMnjMKpQwIYQQ4gM4y+Axq1DChBBCiA/gLIPHrEIJE0IIIT6AswweswolTAghhPgAzjJ4zCqUMCGEEOIDOMvgMatQwoQQQogP4CyDx6xCCRNCCCE+gLMMHrMKJUwIIYT4AM4yeMwqlDAhhBDiAzjL4DGrUMKEEEKID+Asg8esElMJx8W3kXr1KWFCCCFVBzjL4DGraAk/cL+0ah2S8LDhxZDwQiXhHj0pYUIIIVUPOMvgMau4Jdy+AyVMCCGEFAk4y+Axq1DChBBCiA/gLIPHrBIjCX8blnBrSpgQQkiVAs4yeMwqhyXcTEk4QUl4MCVMCCGE2AJnGTxmFUqYEEII8QGcZfCYVShhQgghxAdwlsFjVqGECSGEEB/AWQaPWYUSJoQQQnwAZxk8ZhVKmBBCCPEBnGXwmFUoYUIIIcQHcJbBY1ahhAkhhBAfwFkGj1mFEiaEEEJ8AGcZPGYVSpgQQgjxAZxl8JhVKGFCCCHEB3CWwWNWoYQJIYQQH8BZBo9ZhRImhBBCfABnGTxmFUqYEEII8QGcZfCYVWIq4XZxSsL1KGFCCCFVBzjL4DGrOBJu2Sos4WHFlHD3HiEJ16WECSGEVCHgLIPHrJJHwu0TZCglTAghhNgDZxk8ZhVKmBBCCPEBnGXwmFVKQMJvUsKEEEKqDHCWwWNWCUn4vgIk3MZWwl2UhFtRwoQQQqoUcJbBY1Y5LOGmSsLxSsKDKGFCCCHEFjjL4DGrUMKEEEKID+Asg8esQgkTQgghPoCzDB6zCiVMCCGE+ADOMnjMKpQwIYQQ4gM4y+Axq1DChBBCiA/gLIPHrEIJE0IIIT6AswweswolTAghhPgAzjJ4zCqUMCGEEOIDOMvgMatQwoQQQogP4CyDx6xCCRNCCCE+gLMMHrMKJUwIIYT4AM4yeMwqlDAhhBDiAzjL4DGrFF/CzaIl3LYdJUwIIaRqAWcZPGYVSPh+JeEWLZtq8UZJON5CwgsWfivduockXKcuJUwIIaTqAGcZPGaVKAkPpYQJIYQQa+Asg8esQgkTQgghPoCzDB6zSglI+A1KmBBCSJUBzjJ4zCoxkvA8JeHOSsItKWFCCCFVCjjL4DGrHJZwEyXeOCXhdyhhQgghxBY4y+Axq1DChBBCiA/gLIPHrEIJE0IIIT6AswweswolTAghhPgAzjJ4zCqUMCGEEOIDOMvgMatQwoQQQogP4CyDx6xCCRNCCCE+gLMMHrMKJUwIIYT4AM4yeMwqlDAhhBDiAzjL4DGrUMKEEEKID+Asg8esQgkTQgghPoCzDB6zCiVMCCGE+ADOMnjMKpQwIYQQ4gM4y+AxqxRbwk0NEm7TlhImpKzIzfX+phjkxuh1CKlCwFkGj1lFS/j++6R5iyaSmORDwl27hST8Vh1KmJCSxiRK/TvX7/GzE/17TyJ/c2P6HX5t+B0hJAScZfCYVbwSHkIJE1JO8Yow/LMjWbdwIwLOcf3fFNff3a/llrHzbwTvz4RUceAsg8esQgkTUo6JEqCDI0mXMLVQXclxku1J+Pfux3mfGxGz+33C7+sm3+0jpAoBZxk8ZpUSkHBtSpgQv7jl5hKgsSRrEm1WKNn5xPm78xj3c6OEbBCz3hzXNlLGpCoDZxk8ZpWQhO+NhYQ7KQm3oIQJ8UMBJU23CL3ijQg2M5QsJONwMl3/98Z5jo5JzJ7SslP6Prxhrv9SxqQKAmcZPGaVwxJurCTcjhImpCzIIy9HtO64JOiUdPNI15Ft+uFkHLKL+zl5ZB2WslfIeUrF7s2mjEkVBc4yeMwqlDAh5QSvxEzydcTrLum6hZt+MJw0kUNOUg1x/R2PdZ4XEbMjZ0fGrlJyVAkZ200BkyoMnGXwmFUoYULKiChZhWVWoHxdpV0tTLdwlVwPpoQTFElLzicHXP8Phh6rk3JY0o6Y8fpOadkpHTslZG/J2F2Cz/OxvJ+TkEoGnGXwmFUoYULKkEiJ151wCdORr1PqzSPegy7xQriIkmsqsl8k5XeR4G+e/JrrinrMb6HH6ewPPQ/Ph5wdMecRsqvqOk9VteuGISJk1+cL/efw7wipbMBZBo9ZhRImpCzxlCDd8tUCRukzLN9INbMj3nCpVkv3NyXWX7IkuPuQBLcFJXnTb5K87mdJXrVHgst3SPC7bZL83VZJXqqi/h9cpn5esUuCq/dKUD0u+MNvEtwelOBe9fx92VrMeF28vruUjPd3SsfuduOoXtXuUjEFTCo5cJbBY1ahhAkpQ5ySr7vqWXe6cpd+Uep1qprD8kXJVZdof8zQ0g2u/UlSZq2Q1HcnycGOb0t63eaS8dQLknXX/ZJ9w18l58qrJeeKGodz1TWS/Ze/Sda9D0nGsy9LeoNWcrDLAEkdM0WC89dL8vpflJRTJPhTpha8FnK4hByRsauaOtJmHG4vxmdxD60ipDIDZxk8ZhVKmJAywCkhRqqfDe2+uvTrKvmiqlhXHaPEu0MJcs1eSZ34jZJuX8l4qbZk3foPybn4Usk95zzJPfMsyf3zaZJ78ikiJ54ocvzx0VG/zz3lFMk97XTJPetsyT33fMm59HLJuvNeSX+tvqT1HCwpUxeESso701QJOUe/v1M6dmTsdOLyitjptOWuniakMgJnGTxmFUqYkBLGKyFT6dctYK98Ib2U31Wp9+csSd68X4JzV0tanxGS8fKbkn39X7U8c08/Q+Skk5VcT4iWbVFywgla3LlnnCm5F1wk2Urs6bUbSdrgsRJcsiVU6v4lO0/JOD01VFo3lYrdVdOEVFbgLIPHrEIJE1KKRNpKnapnV+crp+oZAkbVMyQH2UF6wS0HJOXrZXKwQx/JfOTJUIkX4j3xpGiRxiwnaLGjVJ1z6RWS8fSLktZrqAQXrA9VVf8aqqbWpeKUvKViUw9qp+RPSGUDzjJ4zCqUMCGlhCNgZ3xtpPOVS8B5qp7R2QrVwIs2ycGuA0PyvfBiyVUnLUqs0dIswaCEfNrpknPJZZLxzEuSNuA9Ca7aLcE96ZKqSumRUnG441ZkfHH4MzqlfrYPk8oInGXwmFUoYUJKgUgJOCxhR75Rna8g4HDpF52j0NEq48XaWn5lIl9vHBlfUUPS32wiqRO+0j2rU37NOVwqRluxu3ra03uaIiaVDTjL4DGrUMKElDDuTlgmAev2X6f6GW2/GGa0cKMciu8uWbfeoTtNlbl8vUGnrurn6t7VB7sPkuDqPbontVMqziNibxtxuJ04ah8RUkGBswweswolTEiM8QrF3RHLaQNGdW2kBAwBY7wvqp+3JUvK5NmS8VoD3e4r6N1c3gTsBKXiU/8sOZdfJYcat5OUb5ZLcFea7kTmiDgyptjbRuy0Dzv/ElKBgbMMHrNKTCXcug0lTAhwVz9H2oGzXSXg8OQbTgcs3f67+XdJe3eyZDz+nO7xLCfkM7SovEWVinMuuEj31k6Z+I2e9MNdInb3nNZjoD1V05QwqejAWQaPWcWRcLPmSsKJfiTcNSzhtyhhUoVxC8Up6bk6YjkCjpSAHQFv+lXSBo+RzPseLp/Vz4UFpeJzzpOMJ/8jqWOnSnDrgcMiTjksYgxfgojd1dJuCVPIpCICZxk8ZhW3hBOUhAcPoYQJiQlONXSkJ3S4F7S3BIwpJtMGfiBZd90XGnZU0QTsBCI+u7pkPvp0aOYtVK2rz3fQ1Ubsnuoyj4RZIiYVGDjL4DGrUMKExJhINXS4Clq3AzvDkA6FhBQpAW/ZL2lDx0nW3Q9UbAE7cUT8+LOS+vEMCe5I1W3EzqQeqAVwJvRwtw+zxzSpyMBZBo9ZhRImJMZ4JeyuhtYTcQTDM2ApQaHqNrNmLT1DVYUXsBOIuPq5kvHcq5IybWFoLHF4+JKe0CM91DHNEbG3SpqQigacZfCYVWIo4Y5Kws0pYVJliZTowlLRnbFck3E4M2FhIo7gj5mS8uUSLarcs8+pPAJ2AhGfd4Gkv9VUgks263HPes5pV/sw9ktB7cOEVBTgLIPHrBIt4YGUMCFFwS0ORyTudmBnPuhIO/CvORJctUfSG7aS3PMvrHwCdnLCiXqSkUOJPSW44Rdd/R7pMe1US7vHD1PCpIICZxk8ZhVKmJAYEJGHuxraJWCUgt1DkQ72HKLH1+a7wlFlycmnSNYtd0jqyAl65afU313TW3rGD0eJmEImFQQ4y+Axq1DChMSKsIC1hE3V0JiOcm+6pE6aLZn3/0tPdBElrUqXE/QCELp9eN4aSfk5S1fH6wUf3MOWwhJmL2lSEYGzDB6zCiVMiB/CwnDag51JOZzOWFG9odf+KOkNW4cn46ik1dDeqM+Zc9ElcrB979A80xg/HJ5j2qmWxk2LsTRMSAUAzjJ4zCqUMCExQIsDAg63BUdKweExwboUvPugpI2aKNk33CRyUkkuQVj+knvqqZJ1b01J/WyuBH/M0KVh7BdTadgRMEVMKgpwlsFjVqGECfGJU3LzDkmKKgWv3iPpr9WX3DPPjpJUpQ9Kw+ddIIdatZfgxn2RTlrOGsSR0rAjYQqYVCDgLIPHrEIJE1JM3NWm+DdSFY0OWeHFGaJKwTWuq/ydsfJJ7imnSNad90rq5/N0aRhDlvSUlp4JPNg2TCoacJbBY1ahhAnxiSNj78QceUrB636W9DrNQ/NCGwRVJRIuDR+M7y7Jm/dLiquntC4NO7NohSfwcPYtIeUdOMvgMatQwoT4JE9VtKsUDAmHJubI0G2h2bfcIXLyydFyilXQ0Uud0HLmmSJnK9mfdZbIqacW3AEM2+N+/GmnlWhJHT3CM//1lAQXbpDgvmzjuGGnbZ1V0qSiAGcZPGYVSpgQH0RKweEOWXkWaQiGq6K3JcvBjm/rGaQwZMcrJt+BZCHPq68WefxxkUaNRFq2FGnSROTBB0N/8z4HgYBvvFGkXj2RVq1EmjcXeeEFkZtvFqlevWRkjNLwJZdL2pAP9drDeTpoGSbvIKQiAGcZPGYVSpiQYhARhFMKdvWKjnTIUhIOhjtkZTz7iuSednq0lPwGAkYp9t//Fpk5U2TXLpGffxbZu1dk2zaRMWNELroo+nkInte0qcjataHH//STyI8/iqxYIdK6tcill5aIiFElf6h+K718I6qk9XAlTN7hTGXpljBFTCoAcJbBY1ahhAkpLuFSsFMdDQmjNJfuag8O/pQhqZ/Okezr/lIiQtOl3KefDokzVb3pL7+IrFwpMm2ayNixIv/9b6i62fs85JRTRO68U2ToUJEpU0QWLBDZvVttuDLijh0iiYki559fcHV2MZJ7yqmSdd8jEly8SYL7cvKtknZ30GKpmJRn4CyDx6xCCRPiE3enLC1hV6/olB0pcrDX0NAc0QYh+QrkiCro6dNDAt60SaRFC5EbbhC55JJQCfiMM/KXKH6PNuMLLgg9vkYNkeeeE5k1K/R6GzaIPPJI6DHe5/oJqqQvvUJSR38uwT2HQr2kIWFPlTSHK5GKApxl8JhVYivh1s3lTUqYVCG8nbLc7cEpSsLJm36T9HotS2ZsMErBzz8vsmePyG+/ibRrJ3LxxcUvcUPKKDXXqhUS+n71Ad5+W+S886If6zO555yn28mD25MPL3PoXl3JNVSJkPIOnGXwmFUg4fsg4WY+JdxFSbgVJUyqEI6AtYRdQ5MOrxksElzzo2Q++nTJzBN9zjki7duL/K7eaPNmkVtuKb6AnUDEl10mMmFCSMIzZoTahr2P8xmsn5xeu2GoXdiRMIYqmdqFCSnnwFkGj1nFkXBTJeH4hHYyaDAlTIgd4bbKyLrBzixZaeH2YCxZuPgHyf7L3/zL0RSUUPv2DZWCFy0SueKK6McUJ3hdlIAh98WLRS6/PPoxPqOHKj38hL5J0Z2znNmzXBJ2qqMpYlLegbMMHrMKJUyIDyLV0YapKoM/Z0vw6+9DSxYaROQ7KAl36iSyfbvI55+H2nW9jylOMDwpLi70uiVUEsZNSfZNt0rwu226B3m+nbPYJkwqAHCWwWNWKQEJv04Jk0qPUzrLMzzJJWE9ScdPmZIy5Vs9LjZKQrGI07u5e/dQ2zA6YXkfU5xg/PCtt4p07Sry0kuxe11Pcq6sIcH563WNgUnCkY5ZhJRz4CyDx6xyWMKNlITbUsKEFEZkWJJTHe3tGR2WcPLeDEmZMFNyLi6BkiSC9tvTTxe58MLQmF9IGQL1G7yO87qYRaskqtJVci67UoJzVumZs/Qaw+Ee0pQwqWjAWQaPWSVawgMoYUIKxCRhd89oDE+ChPekS8rYaXotXa+AfAdixBCkO+4Q+ec/SyZ33y1y222hau8SEHHOZVfo6vrkn10SdpeE0TmLEiYVADjL4DGrUMKEFBW3hE3Dk5yVk/Yc0mNhS0TC6DzVo0doKBEm2CiprF4t8vrrJVIlrSU84zsJ/pyVv4TZOYtUAOAsg8esQgkTUlQgBAsJJ+8+JCnvf1YyEsZMVgMGhKamxHSTJZX160Xq1s1/1i0fcSScHJYwqvEx25hpDmlKmJRn4CyDx6xCCXvIzclRJ3+2uqhmMlUoOVlZkpttWf9pUxJGx6ySLAmj7RYzXD3xRGiWq5LIs8+KPPpoqNq7pKqjv1oWKgknx6YknKseiOOI4+k9xkzlDY43rtu4fpcFcJbBY1ap8hLGQctITZXUX36R31Wp4uc1a2T30qWy/dtvZdvcuUwVyPZ582TX4sXy48qV8vvWrZKiSoDpKSn5ntARAYcT1TErUh2dLqkfflEyEkYgRixdiJmzSiqFLYXoI6E24eUS/MVfmzAuvoeSkyW4d6/8+sMPsnf5ctm5aJE+rt5jzVTCqOO8Y/582f3dd/LzunVyYOdOSfv1V8k8eFDflJUGcJbBY1apshLGwclQF1qctN+/955Mev116X/DDdL9gguk27nnStfq1ZkqlG7nnCPdzz9f+l59tXykSoCLBg2SX9QJfejAAaOMnXO7QAn/mCEpn3xTsr2jIcpY92J21iVGCRi9rmP1up6EekevPryIQ1rRhihBvmm//SZ7vv9e5nbvLqNr1ZI+V1wh3c47T7qq4+k9xkwljjreuG73UOfCoFtvlc8bNJDVEybI/h07SkXGcJbBY1apkhJG9QUOztLhw2XEPfdIF3UBSzzuOGl3xBHSRr0/U3XT9g9/kIRjjpFOp58ug9XJPK9HD32jlpWebjRCpDraGSd8MDxZB3pHY5zw1AUlN04YosQCCx98EFoTGCL2PqY4QekX6xBjGcRmzUKTd3gfE4PkXHm1BBdulOCv5sk68pMwLqiZaWny0+rVMqNtW+l/3XXSUW1z/J/+pI+f95gyVSjKO+3++EdJUt8vSHn0449rGaOWBDdtJQWcZfCYVaqWhHHyqrsiVD2Oe+EFfQcVd9RR+sBFHUymagcn85FHSuczzpAxTz4pm7/+OlRF7bGCLgkbJuvQM2b9ki3Bb1ZIzhU1ogQUk6iLjHTrFlrAASspxWpmKwxJSkoKve7s2aG5pL2P8ZuTTpKsW26X4PfbJcWZMSu/krBrl2P/H/z9d1mjLqy4ge6g5MubZ8aUtuocxg01SsdTGjbUVdXZGRnmOzufwFkGj1ml6kgY1c+pqbLpiy/0yYs7JRwk74FjGHf0iXzssTLolltk7aRJkp6cfFjETptwuDSMOY/dEoZcgku2aNlAOlEi8hv3HM9Ll4pceWX0Y4oTvG7//iU7d7S68GQ+9owE14bnjg7mlTCmAfXOHY39nrZvnywdNkzerlFD4o8+mjfQTKFB7QhqSsY89ZTsWLgwVKsVY+Asg8esUmUknHXokGz55htdxYhqK568TFGCGpMBN94o6z79VFeFAi0IiMLdQ/pQaCECSEWvorT2J8l48j9KOqdFich3UE0cHx9awGHbttDEHX5lj/ZgLATx2WciBw6ITJsWuzmpXck98yxJr9tML/WI/YR2dGcpQ+xHd89oZ2cf2r9flgwdKr1VyRxVjt5jxDD5BTfTKHi998gjuuMeelPHEjjL4DGrVAkJY4f/uGKFvFuzpiT83/9FHSCGsQlKXsPuukt2LVkiOZmZ+rvliDjPMKW00NJ8unPW5t/lUON2kntWCbSrok0YQ5R27gwtO4jJO1AaxvAl72Ntgg5YqOLGfNE7doRKwl26hKqnvY/1mdxzz5eDXQdIcHswtJ6wScKuWkPcRKMWq99111HATPGinNRefccnvPKKHgVh6nBZXOAsg8esUukljCqslB9/lM/r15cO6uLEEjBT7OBuWp3E6Ekf3LMnUi2tq6S9nbOcscI7UyWt/3uSc+HFUSLyHZRaUVU8frxIcnJohqvevUPTTapzULflorScX+9mp3c1Sroo/d58s0ijRiKqpCAH1YdQN656+krMJe19rp+o98XKUqnjvpTg3vS880Z7JKyTnaM7x7338MMSf8wx0ceFYSyDEjE64s7t1k0O4sY1RsBZBo9ZpdJLGPX/G6dNk54XX8yek4zv4CTuccEFsm7SJMk6eCgiinw7Z/2cKSlfLJLsm2/zX1VsCnoyP/CAyLx5IRGjChklY4h01iyR5s1Dw4y8z0Oc3tWoekab8pYtIvv2qbsHtfEbN4qoG1ct8RiPE9ZrCT/ypO6UFekZbeiU5cxMdig5KAv69ded5HgTzfgNalIG/OUvelxxrKql4SyDx6wScwm/8Wb5kjBKwR+/+CKroZmYBd+lcc8/L0H13crTOQsS9lRJ685Za3+UjJfflNzTYz//cmQlpfvuCw0pgkj37g31bN66VWT06NB4X+/zEMi5aVORtWtDj8fzUA39zTcir74amhozxgJGcs+uLoeaJeqqet0eHPRURTudsrBPc3LlN/WZhvzjHxJ35JFRx4JhihPUimJ4G3raxwI4y+Axq2gJ3+dTwvMXzJPOXTpKy1blS8K4y0H7Xa9LL2UpmIlZ8F3CdwpD3bIzs6I7ZznTV4bbhVO2B+Vg90GSc8HFJSI1/ZqoMr744tCqR48/Hlpf+JlnQlXM+VUno2SO6mzn8U8/LXLPPaGqbCzYUELbikk60t6dJMHdB0NV0SnRVdFOz2jUNqydOFG6qhsGloKZWAWlYYx4+A1tw+7OB8UEzjJ4zCqOhJs0bSRx8UrCgyqRhNODQVk4YIB0VB/SexAYxk8w5GF+3776O5anc5a7XTg8aUejUGHIAABEd0lEQVQQk3Z8uUSy7rpPcvMTYqwCsaKKGm29qG4urArcPfUl/kWnrpKQbzi56n0ynvpPuCq64JmyEEw/OKVxY0lS2+Q9BgxT7Cg/YZatH2bMCI0d9gmcZfCYVYot4S5dOxzq3qOTLFr0rSxeMl+Gjxgiffv20k8sLxLGfNATXn1VEo89NvogMIyPJBzzf/Lhs8/p5g5HwkhUu3C4Sjp5wz451CROcqufGyWmKhOUgi+8WNK69JfgtqCkOlXRaaHaA1Tl5120AVXRW/U0hOwRzcQ67htpv8BZBo9ZBRJ+4ola0qt3d3lnUH/5ePyHsn37Zhk27B3p0rW9dO3asVXAxOdTPsn8/vuFsn79Clm9epksW7ZAFi+eKzNnTpOrr766XEg4ec8eGXn//aFB/YHog8AwxQ2qpN++qoZe8AO9d91V0pF2Yfc80lhR6cMvJPumW1TptJhDiCp4dIesBx6V4EysIZypawl0VTSWLzRURWceSpcNU6bome1YFc3EOhiuNKNdu5i0C8NZBo9ZBRJu2Kie9ud33y3QPoVXV6xYIgsXzpGRI4e0DZioCBLGahroBcdp7ZiSCHrrLh89Wk/e4a6S1h20vL2kdQetnyS9QStVGj6nRKt8y2VQCr7gYjmY2FOSf/hdlYJzI6XgjHApWFdFu4Ym4eKIi2T7k06K2vcM4zeJ6nv5Wd26usnDL3CWwWNWqdQS3r99ux6axLtopiSCRT8mvv66pPz8S0QcBXXQ0qXhj6ZL1m13ipxcwm3D5SyYMSzzX09Jysxluo3c6ZCle0U7bcGuUrDk5OpFVobfc29ofnfD/mcYP0Ez5fiXX9bNln6Bswwes0qlljDWB8bShN6dzzCxSNsjjtBLH2Id4pys7IiI83TQ8s4lvf4XOdS6oyoVXlR1SsMnnCg5l14hB3sOkeCWA3lLwa4OWU6VPvYhxvdvmj5dup17Hm+imRIJhhp+/MIL6ib6Z686igycZfCYVShhhvGRjqqEt7B//7y9pMMdtNzTWEZm0EJP6a+WSsYTz5XMuOHyFnWjger39P/Vl+CybaG1g9V+SA8vW2jqkIWx16m/7NNrwmK+X+8+Z5hYhBIuOL28H7I4UMJMSQed/jAnOZo+MLFEnirp8OQdkE1kPmlVCgxuS5a0QWMk+8abK30nLXTGyrqnpqSNmx4aF7xf3ZAEQ0O43JNzuEvB2VnZsmfZMul79TW6tsG7zxkmFqnwEo4eojRY+vbtWa6GKFHCTEkH01h2VSW9VePG6bWq83TQMo0bRietX5WI1/0kh9p0kpyLLtXVtV55VYqceKLkXHm1HOwxSII//KZvQPD5nVKwrob29IhGDh04ILO7dJUOp5wStb8ZJlYpTxIODVHqJu8M6icfjx9rN0Qp72Qdc6Vzlw7SslUzeePN1yhhpkoFJ/NHzz0nB3btOlwadrUNO9XSzsIOegKPX7IkOH+dpL/WQK8oVOnah9EOfOElcqh5ogTX7Dk8MUd4dix3NbS7KjonO0cvvj749js4TSVToilPEr7vvnukSdOGEhffxn6yDkqYYUJBabjbeefJ6vHjD5eGIRR3tXQGxr16ljncc0hSPp8rGc+8VLmGLaEd+PwLJL12QwnOWyvBn7PyTE/pCDhPZywVtAVjZZs53bpJx9NOY4cspkRDCRecXt4PWRwo4fKdtvnE+zhvvI+3fV5JJuGYY2T0E0/I7+G2YZCnfdgpDbtm0tLtwztSJPWjLyTz0adDaw5XdBFDwKpkn/FSbb16lB6WhfWCvb2h3Z2xnFJwVpZe2WbATTeV+gxZmHwl4dhj9VKVSSeVQNTrJqp9o4dbVZGbC9ycYr9inobyOHd/eZHwaeqGM6YSfqtObUqYyTeQZTuVOJV4lQSVxPC/+BnB3/AYt1hNz3NS0PNKK3qd0rPPliXDhuml9zQFVUs7w5Yg4q0HJPWDz/Q4WqwwVGFF7Aj4hdck5dO5EtyZZhyOlGdiDqctWN24YLz19FatpP1JJ0ft35IOJm744IX/yOTmzeTTVi1jn5YtZEL9etL3xhsr97hndR7EHX20dFClu24XXii9rrpSel9zjfS4/HLpXL26vhEpL53typOE73/gvuJLePacr2XR4vmUsM84d4341/u3yhCIEZJMUGmv0lmlu4r65krvcHqqdFPpqJIUCInVLd7CntfJ87zSljHaMAf//XbZu3y5LtU51dJ5ekujWtoZtuQePwwRj5kimU/+R3LPOa/iiViV9HIvuEgyXq0jqVO+VQJOjQgYnzNqakqnMxaqoRVZh9Jl05dfSp8rriz9Ge7UOdf5nHNk2dQpsmnlihLL2gXzZbKScVIlnQEM16+kk0+WIffeKzP79pWV33wta779VtbM/1ZWz50rSyZOVDci9aX7JZeUixuR8iThB1wSHjxkYFjCcYVIuGnDVDzg629mUMLFTfiuEe1f3S66SHqqu0XcPeLnylRtBSE6EoVA+6uMVPlI5ROVySqTVMarjFEZptJHpWsgJGTItYdKv/DzPvQ8b4LreW+rdAmEZAx5l6qI1fFqry5C05o102sN62rpsIRNIo501EoOV01vD0rqpFmS8cpbeqEDvcKRV3blLifo2b9yLrlc0hu0lJSvv9dDkVDC93bEcgs4UgJGsrNl38aNMrpWLV2tH7VfSzqoxUCb/tw5sn3rlhLLD6tXydSkRC2qqG2o4EHhof0pp8jY/74qy7+aIZvXrpFtWzbn+fxbf9gkG75bKrOHDJG3b7hB2pVxx7vyKuEhQ9/REo5PaFOwhJs0aZCMB8z8+ktKuBjBlxZVM4PvvltmDXpHVs36Rt01ztP/zho4UAbefrskHHdchS8ZQ8AJgVAJFhIdrTJdZZXKbvXZflcJqiSr/KayXWVJICTYUSqDVAaHnzdNZYXKLtfzEDxvh8oy9bdPVUYEQiVkCBzyL00RozTQQ91QrRgzRjKCKZEqaaejlq6WDo8fdjpq5SkR70qTlFkr5VCzeMm56ho93WO5LRWj+vmMMyXr5r/LoaSeEly2Vd18ZGgBOyVgPS2ld25oV0cs3Khg2sCZiYnSSV2MyuT7Xo0S9hsIbdQTj+vS7zYlW+9nj0SJedOqlTLrnYHS9fzzy7StuLxJuGmzkISHDhuUR8Jt27ZuEjDhlXAXJeFWrQ9L+Igjjoh6syKkl/dDFofyKmHnrvG9p56SZdOmyuZ1a/WX0/mS4i5y6eRJMvyhh3SHjjK5MMUgEHBiIFSihUgh1rUqB9TnyVDJVsn1BL87pLJP5ftASNgzws/bX8jz0lV+rRaS8bhASPplIWLUYgxRN1G7Fi1Spb9M/V10qqXzlIgzQ9W0EBWEFeo1natn1Qqu3isHew+TzAcfCw1hOrGQdYFLNSj9nqyn3sx46gVJGzpOT8cZ3Jete0HrNmBUQRsErCUcvimBhDNS02TtxEnS67LLyq6tsJpBwuo8RMlty/p1xmzdtFE/BqW9LRvWR/1dR/3eXRr0Slg3P7kStV0VJNj2bhdeIAvGjpGtGzdEi9cbtU/WLV4kY195RRc0vK9XWikvEj799NMjEo5PaGsv4cZhCc/46gtZsnRhRMJ1671BCRcQfGE7nn6ajH35ZVn59czQyez9kqrgy/z9F9Pk3aef0sKuaCKG9BICIQEPCYRkihIsRAlpSiHJqRaS8U/VQmK1fR4ec1Bls8rEQBmJWL03OvqMf+kl+XXzZiXecMOnScROG/HBkLi0iDGOeF+OJG/+XVImz5b0+i0l+5obdKmzzEvF6mYAnceybrlDz4GdgmUJtwd1KT4iYHTCcgRsWJzBETAWU9+pblSG3/1P3SwTtR9LK9WiJYzzEqW6eSNGyOzBg/Nk7vDh+tyEZNHW++2770Y9BlWuC8aMDt1gh1/TLWFUxaIJCh2WeqgbkO7q//jOVLTzHIk/5k8y4tF/ybpFCw8XJgoJ9t23746SjmeeEfV6pZXyIuEzzjhDHqz5QETCw4YP1hKOi29dsIQbNqr/Cx4w/cupsvS7RdKla0ct4Xr136SE8wkE3Omss2R8vbq6o0KB1TZbwxeCr7/Wd4wd1d1SRbpbRnss5DdQZYrKXnVxyTJIs7BAxoj39wUFIkaJeYsKSsSomkYbMUrm3u0sqeBi2kkdsxlt2khwzx4tYndpGMlTNe0avoQ1iDGhB8SWvDddl4pTh3wkGS/WlpzLrgjNOV3a7cUnKfmedba6Gbhe0t9orDuRBTf8HJoL29X+6/SCLrAELPg5W35eu1bGPv2MJB53fNn2f6gWLWEIc1r7JOl+8cXS4bTT8qSruqZMaNBANiz7TpZP/0J6X3111GM6qgvrgFtvlbULFuR5TUfCndV1YPGE8boJClk25XMZ8cjDSmhl0CbuM4nquzipWVN9Q+K9huUbJetVs2fpG5Cyuq6VJwnXdEl4xMihWsJt2rbQEm7ZpnndgIkGDevuwgOmTvtUln2/JCLh+g3e0hL+4x//GPVmRUgv74csDuVJwqhq66pO9E9btdIn5rbNP0R/MQ2BqFfPm6t7FXY+++wy+8IWJU41NHowo/MVSqWZBlmWZCBilKTRhozOXOisVaql4UDopqu7OuYL+veX1H37BMNwnFKgLg17qqadVZec6mndYWu/kjGmudyZKsFl2yVt4AeS8fIbknPVtbpEmnvKqSVXOkab76l/1r21s//yN0l/U8l31ER9UxDcfShP6Ve3/6YdLv1GtQG7BIwbEpybn9atq6emLPPSX7VoCUMon7ZuZezJjCUsP/zf/2T9d0tl+ZfT9bAj9K52p8t558o7d/5D1i5cGHlNt4S7nHtunveD0EcrIWCssvf9ynvQGXGqumHB5/NevwoKeovrDlqlPCbcSXmR8JlnnikPP1IzIuFR7w5XEt4tLVs11RJu1rLJ6wET9Rq8tQUP+OzzSbJ8xbKIhBs2qis1atSQI488MurNipBe3g9ZHMqLhPEl637JxfJFx46yfsliawE7wePXLlwgn7VprTszlPoQjiLGKQWjGnquSmpYil5RlnTwnmhHRkkcvaZLuzSM4Fj1vvxyWTZqlF6kPjdsokjPYIOI0WEL1blO9fRhGeeEZLxqj6S+/6kcatJOsu59SHIuvkxP9AFh+p6HGtXNqiSHGbyw/GDmw0/oOa5TP54hwbU/6p7PmPtaT8DhLv26q58dATulfo+AD+zcKV/Fx0tndfEpFzeV1Yon4Q3fL5MtGzeEh+DM8WSuPmfRruy8ZqESfvHFCilh9Fv5tGXLIpeEV8+ZLT2vuKLMvgPlRcJnnXWWPPLIQxEJv/f+SF0Sbt6iMSSc27Rpg5cDJurWf3MlJDz50wmyYuX3mGRaS7hR43pawkcddVTUmxUhlUbC6KSDAesz+/SWjeqk9Xbbtw1EvH7pEvmiU0fpccklZXb3WFhQ0kSJE+N2MWxoW7XiVUPHKqiWXhkIDV/CUCfcIHi3uaSDY/W2OifQY9ok4kiJGHFEHK6ednfaisgYvahVSTR5068SnLtG0gaPVUKO07NuoboYw5tyzz1PVx+j6ho9rFFizlUX/9yTTg79i5/x+9PPDJWozz1fLyaBlZ3Q2QrtvWnvTpLgkh8kuHm/BFEtjpLv/tB2OPLF9unqZ1Pp1yXhUOk/R/bv2CFfxcVJ1+rVy+ziG5VqxZcw+m6sW7RI1s6fnzeqlKdvuKuAhOOVzN57+in9eb3XrfyC/bbgw7G6ec77eqWV8iLhs88+Wx599BEt4YTEtvLBB+/Knr279M+QcP1GdZ4ImHizTu05kPAnEz+WVatXSNdunSIl4WuuuUaOPvroqDcrQiq+hNWJHf+nP8nbN94gs4cM1id1cQXsBM+HyGf2fVt61biqXAx498bpkIV2WHSMQkm0LErBTtCejPZoDHFCJ7HSrpJ2gok8+qrz4vv33pO0X3/VQoKYgFvETqk4XxmnhEqgaDNO/R0LQWTrYU3Bzb+rEvJuPVVk2vDxcrBTX0lv1FYyXn5TMh9/VrLuf1iy/nGPZP39Lsm6817JvP9fkvHk85L+ah051CxBDnYdKKlKuikzl0lwzV4JbtkfKvXuy5GU30PvB/ni/Z2hR5G2X89qSN4OWPrzqTsMTOn5ZevW5UvASLXiSRjV0ehcOeS+e3W1qjuooh752GOyziWmyiphHEu07WIyjvw6muaJuo7h86JvDDqjeV+vtFIeJIyhvNXV+VCr1r8iEh4z9n0tYRRoIeG6dd+4L2Dizbde/xgSHjdujKxbt1q6de+sJNxcS/i666+TPykBBQxvapmKLWG1Y9HBYuBtt8q3H7wvP6xZbd1rsLBAxLhAzBk6NDQFXln2KjUEgktU6asyVSXNIMbSDsYgfxwITfiREN5G73aXRlAi7nPFFbJ40CA9mUdudrizli4lHq6+jYg4Hxk7Y4sjpWMI2SkhY3jTLiXPbcGQmDfuk+DanyR59V5JXrVHklfuDv2Ln9ep32/Yp3tho4czStdY3Um39e4Pva4Wb7jN95C75Outeg7fQDgCdo+Pzs7IlH0bN8nUJk2liyr5lCsBI9WiJfzDqpUyNTFRd8LC6AR3upxzjhJIPbuOWQvNHbMqk4QRyHTsKy/rTmYFNrdt2aJ7jH/7/nuhTlll2LRWXiR8jvo+Pf7EY2EJt5OPlFP37N2pOzlDwrVr174mYKJOndrtIeHRY96TjZvWSXcl4dZtmmt736hKf/+nPmDA8KaWqdASRgkVJ+CicePyjgGOVdTrQez4IpeHmWfccTplYWjQl4HyIeEUFcyqhektEwJlJ2EEbcQ9LrxQvk5K0t/P7MysyPc1T/W0p2SsOzvlJ2NHyAiE7EgZ+T2UIPLb4ejfO/+GH6ul6ynxOh2u0Obrlq9T9RwRsKftN/R5ciUzLU12LVki4/7zHz0TXLkTMFItWsKoLl02ZYp82b27TOvQIU++7NpVFo8fr89tyPOr3r2iHoP+H98M6B+6AQ+/ZmWWsB56qW480EsaHUn1eGHPdc8pQCz88EN55447dE2h93VKM+VFwuep795TTz0uzZo3ksSkOJnwyTjZvXuH7pRVp27tnKeffvqogInGjevH40HvvTdCNm/ZJN17dNFdqiHhm266SY5VX6aA4U0tU2ElrAeuX3SRzBs1Ms8YwZgHIlYnNU70Lqjeq1bGPUzDcUrClHD+wXcEnZImvv667F2xIrz84eF1iPOUjp0SprdknI+QI1XWGOaEhEvLOs7/Xf9C3jrh5zjSdUq8EfHmI19v228kqpSf9ttvsv7zz2X4P/8pSceX4zGw1aIlDGHg/EJJFh2v3HHaezcu/163Cxf0mKrQJuwkNAfC6fL+s//WE3dgH+BzYT+hPwuq7qd1aC9vX399aChWGX8fyouEL1COeuaZpyISnjz5E9m+fYuWcP0Gb+UE8qNly6ZawiNGDJFt2zZLj55dpW3blkrC9eXmm2+W49VJFzC8qWUqrIQxA8yH/31Vf+m8d4Ixj3p9DHca9XitcjO+kNXRdtGzpp14koy8/35ZN3myHsKEBe01KE2GJexOvkJOD/eoDkdLOSxmLWd3wtXKThzhOtHSdZd4HfGaqp09Vc+h7c7Vk3Dg3Jvf523dDh6PJpNqZXvBLTDVoiWMySQWjf9YL7jwScOGRU+jhjK1ffs8PYYru4QRfK8hN3w+TMk75qWXZNwbteXdJ5+QPuq70OHUU8tNp9LyIuGLVKHt2eeeURJuLO3bx8vnUybL5s0btYQbN6mfv4Tj4lprCQ8eMkB27tomPXt1k7btWuJJctttt8qJJ54Y9YZFSIWVMKrc5gwdoqeti5JmCQTVXaj6wlg977aURZyOWRgjjI5ZmKKyrDtmYdatsu6YZYzaLgiqz+WXyzcdOuhFDFAqdtYj1jgyzs1bRZ1HyGEZu6us3XHkHBXP4/JUNbvEm6fK2Snx4n7BLV/BY3J07+8ts2bJuOef1+2/5eWCW2CqRUtYCzOfyTpsUtXahJ1Awuingg5tWLoQ+6/HpZfotnWUkvH5yst3orxI+JJLLpEXXnxOD0lq3yFBvpg+RdZvWKMl3LRZw/wlnJTULg4P6tevtx7T1Kt3d2kX10pL+I5/3C6nnHJK1BsWIRVWwphQ4/vpXxTcOSGG0dO/vfeu/oJ7t6UsAsG5hyhhQQbM6+yVY2kFk4SsVhkWKLshSoUF7cRYvODdhx6S1eMnSHDvXl2axOQemrDs3NXU+XbkCkvZiR577MQlake2TtzS9YreWN3slq/azoyUVNm3aZPM69lT+l13nSSqi225rX72plq0hDF/++zBg2Tk47VkyP33FTlDH3hAxr76il41yHnNyixhHGsMVUKntaH336/XZcbCNIs+/ljPDIb+KzO6d9cl4z7XXqs7uJW1jMuLhC+77DJ5+ZUXpEWLJtKhY6J8NfNLWbnqey1hJeYCJdwWD0KvaMzu0b9/H1GlY2nStIH88593yZ///OeoNyxCKq6E1ZcQg9C9siypbN20UX3JJ0inM8+M2payijNZBxZt+DYQqpIui9Iw3hMlcay+VFaTddhGX8T+9CfdaevTOnVk6+w5enUhLADhHlcc+k8ojgwjHbm8JWWPUN2idv8N45ON4s1Hus526I5XquSO8+y7kSN11Tqm6izvk8lEpVq0hHET7bQJr0Ubb1FThdqEcbxR8h/15BMy791R+rOjGn5zeKELBJOabF6zRt2UfCcrZnwpn7Vto2UMEZbVzVp5kfAVV1wh/3vtFWnRsol07JQkc+Z+oxdFCks4K5Af7eLbNMeDktrHawljDUQswwQJ33f/vXpliIDhTS1TsSXsOrlKOviCL5n4SZkOevfG6SGNjlCYtnJrtdKfthLBog8oBZfVtJXFCTq3oBMThjJNbdpUdsyfLyk//SRZ6elaeocFePjfqDglV0+J2Sk1e3/v/rsjX7fko95PWTs9GJT927fLqo8+kg8ee0y6nH12+W/7zS/VDBJW8sSCBEsnT5bFn0woRj7RK6Shpsp5zcoo4dBsgJfI1IQEPTxJf95C+sLgBmfTiuW6h/nwhx8us5XiyoOE/6DOd0xu9cabr+lpKjt1bi8LF30rs+d87VRHHwzkR/OWTd7CGCZM0IHq6JGjhklCQls91umhhx7UU3EFDG9qmaojYfWFRfux7kGIHpeYCk/9bDuxR3mUMILScAeVAYHQOsA/VyvdamnM0oU1htEhC+3T5bkUbApk3F5dnDDl5eQ33pANU6bI/h07JT05WZVis/T32xGj+/8Rcbol6vzslG5zXL/L5/GR1478PleyDh3SE438pEo0C/r1k3dr1tQTb6AEXxYX0ZilWrSEIcwvOnbQY1k7nXVmkYNmKawJXpnbhPVwu0svlZn9+upe4rbXLCcYxrRclYqxUhzWVi/tG7jyIGGssQAJ1633pp7sqnOXDvLdssW6XRgSbtS43s+B/KhX761akDDagDG7B2b5wEBjSPjRx/6lZwFBUTtgeGOLVAkJ66kolXjnDB+mexCO+Ncj8uH//itzhg3Vvatt2pXLq4SdDloogWIO6ZkqWCO4NEQMAWOWrM8DoaFSuBnATUF5LwWbAhljhqZuShLvqVID2lwx7hYrMx3af0C3HbttHJGuC0eu3kTh+T1m9cI439R9v8rvW7bI+s8+k6lNmkj/G27Qbdgo+VZo+TqpRgkXNTjuaAKb1r59sQTsBNevZVOnyOB/3l3qEw+VBwljZsmrr75aT3KFya4w/fPKVctl0uQJWsJ1672xIpAfdevWPRUDiVVk954d8sknH+sxTk2bNZInn3pczj//fKGE8w++tFjYenzdunpRhsTjj9MlClxw8fMnDRvovxf25S6vEkZQ8kwIhDppoWPU14GSF7EjYAyPwjKK6IxVEaqhC4tuM1YnLIZ49LrkEhn9+OMyu0sX2Txzpvy+dauuskbPZHSQwgxVTjuyLZhWElXeh5KDkqakm7x7ty7xrhg7Vj6rV0/e+dvfdKk3SZVYKlybb2GpFi1hVkcXHAjsvWee1mOiC7tGFRbU/M0dMVyvMleak7mUBwljUqsbbrhez6/Ruk0L3cdqw8Z1MvbD97WE36zzev9AQagnZuOBGNM0ZeqneowTBhxjzBPGPlHC+Qe9L7/q01udjOdEffHwM07Sr3r10o/zPted8ixhxGkf7q4yPFCyIoaA91QLrZoEAXcOhG4CKlI1tE3w/cANWwd1Me+qvm/9r79exj79tExv3VqWvfuubJ09W/dUxmIJkCmmyEQnL4xFxr8p6mf8Dr2wD+zapSW+9/vvZeP06bKgbz8t3RH33Se9Lr1UOp9xhm6j1j1Zq1WCUq8p1QwSZsesfIPvHwoK80eP1h2uvNekIkdJfP3ixTKmlJdyjLGE3zZ4rNBgPo2bb/6rljAmu8KkV9u2b9ZrCuuOWc0bqzJEATRr3lhLeNXq5TJz5pe6e3XzFk3kpZf/I5dddqn4kHD/ot7JmyjPEsbE7sNq1sx36jZMvjHy0UcLXZmkvEsYcYsYJWJUTf9SLbYirioCNgUl0wT1fUEbMnono8SKXtZ9r71Whv7jHzK6Vi355H//023LE197TcY8+aR8oH73/iOPyKBbb9WyRXU3xvV2VCVtzAOMqVcrRVWzTapFS5hDlPIPrlloOtNV7T5LwU50aXjY0FIdahkrCcNVylkDDR4rNCer78Ltt/9dGjeuL23btZJevbvpeaMHDOyrJRyf1C4uUBDNWzTOwAPRm2vet7OlU6ck3c369dqvypVXXik+JDwiB102fVKeJYyehAWtpYmSR98bbtB31N7nulMRJIw4InaqpmMpYreA0REMVdAJ4ff0bkdVCr5bWL1JN3OoizuaOhDc4OF3SKUu4dqmWrSEOVlH/sH2T0lI0J/Hez0qblClvXLWN9JDFd7yuybGOrGSMFwFZxk8VmgwlPeee+7W82u0i2ut5YvRRt26d9ISxlDgQEE0alx/Hx6InlzfLVuie3ahm3Xdem/IVVddJUeqC0DA8MYWmZAV7gHqh/Is4VXqMTgRvc93gtVFeteoodtcvM91p6JIGDGJ2G+vaQh4d7VQJywKmClWqkVLuCSnrcTsdmYJl251bHGD0iomCHK3d8ciKHD0++tfS20Sj1hJGK6CswweKzQYRVTzoQf00N74+DZ6lBEkjKppuLVly+b1AwXxVp3aU/DAj8d/qJczDK0pHF7O8Lrr5Bh1xx0wvLFFvs5Ar0+flGsJz5mtH+t9vhNIuBck/G3lkTDiFvFQla8CxRcxxh5TwIzvVIuWsB46qCQDiW5csbxY+WHVqjwjHDDF7PTOnfVsUZjSccXXMyOdmlBtjYUPIIao7StnQc9vdDqzGb1RlKAj3KC77iy1ddJjJWG4Cs4yeKzAoKb4XHUz9vgTj7qWMRyrRxvVb/CWXkGpTp3XbwsURLNmjfTUlbC3s4hDm/AiDn/7281ywgknRL2xZVYfPHjQ+1mLDCVcPuMV8YxA0UUMAe9S+SxAATP+00WdiytmfuW7p29BgdTnjRyhz9UOf/6zzHy7jx4BgYkrMNXtwNv/XmoC8hN9A1EC+wr7Ysg995TaUKVYSRiuUs5aY/BYgYGEL774Ynnu+X/rxRsw8dVnn0+SrVt/0KXgBg3rZAcKA/NHY4hSX8wfrezdp0/PyPzRd931Dzn11FOj3tgyB4LBoPezFpkqI+FPyte0lTbxI2IKmIl1Opz2Z5n1zsASXX4U0sK1YdDdd+m2eYxBHvvKK/JJo0Yy7KGHymTCiuIE1dHzRo2KbXV0eN/0u/mv0u7IilUdnZKSop1l8FiBcaasfPW/L+kOze07JMrX38yQlStD80Y3a96ocAnHxbVuhgcnJLbV9djDhg+OTF1Zs+YDvmbN2r59u/ezFpkykTDuEr+aUehdYswkvHGDzB/9ge4I4n2N8h5HxFjdaGggtP4wVjwqSMQQ8E6VTwMUMBO7oPSFqtClkyfpKmicV6huxXkcy6DX9Zxhw6TvjTfqlYbQEx3yrUizjmGhBixNiCrp9UuX6vZsv0F78Nf9+4Vq9EppP8RKwnCV1182cWbLQkG2RUtMWZkki5cs0CKGV5s0bZgSKIy6Dev+Qz04RxWbdbfqcR+PlUTMmtW0oTz5ZC0577zztO0Dhg0oLFOnTvV+1iJTFhJGNdM3A/oXekcdKwlvWrVSpiTES9LJJ0W9RkWIW8SYWQsi/rFaqMOVScCYinJy4LCAMREHBcz4TrXQOrjoGPR5XJwsGD1aln85Xd9QxzpLP/tUvuzeTYbef1+5WQe8KMHNAm4e+t70Fz1hx9iXX9Yl+uJmzEsvyrCaD+rOaqU5EUysJDxt2rQof9kEE3Vcf/314dmymuk+VWvXrZbxEz7SEn6r7huzAjaoF9BjhX/4YYNM+2KKJLVP0PXbL774vF4nsbgS7tKli/ezFpmykDDuaDH+d7k62VBV7JVmRMKzZykJV496vhN00+911VV6KJP3uU4wUB5TvmF6vIrQlpRf3CLGykuYaxrVzQfD4kWwEhMWgsAaxf0DlWcmLKYcRX2/2h15pC6homYJHZBQsxXzqNfVa+sed1ypDceJebCvVEkOIkOPbnyWYkc9X9cElPK+iJWE4Sqvv2xykvqe3fb3W8MTdbTUfap27Nwqw0cM1hJu0aJJwWOEHZRwM/GERYvmy7fz5+giNcYKY1UIDFM6Qt3ZBAwbUFj+/e9/S3Z2tvfzFomykDDuEnESv//cc7Jk0kQ9ew56/a1btCgSjB1cMHZMge24eJ1uF16op8DzPh8/Y+jSoo/Hychaj+m70tKqwimpQMQJgdBc0yjljlNZoLJOfa61KnPV/0cHQksSYplECphhGD+JhYThqGeffTbKXzbBSoNYcdAZIzxwYD/58cfd0r17Z7sxwg71G9RZjydMmjxeVq9ZqYrUHXXRGlXUKGqjyB0wbEBhQa+xtLQ072cuEmUhYQQCxd1dV/XeqN4adPfdMvieeyIZdNdd0vPKK/VECt7nuoN2qt7XXON5/j9l0J13St+//EVX36B9pqK0JRUWR8SQLJZBxMxXGE88NBAq/WLGrfYBCphhGP+JhYThKNT4ev1VWFBDjObaJ554TPehQr+qsWPf18OT8LNyam6zZo2fD9jQrFmjREgYRegdO7e5hinVkzvuuF1PyxUwbERhwUZu2rTJ+5mLRFlJ2AnkiCobVBVDqJFgSkCbto8Cnl9ZZzqCXCHZxEBIuBAygv8nBCruakgMw5SvxELCP/zwQ7GaXPEcTO2MKZ7RfIt1F6Z98bn8sHlDZHhSQsJdfwzYEJ/UrjWehMWI0UN68JCBuoc0itgPP1xTzj777KgNsM2AAQO8n7lIlLWEmeIFkkWpGIF0Efyf8mUYJlaJhYQHDhwY5S2bYDbJ0DrCb+hZJuHPhQu/1U26oeFJjTMCttRvXP9OzOyBGT527d4hn0z8WJLax+nVlDAI2c9qSrVq1ZLMzEzv57aGEq74oXgZhimJ+JUwpquEo7zesgkmssKEVg0bhZYw7N69i2zcuE7GfTwmvI7wm7MCRaFps4ZZeOLyFd/JnDnfSMdOoc5Zb771uq/OWdjQffv2eT+7NZQwwzAMY4pfCf/6669y4oknRnnLJmeccYY88OB9kU5ZesKrH3epf3tpCcfFtW4XKAoNG9XdiSd++tlEWbNmpV6YuHWb0BzSWCsRayYGDBtik/fff9/72a2hhBmGYRhT/Er4gw8+iPKVTVAzfOGFF8q///2UNG3WSBKT2smHH43WnbJQg4xOWc1bNX0tUBSat2ycBAkPfKev7N6zU/r27aXtDss/+OD92voBw8bY5NFHHy12lTQlzDAMw5jiR8Jw0mOPPRblK5ugZrhGjat0TTGmq+zYMTRd5Zq1K3UpGHNvPP3000cFikLr1s3e0F2qlcX3KAl/9NEYZfc4vTLE8z7bhY8++mjZunWrdx9YQQkzDMMwpviR8Dbllj/96U9RvrIJmllvufUWXVOMGmPUHEPAWLwBEm7UuP7eQFFBV+rGjevrduFVq5fL7DlfS6dOSZG1ha+55ho56qijojbGNvHx8ZKbm+vdD4VCCTMMwzCmFFfCcFFcXFyUp2yDEUOPPPKQHg+MkUT9+/fR0z73H9AnvIZw06RAcWjYsM4GvADWFt70w3rp0aNLZLywzxWV9Eb//vvv3n1RKJQwwzAMY0pxJbx//36pXr16lKdsghrhyy+/XF559cXI8oUTJ42XXbu3a1eiRrlFq6b/CRSHtnGt22A1iC5dO4RXVBqiZwGB7Z955km5QMmwuFXSSHHGDO9XEu550UVRO59hGIap2oGEx7/0kqQWUcJwkddPtjnuuOPkppv+Ig0ahhZt6NK1oyxavEAWLJznrJyUGSgujRrVvbFuvTeyUf2MxRxmfPVFZKgS5Hzttf6qpDGN5YEDB7z7o0AO7Nwp/a6/3m52KoZhGKbKBGs6f/rWW5JWhGGwycnJxZqm0glqdR9+pGZ4aFIr6fN2T9m5a5uMGDk01CmrYZ1JAT8oi+/DC03+dIJs2LBWevTsIm3btZTGjevLPff+U0477bSojSpK+vbtW6S24eQ9e2TEPfdU6BWGGIZhmNin/YknyvTWreWgZVMn3NOvX78oL9kGvaKvvPJKee31VyNV0RM+GSe79+yIDE1q27ZFg4Af2rRpEQcJYyUlDDwe9e5w3Uu6WbNG8sKLz8mll14qf/jDH6I2zjaoh//ll1+8+yZfUM3w8X/+o6sdvAeAYRiGqbrpcMopMq9XL0lXpVsb4J7itgUjWEfhtr/fJo30LFnN9frB3y1bLN/On61Lwap0nGk9X3R+NGjQ4Or6Dd7KdnpJz/t2tnTu3F5atgqtqvTXv/5Vd88OGDbQNk2bNrVe4hA7d16PHnpnew8AwzAMU3XT9eyzZcOUKZKVnu5VRxRwTrNmzaJ8ZBv0h8JQ3Wf+/aTuJxUf31beGdRfD+kdMLBvaGhSk/ofBWJBw0b1v8MLvvveCL1A8duuiTsef+Ix3x20MDZryZIl3n1kJDszU7bNnat7SFeW5f4YhmEYf2l3xBHS/4Yb5NdNm6yaOJcuXVrsccHIscceKzeo96tX/03dT6pDxyT5csY02bJlo/4d1l9o0bpprUAsaNOuZX3UbcP2O3Zslc+nTJb2HRKkeYvGuoPW9ddfV+w1hp3ccsstdmsNq52bvHu3jK5VS+LVDvQeCIZhGKbqJemEE+TzBg0k7ddfvdaIAq6Bc7weso2zdvCjjz6shyGhn1SvXt1ly9ZNMn7Ch+Gq6Aa/BWKF2uZqqtSbhhfGDCCbNq3Ps8bwI/96SG+Qn9IwkpSUJDk5Od79FUXmwYOy6qOPpJt6T5aGGYZhqnZQCn67Rg1dS5qdkeFVRh7gmPbt20f5pyhBofO66651lih0jQ3eoYcpvVWntrRu3bJVIJa0bN20A94wLr61nkt6/ISP9BtjA9586zW59tpr5Zhjjona2KIE01nOmTPHu8+iQFVD8q5dejxY4vHHSxuKmGEYpkoGBbGOf/6zzGjTJjQ0qZCq6LlK1HCN1z+2QWHz3HPPlYceflAXQlEY7d6ji6xbv0ZXR4c7ZKW/+OKLxwZiSb16/z1bvWEG3mDm11/K2nWr9Bs7pWGMk4pFaRhjh3fv3u3db1Hgbmf7vHky5O9/lzi1Q70HhmEYhqnkUb5JPPZY+eCxx+TntWslp5AOvnv27NGO8XqnKEEp+FpVCsZiDRiGlJgUL+M+Hqs7ZCUmtguVjps1eCdQEjRp2mgY3iCpfZyeFxNv7JSG8fvrrrtOzx4SMGx4UfLAAw/IwYMHvfsvL+puJyM1VdZMnCj9VCk87sgjow8QwzAMUzmjBBx/zDEy5PbbZducOYX2iIZTHnzwwSjfFCUoZJ5//vm6CdZdCl67dpV8M+srZ8WkzNfqvXZhoCSoU6fOJXgDpzS8XhW/MZ9023at9AY9VutfvlZXcqdevXqFLneIaulD+/fL8g8+kIE33igJ6KjFqmmGYZhKHVRBoyly+N13y8YvvpAMdOotoBoaLqlfv36UZ4oaDMe94cYbdIdkpy14/PiPQqXgpFApuEnThqMCJUnTpo1G4I3iE9roWUHQGN0h3FMa3bL/+teb9ADmgOEDFDVdunQpdPywFvGBA7Jp+nQZpUrQaBto98c/Rh00hmEYpoJHyRe1nl3OOks+evZZ2blwoWQWImA4pGvXrlF+KWowKRWmt3zqqcfDPaJbSc+e3WTDxrV6SmenFIzCaqAkUW9wrtM2PGXqp7J5y0bp3aeHHjfcpEkDee75f+sVJf6oRBgwfJCiBB964MCBhfeYVgcg69Ah+WnNGvk6KUn6X3+9nswj/uij2XuaYRimgqetcgGGpHY67TTdD2hB377y25YtVj2h33nnHV+zOjrBFM233Xar1G/wVnhccKIerrtz13Y9RCnUFtxocKA0UG/UC2/YvEUT2bZ9i8yY8YV00rNoNdWzaN119516UutYVEsfqe56hg4dWriIFWiUP/jbb7J76VKZ1bGjvFuzpvS8+GLpWr26vnPqfMYZDMMwTAUJrttdzzlHequC3egnnpD5b7+tO2Bh5sTcQpwAZ8AdcIjXK0UNelPXqHGVvPzKi+HZsdpIv/59lP82yycTPw6VghvXPfTaa6+dESgNateu/X+qNJyMN/5g9CjZpe4EBg95RxIS20nTZo2k9hv/0520jj/++KgPU5ygVN2/f/9Cq6YdcrKydBU1JvX4afVq2Tp7tp7KbPX48bLq4/9v78qDoy7TdM/uFKPlepSiIGqtloNGCMdwBBAxIHKjIpBwn+EInb6vdHfSuUi4UbkTCCiQcEO45IZwCAgEAgRMSAjhkqHc3dJl1hkU5N3veZMfFTvMiNKREN6n6vkDaHL8fl+9z/feK4RCoVBYxQl7XbBpE/f+fpOfT9euXKHr167RrbvQAWgFlgNhwYK/nvxawpnEVMguXTsh3MwzoseNH0v79u2mwqJ8nhyptPCW02mN1f2ecLkcERjLhTzw8RNH6ejRwzRx0rjbLUu9w3rSa6+9FpCwNIhwgtfrpR9+IfzgD9yWMOoSlXMY8iEUCoXCB4Ow27Dfv+T1lgc0IiYmJiAhaLBmzZoUEtKcsNIXxVhoSVq4cAF3CM2eM710RrQ16qL61n/Q/d6wO8wH8APgVoABHllZqzhO7opGWDqK2rVry03NgQhLa+zfvz/vfxQIBAKBoDygDQMGDKigG7+V6AkODq5PQ8vC0Kh9mvrRJC7GwjIjVEkbDJE3vd7obrr7Abfb3lxrWVq3fjWdP1/MWyQQli7bpUjNmjWlp59+usIvdy9s0qQJFRQU+D9/gUAgEDykgCY0bdq0gl78ViKKi2potN4iuquFoXfu2sZahz9D41wuW5bufsJuN05BPByx8ry845Sbm8PNy1wtrW4OQ4YO5JvEvS548OczzzxDGRkZd50nFggEAkH1AzQgMzOTNcFfJ34rtdGUbduGcrExio6xtCgjYyH3BM+bN6esJUl/bfjw4XV09xtWu+kEfqCxyfF06fJ52rxlI98YPF4X3yB69erBbUs1atSo8MveC/GgBg0aRFevXvV/LwKBQCCo5oDtHzx4cEBTnvhatWrV4jwwFjEgqovo7oyZn3BLrjYZy2CMvOl2O8N0VQFOp6WJ1ju8aPECzg9nZC7k/HC028EVZZ27dORpWoEq1CrP559/nr3iGzdu+L8jgUAgEFQzwNbD+4Xt99eDeyWGTTVu3JgiRgwlu8NMvjgvbw08euww5efn8d8hF+yMtq3SVSVYrWZDlGH0T/jhcFM4d66IUtNm8VgvFGqhwRmuPeZuBqpqzZ/vvPMOHT58+K4WOgsEAoHgwQJs+5EjR6h9+/YV7H8giLba4OBgGjS4P6dTMRVrwsQU2r5jCw/lSE5J0MLQJXq9/j90VQ3R0bY1EGH0TR0/cYyHWn8ybSq78hhriRLv1q3fpBdffLHShBiednh4OOXl5YkYCwQCQTUAbDlsep8+fSolmgo+9thjVK/eG9Snb1hZIZaLh1BhGAfakeall+aBEfX1+dzNdVURYWFhjyoBPokfFDeIs8WF6tbyJU1RrjwmjMCNx/qnVq1a0gsvvFBpQgxiSkpPTFjZv/+upm0JBAKBoGoBths2vFevXgGZfPXPCAEOCgriudBInyKNinTq4ozPuM5p7brVLMBRhsibNptlqK4qw2431jOZ9TxNa/yEsXTxYgnt2ZvNgzxKK6bNNDpyBLVs2bJSPWKNSLK3aNGC0tLS6Ntvv/V/xwKBQCCoYvjuu+/YZoeEhAS06OpOxPpdCHCvXpoAl1ZCp89P41ak7OwdHMVFF5DNbpqvexCQkBDzplaoNW36VC7U2rFjK8fW4SFDiOERv9m6FeeIAzFa7G6Ih927d29avny5CLJAIBBUIcAmwzbDRgdiL/3d8Mknn6R69epRWHhPFmDUL6GOKS1tNkdyvzy0n1uUkGZ1ex0bdQ8SXB57D/XD8yCP1LSZHFPfunUTC3Gsz327wiw0tA1XTVdmqOFOxEDu0NBQSkpKUheEHXTt2jX/MyEQCASCSgJs7s6dO9kGwxbDJvvb6coivGsMkWrQoAH16x9+2wOGAM9JnUlFZwso5+ghLs7i3cEu636jscufdA8azOYok9E05gaEeF56KgvxduURIzTti/PwsgfMnu7Y8V2eMx3ogR6/hkj2o5cZtzDMHU1PT6ft27fT8ePH6dKlSzwO7fr161LsJRAIBP8CsJGwlbCZsJ2wobClsKmwrbCxgVp3+1uIFCham5o0+QsNHjKAi7DcHgeHoNPmzlECfIaO5eawo8iFWDZjnl4/tLbuQYXJYvBFGUbfLPWIZ3FoeveeXdx3FRcfw+sQMWe6x4fvc1gAPVqVnQMQCoVC4cNHRFyRAkVN0shRw8lqM5HX66Lk5ARa8Ok8Kj5XREdyvrwtwMpDLo6KivhP3YMOk0kfj+ki+KVmzPiY+60OHT5AH308mRISfRwGQDgAvVmYC43K6d8rTywUCoXC6k/kmRFx7dChPRdaoTYpJjaaxo1Loswli+nCxRLav3+vtpoQvcAFer3+z7rqArNZbzeZ9RyanjAxmYd55J06QbNnz+AwgNvjJIvVyLuIkSeuW7cul43r7vAwhUKhUCi8GyL8XLt2bWrUqCGv2EWhFUZR+nwerlFavyGLI7Tbt2/moVLIASstOhFRHTxgfzidtjCL1XAdQoyccN6p41yBtnDRAkoZl8i7iHE7wYP48MP3OWmOhydesVAoFAp/LeHIYRMShkSNGDlUebcGroDGAKmpUyfSnr276Osrl2j5iiUsvqDLZdsVERHxtK66wufztTZbov4GIUblGR7C5a8v0MaN67hgC3liV7SNH1bEiCHUpk1r9oqfeOIJyRULhUKh8BeJoq86depQw4YN2KEzGsewg4cpWGPHJnAFNCKx6AOePuNjDj8rAb7l9jpXhYWF/buuusPhcAQrj/iMdvNYsnQRCzES4thUkTQ2jh+W5hWHhfXkSjYk1B999NEKD1woFAqFQoSesdIwKOh1ateuLY0cNYwdOhQAYxHD+AnJtGr1cjp/4RzlHj/KEVkIMFKlVqtxku5hwqhRo56M9jizcPvQpmt9lZ9H50qKODSAh4WHBq8YJeT4TLdunalBg2Au3Po9e8qEQqFQWHWJKOlTTz1Fdev+mcciDxzUj3O/qHKGQ4e6I3i8Bw5+weFn5IHx79yCZDH8n8fj7Kp7WKEeQIwiT9dCVdrmzRvoinpImFQyc9Y0nt+JCjYk0lFBjZtNh47vUv369TncIGIsFAqFDyc18X311VepeUhzCu/TiwzGMawl6LqJj4/h4quVq5YpB+8sFRScpqkfTdLCz2SzmY8Y7cZ6uocdMTExzSyWqCI8FDycKVMnsFeMkvGNn6/jnmK0MuFGgwEf6CvGrkeIcXBwfZ5BjUEfkjMWCoXC6k8U6yLsjKKrECW+GDuJwU/osEH0FGHm5JREmjtvDg/egPcLLdHajxB+VgI8g4j+oBOUwmg0/slut6RpbUwIFSAsjZ7igjOnaemyDG5tQlWbx+PkfDE+M2r0cOratTM1btyIXn75ZR72IdXUQqFQWP2ImiBMu3o96HV6663W1K9f+G3xRd4XI5ERPUXoec8eFP1epKPHDnP3jeb9KoevxOfztNEJ7gz1cFpZrYavNK8YoegdO7dyiPrEiWO0aPGnnC9mMfY6OeaPMDU+jx4wlKK/8UYQ541RUV3ZW5qEQqFQWHlEyvHZZ5/lHQNwtjp17kjDhg8mo0nPnm158cX++m3bNnMU9UxhPqXNna1tQIJO/GhzmKfFx8f/USf4ZTidFpfFYvgeDw/ETWb/gb105a+XKDc3h/c8ItaPMLU3xkVOp5VvQyb1YhCq7v5eN2rRIkQJ8hv00ksvsYeMlykha6FQKKy6RCQT061q1arFud6GDRtSu3faUt++YSyocLrsdjPnfFG8m5ycQNOmfURbt23iliMU92YuWcifg3bg/9gdlmyH19FQJ/h10Ov1te1Oy3z1MDlEDU6clEIHDu5TYnyZh30g4Y6ccdLYBM4DYBkzvGNUVKO9CYLco8d79Pbbb/HwD/QcI4eMfALyyBK6FgqFwvtDOEU1atTglYIYzISUIhynZs2aUadOHahf/z6kjxrNqcdSr9fKTldCgo/GjR/L/b7Zu3fQxUslPIURaUst71s6+cpw3uVx9dQJ7g3WaGt9h8uyUr2In8p7xruyt3PM/2zxGb4FzZo9nV8MvGOEsTEZBYVcEGRtJyTmU7//fnd6O7QN9x7jhSO5D28ZNy94zJiygoMhoWyhUCi8d2J4xiOPPMIpwpo1a3JnyyuvvMLblIKDg6llyxa8TS88vBeNGDmMHSh4sjabiYUXY43h9SLkPGnyeFq6NIPnSqDgKr/gFE9d1FpZy8ZOfuNy2/U6QWDh9DobOxw/F2PcitB8DSHWQtVZWas4N5AyLokFOdbn4VVVCFnjpeLlIp+AhD4Ku/qr29YHylvu0LE955SxRAItUBBoDPzGYYFIoyDgueeeYy8aZfGPP/44CzYOF0QbBw2etYS8hUJhdSQcE9g4bCNCeg/RRISOIa5wYCCw8GhRk4PhSggnBwUFsS1FWDkkJITatgulrt06U++wD2no0IEsmmgrgqOElCIimahwxhhjTFBEj+/EieN4y1F29g4qPlfIth4RURRgwY5r4qu84G88HocpPj7+33SCyoPdbqxnt5vmq5vPj5oY40VMmz6VvWOEJrC7OPd4DpelIzmP/DFuUQhjQJRR1IUXjReOdVaat4wbGL4WQiCYNYqmb0zs+uCD7tSlSydq/+47FBr6Nr3ZuhX3pf1FedMNGzW8LdoacfBwy4OIIwQObxuFBRB0EGEXoVAorCrUbBPsFMQTNgu2CzZME1KNWDuL9F7jxo2pabOm1EJ5sm3avMVTquDRdu/elXr2/ID69gujocMGUmTkCLarsK+ws3CEILgYXVzq6To4egnRTUyKUw7UWN6yt2TpYtqzN5udrL9evUynTp/gkDOcL832I+ervlah2+2K9NcKQSUDQ7a9Xle0EtErWgUcCEGdNXsabdu+mUpKzqqX9zUn6w9++QWtX59F8xfMpcmTJ7CnjFtWQkIsb9TAzQthj+hoOx+M8gIN4uDgAGlirRGHK8oA4R5FoyMjeKDI8IghfMvD0uhBSsgHDOzLHjeKC/r07c1hFzCsjKj2mzNnBi1YkFrGtDKmUlyc9/bnhEKhMNBke9SnN9sntP0MGNCXHRCk74YoGwb7hPoaRA4jx5QKH+yeJqyauLLAmqPKRNbA+VkILYYtoYoZNTuY9xAT6y4V3MQ4do7Q8QKvFgKLbhjU+8CRQu3Psdwj/PeJST62sZqdN1sMN61240qn29rZXxsE9wFKODsp73ieeuH/KP+icFiSUxIoI/Mz+mL/Hq6egyhjVvXp0yd5fyS85YzMhTRbiSDyDcgrJ6uDgRsZBBqHBUVfKIOHUOMQ4ebmVgcKgg2PGqLtcCo6LCzeIHqZS2niMDgO5J2IGyG+R/burXTw4J4KXLgonT8jFAqFgaS/LdIIe8V267YNK7VpYKmgWllUYfsgrLCHiC7CQ4XAItqIHG58QgynBOHspKQksth+/MkUdoSQRoTgHj16mIqLC9nTRSsqvN2Nn69lRwrfS7PloBL5W2ar4XRMTLSjWm86etARHe3orwR5ljpE18p7yFreAGKamjaTVq9ZwW1PZ88in3yZxRm3r6KiAg5l49/gTa9bt4aWLcukTz9Lp9TUmXyIJk5M4QMFwYZHjeksuNGhShsHjgU8EfSVUok5iP5mEKJbnpOV+O/fn005OQcqcMXKzAqfFwqFwkBSs02gZq9u2y9ly2DTYNtg50DYPNg+2MAJyhaiSwULeNLTUykjYyGL7KZNG2j37p10+MhBdnouXDjHYgtbe+nyBTpx8hgX1aLldPKU8aQVV5WnxWK4ZbJEHYqNdXsMBsMr/vZeUMVhNBob+Xwer9E8Zp26Vf2gJfH9iZeP7U2osEaPGQZ8792XzYcEoWwUAuDgaIRoX7xYwje4/PxTdPJkLk9mwWFDwQD+L4oIcNND8/iWrZ/Tps0b2OvesHEtrVu/hsVd4+eb1lNu7iH1dXIqcN++nbQma6VQKBQGhFlrV9Hadat/ZoOQqsNKWdiizVs2st3avmML7dy5jXbv2cmRRMz0z8k5xBuITilRLSzM55QfulQ0cS3lZSWypdMOYRPhzKxavYw9YIwlhufs7yBpTpLyxG8pe3zJ5bJNcLkcEZim6G/XBQ8w1E2qjtfrtrq9jgSDIfKA3WH+UWvq/lcsbfg2qxujlyZNHsc3vnnpc7g0HvkKHOyNSlwhtigOw4E9dPggCzOEHDkOzMM+U3iaCovyudBAI6r9zp2DmJ9Qn8Hnfs7CwlN0/kKxUCgUBoxwLorL2aGiswXKPn3FLT+nvzpJJ/NyOSKYc/QQ19Ng9ztEGc4EnIiVK5dyGg9Vy+jXRYQQHjIEFrlhfxvqzzKbqgTX+I3RrE+Ni/P6rA7re/42W/AQoG3btn80GvUdY+O80bFx7niDKfIT5THn2+zmvyvv+ZY2FtP/EAWSMTEuDkcfO3awAhdnLKjweaFQKKzKRNQRk62UDb1pthj+W68ftcnhsiQkJsb6HNG20cP0w17yt8UCwT9FZOTgF0zWqHCPJ9oWpw6RYnxsrDvB5jAl6PUjJ0eOGblCMVuJda46fIUm85jLSrz/y2I1fGu1Ga8pfm+zm/6uhP06vO/yVIf0RnxizM31G1bd2rJ1fQXOnTfrJ6fTekMoFAoDRYeivy2yOyw/2B2mf1htpu+tVuPflJf6v0pA/8dkjrpqNI0pUd7raSWwB8foR2yO1I+cqxyWJLfbkaC82PhE2MQ4r8fuskZGGiJbh4WF1fC3o4KK+H+pbara4GpJDgAAAABJRU5ErkJggg==;" vertex="1" parent="1">
          <mxGeometry x="230" y="150" width="198.93" height="402" as="geometry" />
        </mxCell>
        <mxCell id="ApYNXiz9CdKPTG6G7-e--2" value="" style="endArrow=classic;html=1;rounded=0;strokeColor=#FF8000;" edge="1" parent="1">
          <mxGeometry width="50" height="50" relative="1" as="geometry">
            <mxPoint x="220" y="190" as="sourcePoint" />
            <mxPoint x="140" y="300" as="targetPoint" />
          </mxGeometry>
        </mxCell>
        <mxCell id="ApYNXiz9CdKPTG6G7-e--3" value="" style="endArrow=classic;html=1;rounded=0;strokeColor=#FF8000;" edge="1" parent="1">
          <mxGeometry width="50" height="50" relative="1" as="geometry">
            <mxPoint x="220" y="520" as="sourcePoint" />
            <mxPoint x="140" y="350" as="targetPoint" />
          </mxGeometry>
        </mxCell>
        <mxCell id="ApYNXiz9CdKPTG6G7-e--4" value="&lt;font style=&quot;font-size: 13px;&quot; color=&quot;#ff8000&quot;&gt;&lt;b&gt;Header &amp;amp;&lt;/b&gt;&lt;/font&gt;&lt;div style=&quot;font-size: 13px;&quot;&gt;&lt;font style=&quot;font-size: 13px;&quot; color=&quot;#ff8000&quot;&gt;&lt;b&gt;Footer&lt;/b&gt;&lt;/font&gt;&lt;/div&gt;" style="text;html=1;align=center;verticalAlign=middle;whiteSpace=wrap;rounded=0;" vertex="1" parent="1">
          <mxGeometry x="110" y="310" width="60" height="30" as="geometry" />
        </mxCell>
      </root>
    </mxGraphModel>
  </diagram>
</mxfile>
